M48
; DRILL file {KiCad (5.1.10)-1} date 11/07/21 19:26:09
; FORMAT={3:3/ absolute / metric / suppress leading zeros}
; #@! TF.CreationDate,2021-11-07T19:26:09-08:00
; #@! TF.GenerationSoftware,Kicad,Pcbnew,(5.1.10)-1
; #@! TF.FileFunction,Plated,1,4,PTH
FMAT,2
METRIC,TZ
T1C0.400
T2C0.600
T3C1.000
T4C1.200
T5C4.300
%
G90
G05
T1
X140310Y-97380
X140380Y-98490
X140500Y-99570
X143100Y-87180
X144360Y-87210
X144900Y-93000
X145070Y-94010
X145070Y-95080
X145140Y-88960
X146560Y-89650
X148890Y-86990
X148900Y-84510
X149430Y-105250
X150010Y-84490
X150010Y-86990
X150300Y-93080
X150320Y-98890
X150330Y-100110
X150340Y-89920
X151030Y-104930
X151130Y-84500
X151140Y-88240
X151140Y-94560
X151150Y-86950
X152970Y-104150
X154450Y-79900
X154460Y-78730
X154570Y-90490
X154650Y-85000
X154670Y-100480
X155670Y-83380
X156000Y-51760
X156000Y-52830
X156190Y-105540
X156560Y-54530
X156560Y-55480
X156980Y-78700
X156980Y-128710
X157850Y-44400
X158510Y-128730
X158630Y-105560
X158960Y-56110
X159170Y-44400
X160180Y-56110
X160470Y-44400
X161670Y-79890
X161680Y-104880
X161800Y-44410
X162970Y-122710
X163170Y-105550
X164210Y-79920
X165640Y-105550
X166700Y-79900
X168080Y-105540
X169220Y-79900
X171230Y-106360
X172770Y-101630
X172970Y-105560
X173310Y-85480
X175810Y-103870
X176755Y-94020
X176760Y-91500
X176770Y-97000
X176770Y-99510
X177580Y-85540
X177600Y-84260
X178490Y-86580
T2
X136715Y-45750
X136745Y-135880
X137660Y-43470
X137660Y-48030
X137690Y-133600
X137690Y-138160
X139940Y-42525
X139940Y-48975
X139970Y-132655
X139970Y-139105
X142220Y-43470
X142220Y-48030
X142250Y-133600
X142250Y-138160
X143165Y-45750
X143195Y-135880
X183255Y-135940
X183575Y-45740
X184200Y-133660
X184200Y-138220
X184520Y-43460
X184520Y-48020
X186480Y-132715
X186480Y-139165
X186800Y-42515
X186800Y-48965
X188760Y-133660
X188760Y-138220
X189080Y-43460
X189080Y-48020
X189705Y-135940
X190025Y-45740
T3
X139900Y-67590
X139900Y-70130
X139900Y-72670
X139900Y-75210
X140010Y-109960
X140010Y-112500
X140010Y-115040
X140010Y-117580
X157160Y-71740
X159700Y-71740
X162240Y-71740
X170520Y-117520
X173060Y-117520
X182530Y-85500
X182530Y-88040
X182530Y-90580
X182530Y-93120
X186420Y-109950
X186420Y-112490
X186420Y-115030
X186420Y-117570
X186520Y-67740
X186520Y-70280
X186520Y-72820
X186520Y-75360
T4
X167500Y-50000
X171000Y-50000
T5
X139940Y-45750
X139970Y-135880
X186480Y-135940
X186800Y-45740
T0
M30
