%TF.GenerationSoftware,KiCad,Pcbnew,(5.1.10)-1*%
%TF.CreationDate,2021-11-07T19:26:15-08:00*%
%TF.ProjectId,stm32_pcb,73746d33-325f-4706-9362-2e6b69636164,rev?*%
%TF.SameCoordinates,Original*%
%TF.FileFunction,Legend,Top*%
%TF.FilePolarity,Positive*%
%FSLAX46Y46*%
G04 Gerber Fmt 4.6, Leading zero omitted, Abs format (unit mm)*
G04 Created by KiCad (PCBNEW (5.1.10)-1) date 2021-11-07 19:26:15*
%MOMM*%
%LPD*%
G01*
G04 APERTURE LIST*
%ADD10C,0.150000*%
%ADD11C,0.300000*%
%ADD12C,0.120000*%
%ADD13C,0.200000*%
%ADD14C,0.127000*%
%ADD15C,0.100000*%
G04 APERTURE END LIST*
D10*
X184778095Y-85954761D02*
X184920952Y-86002380D01*
X185159047Y-86002380D01*
X185254285Y-85954761D01*
X185301904Y-85907142D01*
X185349523Y-85811904D01*
X185349523Y-85716666D01*
X185301904Y-85621428D01*
X185254285Y-85573809D01*
X185159047Y-85526190D01*
X184968571Y-85478571D01*
X184873333Y-85430952D01*
X184825714Y-85383333D01*
X184778095Y-85288095D01*
X184778095Y-85192857D01*
X184825714Y-85097619D01*
X184873333Y-85050000D01*
X184968571Y-85002380D01*
X185206666Y-85002380D01*
X185349523Y-85050000D01*
X185682857Y-85002380D02*
X185920952Y-86002380D01*
X186111428Y-85288095D01*
X186301904Y-86002380D01*
X186540000Y-85002380D01*
X187492380Y-85907142D02*
X187444761Y-85954761D01*
X187301904Y-86002380D01*
X187206666Y-86002380D01*
X187063809Y-85954761D01*
X186968571Y-85859523D01*
X186920952Y-85764285D01*
X186873333Y-85573809D01*
X186873333Y-85430952D01*
X186920952Y-85240476D01*
X186968571Y-85145238D01*
X187063809Y-85050000D01*
X187206666Y-85002380D01*
X187301904Y-85002380D01*
X187444761Y-85050000D01*
X187492380Y-85097619D01*
X188397142Y-86002380D02*
X187920952Y-86002380D01*
X187920952Y-85002380D01*
X188730476Y-86002380D02*
X188730476Y-85002380D01*
X189301904Y-86002380D02*
X188873333Y-85430952D01*
X189301904Y-85002380D02*
X188730476Y-85573809D01*
X184830952Y-88484761D02*
X184973809Y-88532380D01*
X185211904Y-88532380D01*
X185307142Y-88484761D01*
X185354761Y-88437142D01*
X185402380Y-88341904D01*
X185402380Y-88246666D01*
X185354761Y-88151428D01*
X185307142Y-88103809D01*
X185211904Y-88056190D01*
X185021428Y-88008571D01*
X184926190Y-87960952D01*
X184878571Y-87913333D01*
X184830952Y-87818095D01*
X184830952Y-87722857D01*
X184878571Y-87627619D01*
X184926190Y-87580000D01*
X185021428Y-87532380D01*
X185259523Y-87532380D01*
X185402380Y-87580000D01*
X185735714Y-87532380D02*
X185973809Y-88532380D01*
X186164285Y-87818095D01*
X186354761Y-88532380D01*
X186592857Y-87532380D01*
X186973809Y-88532380D02*
X186973809Y-87532380D01*
X187211904Y-87532380D01*
X187354761Y-87580000D01*
X187450000Y-87675238D01*
X187497619Y-87770476D01*
X187545238Y-87960952D01*
X187545238Y-88103809D01*
X187497619Y-88294285D01*
X187450000Y-88389523D01*
X187354761Y-88484761D01*
X187211904Y-88532380D01*
X186973809Y-88532380D01*
X187973809Y-88532380D02*
X187973809Y-87532380D01*
X188640476Y-87532380D02*
X188830952Y-87532380D01*
X188926190Y-87580000D01*
X189021428Y-87675238D01*
X189069047Y-87865714D01*
X189069047Y-88199047D01*
X189021428Y-88389523D01*
X188926190Y-88484761D01*
X188830952Y-88532380D01*
X188640476Y-88532380D01*
X188545238Y-88484761D01*
X188450000Y-88389523D01*
X188402380Y-88199047D01*
X188402380Y-87865714D01*
X188450000Y-87675238D01*
X188545238Y-87580000D01*
X188640476Y-87532380D01*
X172078571Y-120702380D02*
X172078571Y-119702380D01*
X172411904Y-120416666D01*
X172745238Y-119702380D01*
X172745238Y-120702380D01*
X173411904Y-119702380D02*
X173602380Y-119702380D01*
X173697619Y-119750000D01*
X173792857Y-119845238D01*
X173840476Y-120035714D01*
X173840476Y-120369047D01*
X173792857Y-120559523D01*
X173697619Y-120654761D01*
X173602380Y-120702380D01*
X173411904Y-120702380D01*
X173316666Y-120654761D01*
X173221428Y-120559523D01*
X173173809Y-120369047D01*
X173173809Y-120035714D01*
X173221428Y-119845238D01*
X173316666Y-119750000D01*
X173411904Y-119702380D01*
X174221428Y-120654761D02*
X174364285Y-120702380D01*
X174602380Y-120702380D01*
X174697619Y-120654761D01*
X174745238Y-120607142D01*
X174792857Y-120511904D01*
X174792857Y-120416666D01*
X174745238Y-120321428D01*
X174697619Y-120273809D01*
X174602380Y-120226190D01*
X174411904Y-120178571D01*
X174316666Y-120130952D01*
X174269047Y-120083333D01*
X174221428Y-119988095D01*
X174221428Y-119892857D01*
X174269047Y-119797619D01*
X174316666Y-119750000D01*
X174411904Y-119702380D01*
X174650000Y-119702380D01*
X174792857Y-119750000D01*
X175221428Y-120702380D02*
X175221428Y-119702380D01*
X168934761Y-120657142D02*
X168887142Y-120704761D01*
X168744285Y-120752380D01*
X168649047Y-120752380D01*
X168506190Y-120704761D01*
X168410952Y-120609523D01*
X168363333Y-120514285D01*
X168315714Y-120323809D01*
X168315714Y-120180952D01*
X168363333Y-119990476D01*
X168410952Y-119895238D01*
X168506190Y-119800000D01*
X168649047Y-119752380D01*
X168744285Y-119752380D01*
X168887142Y-119800000D01*
X168934761Y-119847619D01*
X169839523Y-120752380D02*
X169363333Y-120752380D01*
X169363333Y-119752380D01*
X170172857Y-120752380D02*
X170172857Y-119752380D01*
X170744285Y-120752380D02*
X170315714Y-120180952D01*
X170744285Y-119752380D02*
X170172857Y-120323809D01*
X172166190Y-115264761D02*
X172309047Y-115312380D01*
X172547142Y-115312380D01*
X172642380Y-115264761D01*
X172690000Y-115217142D01*
X172737619Y-115121904D01*
X172737619Y-115026666D01*
X172690000Y-114931428D01*
X172642380Y-114883809D01*
X172547142Y-114836190D01*
X172356666Y-114788571D01*
X172261428Y-114740952D01*
X172213809Y-114693333D01*
X172166190Y-114598095D01*
X172166190Y-114502857D01*
X172213809Y-114407619D01*
X172261428Y-114360000D01*
X172356666Y-114312380D01*
X172594761Y-114312380D01*
X172737619Y-114360000D01*
X173166190Y-115312380D02*
X173166190Y-114312380D01*
X173547142Y-114312380D01*
X173642380Y-114360000D01*
X173690000Y-114407619D01*
X173737619Y-114502857D01*
X173737619Y-114645714D01*
X173690000Y-114740952D01*
X173642380Y-114788571D01*
X173547142Y-114836190D01*
X173166190Y-114836190D01*
X174166190Y-115312380D02*
X174166190Y-114312380D01*
D11*
X153709285Y-115198571D02*
X153709285Y-113698571D01*
X154566428Y-115198571D01*
X154566428Y-113698571D01*
X156137857Y-115198571D02*
X155637857Y-114484285D01*
X155280714Y-115198571D02*
X155280714Y-113698571D01*
X155852142Y-113698571D01*
X155995000Y-113770000D01*
X156066428Y-113841428D01*
X156137857Y-113984285D01*
X156137857Y-114198571D01*
X156066428Y-114341428D01*
X155995000Y-114412857D01*
X155852142Y-114484285D01*
X155280714Y-114484285D01*
X156709285Y-115127142D02*
X156923571Y-115198571D01*
X157280714Y-115198571D01*
X157423571Y-115127142D01*
X157495000Y-115055714D01*
X157566428Y-114912857D01*
X157566428Y-114770000D01*
X157495000Y-114627142D01*
X157423571Y-114555714D01*
X157280714Y-114484285D01*
X156995000Y-114412857D01*
X156852142Y-114341428D01*
X156780714Y-114270000D01*
X156709285Y-114127142D01*
X156709285Y-113984285D01*
X156780714Y-113841428D01*
X156852142Y-113770000D01*
X156995000Y-113698571D01*
X157352142Y-113698571D01*
X157566428Y-113770000D01*
X157995000Y-113698571D02*
X158852142Y-113698571D01*
X158423571Y-115198571D02*
X158423571Y-113698571D01*
D10*
X184668095Y-90781428D02*
X185430000Y-90781428D01*
X185049047Y-91162380D02*
X185049047Y-90400476D01*
X185810952Y-90162380D02*
X186430000Y-90162380D01*
X186096666Y-90543333D01*
X186239523Y-90543333D01*
X186334761Y-90590952D01*
X186382380Y-90638571D01*
X186430000Y-90733809D01*
X186430000Y-90971904D01*
X186382380Y-91067142D01*
X186334761Y-91114761D01*
X186239523Y-91162380D01*
X185953809Y-91162380D01*
X185858571Y-91114761D01*
X185810952Y-91067142D01*
X186715714Y-90162380D02*
X187049047Y-91162380D01*
X187382380Y-90162380D01*
X187620476Y-90162380D02*
X188239523Y-90162380D01*
X187906190Y-90543333D01*
X188049047Y-90543333D01*
X188144285Y-90590952D01*
X188191904Y-90638571D01*
X188239523Y-90733809D01*
X188239523Y-90971904D01*
X188191904Y-91067142D01*
X188144285Y-91114761D01*
X188049047Y-91162380D01*
X187763333Y-91162380D01*
X187668095Y-91114761D01*
X187620476Y-91067142D01*
X185398095Y-92670000D02*
X185302857Y-92622380D01*
X185160000Y-92622380D01*
X185017142Y-92670000D01*
X184921904Y-92765238D01*
X184874285Y-92860476D01*
X184826666Y-93050952D01*
X184826666Y-93193809D01*
X184874285Y-93384285D01*
X184921904Y-93479523D01*
X185017142Y-93574761D01*
X185160000Y-93622380D01*
X185255238Y-93622380D01*
X185398095Y-93574761D01*
X185445714Y-93527142D01*
X185445714Y-93193809D01*
X185255238Y-93193809D01*
X185874285Y-93622380D02*
X185874285Y-92622380D01*
X186445714Y-93622380D01*
X186445714Y-92622380D01*
X186921904Y-93622380D02*
X186921904Y-92622380D01*
X187160000Y-92622380D01*
X187302857Y-92670000D01*
X187398095Y-92765238D01*
X187445714Y-92860476D01*
X187493333Y-93050952D01*
X187493333Y-93193809D01*
X187445714Y-93384285D01*
X187398095Y-93479523D01*
X187302857Y-93574761D01*
X187160000Y-93622380D01*
X186921904Y-93622380D01*
X172343333Y-44637619D02*
X172010000Y-43637619D01*
X171676666Y-44637619D01*
X171343333Y-43637619D02*
X171343333Y-44637619D01*
X171105238Y-44637619D01*
X170962380Y-44590000D01*
X170867142Y-44494761D01*
X170819523Y-44399523D01*
X170771904Y-44209047D01*
X170771904Y-44066190D01*
X170819523Y-43875714D01*
X170867142Y-43780476D01*
X170962380Y-43685238D01*
X171105238Y-43637619D01*
X171343333Y-43637619D01*
X170343333Y-43637619D02*
X170343333Y-44637619D01*
X170105238Y-44637619D01*
X169962380Y-44590000D01*
X169867142Y-44494761D01*
X169819523Y-44399523D01*
X169771904Y-44209047D01*
X169771904Y-44066190D01*
X169819523Y-43875714D01*
X169867142Y-43780476D01*
X169962380Y-43685238D01*
X170105238Y-43637619D01*
X170343333Y-43637619D01*
X168221904Y-44590000D02*
X168317142Y-44637619D01*
X168460000Y-44637619D01*
X168602857Y-44590000D01*
X168698095Y-44494761D01*
X168745714Y-44399523D01*
X168793333Y-44209047D01*
X168793333Y-44066190D01*
X168745714Y-43875714D01*
X168698095Y-43780476D01*
X168602857Y-43685238D01*
X168460000Y-43637619D01*
X168364761Y-43637619D01*
X168221904Y-43685238D01*
X168174285Y-43732857D01*
X168174285Y-44066190D01*
X168364761Y-44066190D01*
X167745714Y-43637619D02*
X167745714Y-44637619D01*
X167174285Y-43637619D01*
X167174285Y-44637619D01*
X166698095Y-43637619D02*
X166698095Y-44637619D01*
X166460000Y-44637619D01*
X166317142Y-44590000D01*
X166221904Y-44494761D01*
X166174285Y-44399523D01*
X166126666Y-44209047D01*
X166126666Y-44066190D01*
X166174285Y-43875714D01*
X166221904Y-43780476D01*
X166317142Y-43685238D01*
X166460000Y-43637619D01*
X166698095Y-43637619D01*
X161528095Y-74180000D02*
X161432857Y-74132380D01*
X161290000Y-74132380D01*
X161147142Y-74180000D01*
X161051904Y-74275238D01*
X161004285Y-74370476D01*
X160956666Y-74560952D01*
X160956666Y-74703809D01*
X161004285Y-74894285D01*
X161051904Y-74989523D01*
X161147142Y-75084761D01*
X161290000Y-75132380D01*
X161385238Y-75132380D01*
X161528095Y-75084761D01*
X161575714Y-75037142D01*
X161575714Y-74703809D01*
X161385238Y-74703809D01*
X162004285Y-75132380D02*
X162004285Y-74132380D01*
X162575714Y-75132380D01*
X162575714Y-74132380D01*
X163051904Y-75132380D02*
X163051904Y-74132380D01*
X163290000Y-74132380D01*
X163432857Y-74180000D01*
X163528095Y-74275238D01*
X163575714Y-74370476D01*
X163623333Y-74560952D01*
X163623333Y-74703809D01*
X163575714Y-74894285D01*
X163528095Y-74989523D01*
X163432857Y-75084761D01*
X163290000Y-75132380D01*
X163051904Y-75132380D01*
X155292857Y-74152380D02*
X155911904Y-74152380D01*
X155578571Y-74533333D01*
X155721428Y-74533333D01*
X155816666Y-74580952D01*
X155864285Y-74628571D01*
X155911904Y-74723809D01*
X155911904Y-74961904D01*
X155864285Y-75057142D01*
X155816666Y-75104761D01*
X155721428Y-75152380D01*
X155435714Y-75152380D01*
X155340476Y-75104761D01*
X155292857Y-75057142D01*
X156197619Y-74152380D02*
X156530952Y-75152380D01*
X156864285Y-74152380D01*
X157102380Y-74152380D02*
X157721428Y-74152380D01*
X157388095Y-74533333D01*
X157530952Y-74533333D01*
X157626190Y-74580952D01*
X157673809Y-74628571D01*
X157721428Y-74723809D01*
X157721428Y-74961904D01*
X157673809Y-75057142D01*
X157626190Y-75104761D01*
X157530952Y-75152380D01*
X157245238Y-75152380D01*
X157150000Y-75104761D01*
X157102380Y-75057142D01*
X158150000Y-74771428D02*
X158911904Y-74771428D01*
X158530952Y-75152380D02*
X158530952Y-74390476D01*
X157906666Y-69068571D02*
X158049523Y-69116190D01*
X158097142Y-69163809D01*
X158144761Y-69259047D01*
X158144761Y-69401904D01*
X158097142Y-69497142D01*
X158049523Y-69544761D01*
X157954285Y-69592380D01*
X157573333Y-69592380D01*
X157573333Y-68592380D01*
X157906666Y-68592380D01*
X158001904Y-68640000D01*
X158049523Y-68687619D01*
X158097142Y-68782857D01*
X158097142Y-68878095D01*
X158049523Y-68973333D01*
X158001904Y-69020952D01*
X157906666Y-69068571D01*
X157573333Y-69068571D01*
X158763809Y-68592380D02*
X158954285Y-68592380D01*
X159049523Y-68640000D01*
X159144761Y-68735238D01*
X159192380Y-68925714D01*
X159192380Y-69259047D01*
X159144761Y-69449523D01*
X159049523Y-69544761D01*
X158954285Y-69592380D01*
X158763809Y-69592380D01*
X158668571Y-69544761D01*
X158573333Y-69449523D01*
X158525714Y-69259047D01*
X158525714Y-68925714D01*
X158573333Y-68735238D01*
X158668571Y-68640000D01*
X158763809Y-68592380D01*
X159811428Y-68592380D02*
X160001904Y-68592380D01*
X160097142Y-68640000D01*
X160192380Y-68735238D01*
X160240000Y-68925714D01*
X160240000Y-69259047D01*
X160192380Y-69449523D01*
X160097142Y-69544761D01*
X160001904Y-69592380D01*
X159811428Y-69592380D01*
X159716190Y-69544761D01*
X159620952Y-69449523D01*
X159573333Y-69259047D01*
X159573333Y-68925714D01*
X159620952Y-68735238D01*
X159716190Y-68640000D01*
X159811428Y-68592380D01*
X160525714Y-68592380D02*
X161097142Y-68592380D01*
X160811428Y-69592380D02*
X160811428Y-68592380D01*
X161620952Y-68592380D02*
X161716190Y-68592380D01*
X161811428Y-68640000D01*
X161859047Y-68687619D01*
X161906666Y-68782857D01*
X161954285Y-68973333D01*
X161954285Y-69211428D01*
X161906666Y-69401904D01*
X161859047Y-69497142D01*
X161811428Y-69544761D01*
X161716190Y-69592380D01*
X161620952Y-69592380D01*
X161525714Y-69544761D01*
X161478095Y-69497142D01*
X161430476Y-69401904D01*
X161382857Y-69211428D01*
X161382857Y-68973333D01*
X161430476Y-68782857D01*
X161478095Y-68687619D01*
X161525714Y-68640000D01*
X161620952Y-68592380D01*
X178693809Y-109988571D02*
X178836666Y-110036190D01*
X178884285Y-110083809D01*
X178931904Y-110179047D01*
X178931904Y-110321904D01*
X178884285Y-110417142D01*
X178836666Y-110464761D01*
X178741428Y-110512380D01*
X178360476Y-110512380D01*
X178360476Y-109512380D01*
X178693809Y-109512380D01*
X178789047Y-109560000D01*
X178836666Y-109607619D01*
X178884285Y-109702857D01*
X178884285Y-109798095D01*
X178836666Y-109893333D01*
X178789047Y-109940952D01*
X178693809Y-109988571D01*
X178360476Y-109988571D01*
X179550952Y-109512380D02*
X179741428Y-109512380D01*
X179836666Y-109560000D01*
X179931904Y-109655238D01*
X179979523Y-109845714D01*
X179979523Y-110179047D01*
X179931904Y-110369523D01*
X179836666Y-110464761D01*
X179741428Y-110512380D01*
X179550952Y-110512380D01*
X179455714Y-110464761D01*
X179360476Y-110369523D01*
X179312857Y-110179047D01*
X179312857Y-109845714D01*
X179360476Y-109655238D01*
X179455714Y-109560000D01*
X179550952Y-109512380D01*
X180265238Y-109512380D02*
X180836666Y-109512380D01*
X180550952Y-110512380D02*
X180550952Y-109512380D01*
X180931904Y-110607619D02*
X181693809Y-110607619D01*
X181931904Y-110512380D02*
X181931904Y-109512380D01*
X182170000Y-109512380D01*
X182312857Y-109560000D01*
X182408095Y-109655238D01*
X182455714Y-109750476D01*
X182503333Y-109940952D01*
X182503333Y-110083809D01*
X182455714Y-110274285D01*
X182408095Y-110369523D01*
X182312857Y-110464761D01*
X182170000Y-110512380D01*
X181931904Y-110512380D01*
X182931904Y-110512380D02*
X182931904Y-109512380D01*
X183408095Y-110512380D02*
X183408095Y-109512380D01*
X183979523Y-110512380D01*
X183979523Y-109512380D01*
X142743809Y-109888571D02*
X142886666Y-109936190D01*
X142934285Y-109983809D01*
X142981904Y-110079047D01*
X142981904Y-110221904D01*
X142934285Y-110317142D01*
X142886666Y-110364761D01*
X142791428Y-110412380D01*
X142410476Y-110412380D01*
X142410476Y-109412380D01*
X142743809Y-109412380D01*
X142839047Y-109460000D01*
X142886666Y-109507619D01*
X142934285Y-109602857D01*
X142934285Y-109698095D01*
X142886666Y-109793333D01*
X142839047Y-109840952D01*
X142743809Y-109888571D01*
X142410476Y-109888571D01*
X143600952Y-109412380D02*
X143791428Y-109412380D01*
X143886666Y-109460000D01*
X143981904Y-109555238D01*
X144029523Y-109745714D01*
X144029523Y-110079047D01*
X143981904Y-110269523D01*
X143886666Y-110364761D01*
X143791428Y-110412380D01*
X143600952Y-110412380D01*
X143505714Y-110364761D01*
X143410476Y-110269523D01*
X143362857Y-110079047D01*
X143362857Y-109745714D01*
X143410476Y-109555238D01*
X143505714Y-109460000D01*
X143600952Y-109412380D01*
X144315238Y-109412380D02*
X144886666Y-109412380D01*
X144600952Y-110412380D02*
X144600952Y-109412380D01*
X144981904Y-110507619D02*
X145743809Y-110507619D01*
X145981904Y-110412380D02*
X145981904Y-109412380D01*
X146220000Y-109412380D01*
X146362857Y-109460000D01*
X146458095Y-109555238D01*
X146505714Y-109650476D01*
X146553333Y-109840952D01*
X146553333Y-109983809D01*
X146505714Y-110174285D01*
X146458095Y-110269523D01*
X146362857Y-110364761D01*
X146220000Y-110412380D01*
X145981904Y-110412380D01*
X146981904Y-110412380D02*
X146981904Y-109412380D01*
X147458095Y-110412380D02*
X147458095Y-109412380D01*
X148029523Y-110412380D01*
X148029523Y-109412380D01*
X142328095Y-115181428D02*
X143090000Y-115181428D01*
X142709047Y-115562380D02*
X142709047Y-114800476D01*
X143470952Y-114562380D02*
X144090000Y-114562380D01*
X143756666Y-114943333D01*
X143899523Y-114943333D01*
X143994761Y-114990952D01*
X144042380Y-115038571D01*
X144090000Y-115133809D01*
X144090000Y-115371904D01*
X144042380Y-115467142D01*
X143994761Y-115514761D01*
X143899523Y-115562380D01*
X143613809Y-115562380D01*
X143518571Y-115514761D01*
X143470952Y-115467142D01*
X144375714Y-114562380D02*
X144709047Y-115562380D01*
X145042380Y-114562380D01*
X145280476Y-114562380D02*
X145899523Y-114562380D01*
X145566190Y-114943333D01*
X145709047Y-114943333D01*
X145804285Y-114990952D01*
X145851904Y-115038571D01*
X145899523Y-115133809D01*
X145899523Y-115371904D01*
X145851904Y-115467142D01*
X145804285Y-115514761D01*
X145709047Y-115562380D01*
X145423333Y-115562380D01*
X145328095Y-115514761D01*
X145280476Y-115467142D01*
X180608095Y-115131428D02*
X181370000Y-115131428D01*
X180989047Y-115512380D02*
X180989047Y-114750476D01*
X181750952Y-114512380D02*
X182370000Y-114512380D01*
X182036666Y-114893333D01*
X182179523Y-114893333D01*
X182274761Y-114940952D01*
X182322380Y-114988571D01*
X182370000Y-115083809D01*
X182370000Y-115321904D01*
X182322380Y-115417142D01*
X182274761Y-115464761D01*
X182179523Y-115512380D01*
X181893809Y-115512380D01*
X181798571Y-115464761D01*
X181750952Y-115417142D01*
X182655714Y-114512380D02*
X182989047Y-115512380D01*
X183322380Y-114512380D01*
X183560476Y-114512380D02*
X184179523Y-114512380D01*
X183846190Y-114893333D01*
X183989047Y-114893333D01*
X184084285Y-114940952D01*
X184131904Y-114988571D01*
X184179523Y-115083809D01*
X184179523Y-115321904D01*
X184131904Y-115417142D01*
X184084285Y-115464761D01*
X183989047Y-115512380D01*
X183703333Y-115512380D01*
X183608095Y-115464761D01*
X183560476Y-115417142D01*
X181948095Y-116885000D02*
X181852857Y-116837380D01*
X181710000Y-116837380D01*
X181567142Y-116885000D01*
X181471904Y-116980238D01*
X181424285Y-117075476D01*
X181376666Y-117265952D01*
X181376666Y-117408809D01*
X181424285Y-117599285D01*
X181471904Y-117694523D01*
X181567142Y-117789761D01*
X181710000Y-117837380D01*
X181805238Y-117837380D01*
X181948095Y-117789761D01*
X181995714Y-117742142D01*
X181995714Y-117408809D01*
X181805238Y-117408809D01*
X182424285Y-117837380D02*
X182424285Y-116837380D01*
X182995714Y-117837380D01*
X182995714Y-116837380D01*
X183471904Y-117837380D02*
X183471904Y-116837380D01*
X183710000Y-116837380D01*
X183852857Y-116885000D01*
X183948095Y-116980238D01*
X183995714Y-117075476D01*
X184043333Y-117265952D01*
X184043333Y-117408809D01*
X183995714Y-117599285D01*
X183948095Y-117694523D01*
X183852857Y-117789761D01*
X183710000Y-117837380D01*
X183471904Y-117837380D01*
X142708095Y-117005000D02*
X142612857Y-116957380D01*
X142470000Y-116957380D01*
X142327142Y-117005000D01*
X142231904Y-117100238D01*
X142184285Y-117195476D01*
X142136666Y-117385952D01*
X142136666Y-117528809D01*
X142184285Y-117719285D01*
X142231904Y-117814523D01*
X142327142Y-117909761D01*
X142470000Y-117957380D01*
X142565238Y-117957380D01*
X142708095Y-117909761D01*
X142755714Y-117862142D01*
X142755714Y-117528809D01*
X142565238Y-117528809D01*
X143184285Y-117957380D02*
X143184285Y-116957380D01*
X143755714Y-117957380D01*
X143755714Y-116957380D01*
X144231904Y-117957380D02*
X144231904Y-116957380D01*
X144470000Y-116957380D01*
X144612857Y-117005000D01*
X144708095Y-117100238D01*
X144755714Y-117195476D01*
X144803333Y-117385952D01*
X144803333Y-117528809D01*
X144755714Y-117719285D01*
X144708095Y-117814523D01*
X144612857Y-117909761D01*
X144470000Y-117957380D01*
X144231904Y-117957380D01*
X182314761Y-112787142D02*
X182267142Y-112834761D01*
X182124285Y-112882380D01*
X182029047Y-112882380D01*
X181886190Y-112834761D01*
X181790952Y-112739523D01*
X181743333Y-112644285D01*
X181695714Y-112453809D01*
X181695714Y-112310952D01*
X181743333Y-112120476D01*
X181790952Y-112025238D01*
X181886190Y-111930000D01*
X182029047Y-111882380D01*
X182124285Y-111882380D01*
X182267142Y-111930000D01*
X182314761Y-111977619D01*
X183219523Y-112882380D02*
X182743333Y-112882380D01*
X182743333Y-111882380D01*
X183552857Y-112882380D02*
X183552857Y-111882380D01*
X184124285Y-112882380D02*
X183695714Y-112310952D01*
X184124285Y-111882380D02*
X183552857Y-112453809D01*
X142794761Y-112767142D02*
X142747142Y-112814761D01*
X142604285Y-112862380D01*
X142509047Y-112862380D01*
X142366190Y-112814761D01*
X142270952Y-112719523D01*
X142223333Y-112624285D01*
X142175714Y-112433809D01*
X142175714Y-112290952D01*
X142223333Y-112100476D01*
X142270952Y-112005238D01*
X142366190Y-111910000D01*
X142509047Y-111862380D01*
X142604285Y-111862380D01*
X142747142Y-111910000D01*
X142794761Y-111957619D01*
X143699523Y-112862380D02*
X143223333Y-112862380D01*
X143223333Y-111862380D01*
X144032857Y-112862380D02*
X144032857Y-111862380D01*
X144604285Y-112862380D02*
X144175714Y-112290952D01*
X144604285Y-111862380D02*
X144032857Y-112433809D01*
X184221904Y-121492380D02*
X184221904Y-120492380D01*
X184460000Y-120492380D01*
X184602857Y-120540000D01*
X184698095Y-120635238D01*
X184745714Y-120730476D01*
X184793333Y-120920952D01*
X184793333Y-121063809D01*
X184745714Y-121254285D01*
X184698095Y-121349523D01*
X184602857Y-121444761D01*
X184460000Y-121492380D01*
X184221904Y-121492380D01*
X185555238Y-120968571D02*
X185221904Y-120968571D01*
X185221904Y-121492380D02*
X185221904Y-120492380D01*
X185698095Y-120492380D01*
X186031428Y-121444761D02*
X186174285Y-121492380D01*
X186412380Y-121492380D01*
X186507619Y-121444761D01*
X186555238Y-121397142D01*
X186602857Y-121301904D01*
X186602857Y-121206666D01*
X186555238Y-121111428D01*
X186507619Y-121063809D01*
X186412380Y-121016190D01*
X186221904Y-120968571D01*
X186126666Y-120920952D01*
X186079047Y-120873333D01*
X186031428Y-120778095D01*
X186031428Y-120682857D01*
X186079047Y-120587619D01*
X186126666Y-120540000D01*
X186221904Y-120492380D01*
X186460000Y-120492380D01*
X186602857Y-120540000D01*
X187031428Y-121492380D02*
X187031428Y-120492380D01*
X187269523Y-120492380D01*
X187412380Y-120540000D01*
X187507619Y-120635238D01*
X187555238Y-120730476D01*
X187602857Y-120920952D01*
X187602857Y-121063809D01*
X187555238Y-121254285D01*
X187507619Y-121349523D01*
X187412380Y-121444761D01*
X187269523Y-121492380D01*
X187031428Y-121492380D01*
X188031428Y-121492380D02*
X188031428Y-120492380D01*
X188364761Y-121206666D01*
X188698095Y-120492380D01*
X188698095Y-121492380D01*
X137711904Y-121412380D02*
X137711904Y-120412380D01*
X137950000Y-120412380D01*
X138092857Y-120460000D01*
X138188095Y-120555238D01*
X138235714Y-120650476D01*
X138283333Y-120840952D01*
X138283333Y-120983809D01*
X138235714Y-121174285D01*
X138188095Y-121269523D01*
X138092857Y-121364761D01*
X137950000Y-121412380D01*
X137711904Y-121412380D01*
X139045238Y-120888571D02*
X138711904Y-120888571D01*
X138711904Y-121412380D02*
X138711904Y-120412380D01*
X139188095Y-120412380D01*
X139521428Y-121364761D02*
X139664285Y-121412380D01*
X139902380Y-121412380D01*
X139997619Y-121364761D01*
X140045238Y-121317142D01*
X140092857Y-121221904D01*
X140092857Y-121126666D01*
X140045238Y-121031428D01*
X139997619Y-120983809D01*
X139902380Y-120936190D01*
X139711904Y-120888571D01*
X139616666Y-120840952D01*
X139569047Y-120793333D01*
X139521428Y-120698095D01*
X139521428Y-120602857D01*
X139569047Y-120507619D01*
X139616666Y-120460000D01*
X139711904Y-120412380D01*
X139950000Y-120412380D01*
X140092857Y-120460000D01*
X140521428Y-121412380D02*
X140521428Y-120412380D01*
X140759523Y-120412380D01*
X140902380Y-120460000D01*
X140997619Y-120555238D01*
X141045238Y-120650476D01*
X141092857Y-120840952D01*
X141092857Y-120983809D01*
X141045238Y-121174285D01*
X140997619Y-121269523D01*
X140902380Y-121364761D01*
X140759523Y-121412380D01*
X140521428Y-121412380D01*
X141521428Y-121412380D02*
X141521428Y-120412380D01*
X141854761Y-121126666D01*
X142188095Y-120412380D01*
X142188095Y-121412380D01*
X184171904Y-78722380D02*
X184171904Y-77722380D01*
X184410000Y-77722380D01*
X184552857Y-77770000D01*
X184648095Y-77865238D01*
X184695714Y-77960476D01*
X184743333Y-78150952D01*
X184743333Y-78293809D01*
X184695714Y-78484285D01*
X184648095Y-78579523D01*
X184552857Y-78674761D01*
X184410000Y-78722380D01*
X184171904Y-78722380D01*
X185505238Y-78198571D02*
X185171904Y-78198571D01*
X185171904Y-78722380D02*
X185171904Y-77722380D01*
X185648095Y-77722380D01*
X185981428Y-78674761D02*
X186124285Y-78722380D01*
X186362380Y-78722380D01*
X186457619Y-78674761D01*
X186505238Y-78627142D01*
X186552857Y-78531904D01*
X186552857Y-78436666D01*
X186505238Y-78341428D01*
X186457619Y-78293809D01*
X186362380Y-78246190D01*
X186171904Y-78198571D01*
X186076666Y-78150952D01*
X186029047Y-78103333D01*
X185981428Y-78008095D01*
X185981428Y-77912857D01*
X186029047Y-77817619D01*
X186076666Y-77770000D01*
X186171904Y-77722380D01*
X186410000Y-77722380D01*
X186552857Y-77770000D01*
X186981428Y-78722380D02*
X186981428Y-77722380D01*
X187219523Y-77722380D01*
X187362380Y-77770000D01*
X187457619Y-77865238D01*
X187505238Y-77960476D01*
X187552857Y-78150952D01*
X187552857Y-78293809D01*
X187505238Y-78484285D01*
X187457619Y-78579523D01*
X187362380Y-78674761D01*
X187219523Y-78722380D01*
X186981428Y-78722380D01*
X187981428Y-78722380D02*
X187981428Y-77722380D01*
X188314761Y-78436666D01*
X188648095Y-77722380D01*
X188648095Y-78722380D01*
X181998095Y-74865000D02*
X181902857Y-74817380D01*
X181760000Y-74817380D01*
X181617142Y-74865000D01*
X181521904Y-74960238D01*
X181474285Y-75055476D01*
X181426666Y-75245952D01*
X181426666Y-75388809D01*
X181474285Y-75579285D01*
X181521904Y-75674523D01*
X181617142Y-75769761D01*
X181760000Y-75817380D01*
X181855238Y-75817380D01*
X181998095Y-75769761D01*
X182045714Y-75722142D01*
X182045714Y-75388809D01*
X181855238Y-75388809D01*
X182474285Y-75817380D02*
X182474285Y-74817380D01*
X183045714Y-75817380D01*
X183045714Y-74817380D01*
X183521904Y-75817380D02*
X183521904Y-74817380D01*
X183760000Y-74817380D01*
X183902857Y-74865000D01*
X183998095Y-74960238D01*
X184045714Y-75055476D01*
X184093333Y-75245952D01*
X184093333Y-75388809D01*
X184045714Y-75579285D01*
X183998095Y-75674523D01*
X183902857Y-75769761D01*
X183760000Y-75817380D01*
X183521904Y-75817380D01*
X180608095Y-72851428D02*
X181370000Y-72851428D01*
X180989047Y-73232380D02*
X180989047Y-72470476D01*
X181750952Y-72232380D02*
X182370000Y-72232380D01*
X182036666Y-72613333D01*
X182179523Y-72613333D01*
X182274761Y-72660952D01*
X182322380Y-72708571D01*
X182370000Y-72803809D01*
X182370000Y-73041904D01*
X182322380Y-73137142D01*
X182274761Y-73184761D01*
X182179523Y-73232380D01*
X181893809Y-73232380D01*
X181798571Y-73184761D01*
X181750952Y-73137142D01*
X182655714Y-72232380D02*
X182989047Y-73232380D01*
X183322380Y-72232380D01*
X183560476Y-72232380D02*
X184179523Y-72232380D01*
X183846190Y-72613333D01*
X183989047Y-72613333D01*
X184084285Y-72660952D01*
X184131904Y-72708571D01*
X184179523Y-72803809D01*
X184179523Y-73041904D01*
X184131904Y-73137142D01*
X184084285Y-73184761D01*
X183989047Y-73232380D01*
X183703333Y-73232380D01*
X183608095Y-73184761D01*
X183560476Y-73137142D01*
X182284761Y-70607142D02*
X182237142Y-70654761D01*
X182094285Y-70702380D01*
X181999047Y-70702380D01*
X181856190Y-70654761D01*
X181760952Y-70559523D01*
X181713333Y-70464285D01*
X181665714Y-70273809D01*
X181665714Y-70130952D01*
X181713333Y-69940476D01*
X181760952Y-69845238D01*
X181856190Y-69750000D01*
X181999047Y-69702380D01*
X182094285Y-69702380D01*
X182237142Y-69750000D01*
X182284761Y-69797619D01*
X183189523Y-70702380D02*
X182713333Y-70702380D01*
X182713333Y-69702380D01*
X183522857Y-70702380D02*
X183522857Y-69702380D01*
X184094285Y-70702380D02*
X183665714Y-70130952D01*
X184094285Y-69702380D02*
X183522857Y-70273809D01*
X178387619Y-67172380D02*
X178959047Y-67172380D01*
X178673333Y-68172380D02*
X178673333Y-67172380D01*
X179482857Y-67172380D02*
X179673333Y-67172380D01*
X179768571Y-67220000D01*
X179863809Y-67315238D01*
X179911428Y-67505714D01*
X179911428Y-67839047D01*
X179863809Y-68029523D01*
X179768571Y-68124761D01*
X179673333Y-68172380D01*
X179482857Y-68172380D01*
X179387619Y-68124761D01*
X179292380Y-68029523D01*
X179244761Y-67839047D01*
X179244761Y-67505714D01*
X179292380Y-67315238D01*
X179387619Y-67220000D01*
X179482857Y-67172380D01*
X180340000Y-68172380D02*
X180340000Y-67172380D01*
X180720952Y-67172380D01*
X180816190Y-67220000D01*
X180863809Y-67267619D01*
X180911428Y-67362857D01*
X180911428Y-67505714D01*
X180863809Y-67600952D01*
X180816190Y-67648571D01*
X180720952Y-67696190D01*
X180340000Y-67696190D01*
X181101904Y-68267619D02*
X181863809Y-68267619D01*
X182101904Y-68172380D02*
X182101904Y-67172380D01*
X182340000Y-67172380D01*
X182482857Y-67220000D01*
X182578095Y-67315238D01*
X182625714Y-67410476D01*
X182673333Y-67600952D01*
X182673333Y-67743809D01*
X182625714Y-67934285D01*
X182578095Y-68029523D01*
X182482857Y-68124761D01*
X182340000Y-68172380D01*
X182101904Y-68172380D01*
X183101904Y-68172380D02*
X183101904Y-67172380D01*
X183578095Y-68172380D02*
X183578095Y-67172380D01*
X184149523Y-68172380D01*
X184149523Y-67172380D01*
X141897619Y-67102380D02*
X142469047Y-67102380D01*
X142183333Y-68102380D02*
X142183333Y-67102380D01*
X142992857Y-67102380D02*
X143183333Y-67102380D01*
X143278571Y-67150000D01*
X143373809Y-67245238D01*
X143421428Y-67435714D01*
X143421428Y-67769047D01*
X143373809Y-67959523D01*
X143278571Y-68054761D01*
X143183333Y-68102380D01*
X142992857Y-68102380D01*
X142897619Y-68054761D01*
X142802380Y-67959523D01*
X142754761Y-67769047D01*
X142754761Y-67435714D01*
X142802380Y-67245238D01*
X142897619Y-67150000D01*
X142992857Y-67102380D01*
X143850000Y-68102380D02*
X143850000Y-67102380D01*
X144230952Y-67102380D01*
X144326190Y-67150000D01*
X144373809Y-67197619D01*
X144421428Y-67292857D01*
X144421428Y-67435714D01*
X144373809Y-67530952D01*
X144326190Y-67578571D01*
X144230952Y-67626190D01*
X143850000Y-67626190D01*
X144611904Y-68197619D02*
X145373809Y-68197619D01*
X145611904Y-68102380D02*
X145611904Y-67102380D01*
X145850000Y-67102380D01*
X145992857Y-67150000D01*
X146088095Y-67245238D01*
X146135714Y-67340476D01*
X146183333Y-67530952D01*
X146183333Y-67673809D01*
X146135714Y-67864285D01*
X146088095Y-67959523D01*
X145992857Y-68054761D01*
X145850000Y-68102380D01*
X145611904Y-68102380D01*
X146611904Y-68102380D02*
X146611904Y-67102380D01*
X147088095Y-68102380D02*
X147088095Y-67102380D01*
X147659523Y-68102380D01*
X147659523Y-67102380D01*
X142574761Y-70547142D02*
X142527142Y-70594761D01*
X142384285Y-70642380D01*
X142289047Y-70642380D01*
X142146190Y-70594761D01*
X142050952Y-70499523D01*
X142003333Y-70404285D01*
X141955714Y-70213809D01*
X141955714Y-70070952D01*
X142003333Y-69880476D01*
X142050952Y-69785238D01*
X142146190Y-69690000D01*
X142289047Y-69642380D01*
X142384285Y-69642380D01*
X142527142Y-69690000D01*
X142574761Y-69737619D01*
X143479523Y-70642380D02*
X143003333Y-70642380D01*
X143003333Y-69642380D01*
X143812857Y-70642380D02*
X143812857Y-69642380D01*
X144384285Y-70642380D02*
X143955714Y-70070952D01*
X144384285Y-69642380D02*
X143812857Y-70213809D01*
X142538095Y-74905000D02*
X142442857Y-74857380D01*
X142300000Y-74857380D01*
X142157142Y-74905000D01*
X142061904Y-75000238D01*
X142014285Y-75095476D01*
X141966666Y-75285952D01*
X141966666Y-75428809D01*
X142014285Y-75619285D01*
X142061904Y-75714523D01*
X142157142Y-75809761D01*
X142300000Y-75857380D01*
X142395238Y-75857380D01*
X142538095Y-75809761D01*
X142585714Y-75762142D01*
X142585714Y-75428809D01*
X142395238Y-75428809D01*
X143014285Y-75857380D02*
X143014285Y-74857380D01*
X143585714Y-75857380D01*
X143585714Y-74857380D01*
X144061904Y-75857380D02*
X144061904Y-74857380D01*
X144300000Y-74857380D01*
X144442857Y-74905000D01*
X144538095Y-75000238D01*
X144585714Y-75095476D01*
X144633333Y-75285952D01*
X144633333Y-75428809D01*
X144585714Y-75619285D01*
X144538095Y-75714523D01*
X144442857Y-75809761D01*
X144300000Y-75857380D01*
X144061904Y-75857380D01*
X142138095Y-72921428D02*
X142900000Y-72921428D01*
X142519047Y-73302380D02*
X142519047Y-72540476D01*
X143280952Y-72302380D02*
X143900000Y-72302380D01*
X143566666Y-72683333D01*
X143709523Y-72683333D01*
X143804761Y-72730952D01*
X143852380Y-72778571D01*
X143900000Y-72873809D01*
X143900000Y-73111904D01*
X143852380Y-73207142D01*
X143804761Y-73254761D01*
X143709523Y-73302380D01*
X143423809Y-73302380D01*
X143328571Y-73254761D01*
X143280952Y-73207142D01*
X144185714Y-72302380D02*
X144519047Y-73302380D01*
X144852380Y-72302380D01*
X145090476Y-72302380D02*
X145709523Y-72302380D01*
X145376190Y-72683333D01*
X145519047Y-72683333D01*
X145614285Y-72730952D01*
X145661904Y-72778571D01*
X145709523Y-72873809D01*
X145709523Y-73111904D01*
X145661904Y-73207142D01*
X145614285Y-73254761D01*
X145519047Y-73302380D01*
X145233333Y-73302380D01*
X145138095Y-73254761D01*
X145090476Y-73207142D01*
X137671904Y-78672380D02*
X137671904Y-77672380D01*
X137910000Y-77672380D01*
X138052857Y-77720000D01*
X138148095Y-77815238D01*
X138195714Y-77910476D01*
X138243333Y-78100952D01*
X138243333Y-78243809D01*
X138195714Y-78434285D01*
X138148095Y-78529523D01*
X138052857Y-78624761D01*
X137910000Y-78672380D01*
X137671904Y-78672380D01*
X139005238Y-78148571D02*
X138671904Y-78148571D01*
X138671904Y-78672380D02*
X138671904Y-77672380D01*
X139148095Y-77672380D01*
X139481428Y-78624761D02*
X139624285Y-78672380D01*
X139862380Y-78672380D01*
X139957619Y-78624761D01*
X140005238Y-78577142D01*
X140052857Y-78481904D01*
X140052857Y-78386666D01*
X140005238Y-78291428D01*
X139957619Y-78243809D01*
X139862380Y-78196190D01*
X139671904Y-78148571D01*
X139576666Y-78100952D01*
X139529047Y-78053333D01*
X139481428Y-77958095D01*
X139481428Y-77862857D01*
X139529047Y-77767619D01*
X139576666Y-77720000D01*
X139671904Y-77672380D01*
X139910000Y-77672380D01*
X140052857Y-77720000D01*
X140481428Y-78672380D02*
X140481428Y-77672380D01*
X140719523Y-77672380D01*
X140862380Y-77720000D01*
X140957619Y-77815238D01*
X141005238Y-77910476D01*
X141052857Y-78100952D01*
X141052857Y-78243809D01*
X141005238Y-78434285D01*
X140957619Y-78529523D01*
X140862380Y-78624761D01*
X140719523Y-78672380D01*
X140481428Y-78672380D01*
X141481428Y-78672380D02*
X141481428Y-77672380D01*
X141814761Y-78386666D01*
X142148095Y-77672380D01*
X142148095Y-78672380D01*
D12*
%TO.C,R1*%
X150793641Y-96340000D02*
X150486359Y-96340000D01*
X150793641Y-97100000D02*
X150486359Y-97100000D01*
%TO.C,SW2*%
X153127002Y-131674801D02*
G75*
G03*
X153127002Y-131674801I-127000J0D01*
G01*
X151486160Y-116209100D02*
X149850502Y-116209100D01*
X156236164Y-116209100D02*
X154513840Y-116209100D01*
X159263844Y-128070900D02*
X160899502Y-128070900D01*
X154513840Y-128070900D02*
X156236164Y-128070900D01*
X149850502Y-128070900D02*
X151486160Y-128070900D01*
X149850502Y-116209100D02*
X149850502Y-128070900D01*
X160899502Y-116209100D02*
X159263844Y-116209100D01*
X160899502Y-128070900D02*
X160899502Y-116209100D01*
D13*
%TO.C,Y1*%
X140428000Y-94250000D02*
G75*
G03*
X140428000Y-94250000I-100000J0D01*
G01*
D14*
X143008000Y-98750000D02*
X142448000Y-98750000D01*
X143008000Y-93750000D02*
X142448000Y-93750000D01*
X141128000Y-95470000D02*
X141128000Y-97030000D01*
X144328000Y-95470000D02*
X144328000Y-97030000D01*
D12*
%TO.C,C28*%
X144710000Y-88577836D02*
X144710000Y-88362164D01*
X143990000Y-88577836D02*
X143990000Y-88362164D01*
%TO.C,U2*%
X156460000Y-53280000D02*
X156460000Y-47270000D01*
X163280000Y-51030000D02*
X163280000Y-47270000D01*
X156460000Y-47270000D02*
X157720000Y-47270000D01*
X163280000Y-47270000D02*
X162020000Y-47270000D01*
D15*
%TO.C,U1*%
G36*
X156999501Y-81020600D02*
G01*
X156999501Y-80766600D01*
X157380501Y-80766600D01*
X157380501Y-81020600D01*
X156999501Y-81020600D01*
G37*
X156999501Y-81020600D02*
X156999501Y-80766600D01*
X157380501Y-80766600D01*
X157380501Y-81020600D01*
X156999501Y-81020600D01*
G36*
X161999501Y-81020600D02*
G01*
X161999501Y-80766600D01*
X162380501Y-80766600D01*
X162380501Y-81020600D01*
X161999501Y-81020600D01*
G37*
X161999501Y-81020600D02*
X161999501Y-80766600D01*
X162380501Y-80766600D01*
X162380501Y-81020600D01*
X161999501Y-81020600D01*
G36*
X166999501Y-81020600D02*
G01*
X166999501Y-80766600D01*
X167380501Y-80766600D01*
X167380501Y-81020600D01*
X166999501Y-81020600D01*
G37*
X166999501Y-81020600D02*
X166999501Y-80766600D01*
X167380501Y-80766600D01*
X167380501Y-81020600D01*
X166999501Y-81020600D01*
G36*
X171999501Y-81020600D02*
G01*
X171999501Y-80766600D01*
X172380501Y-80766600D01*
X172380501Y-81020600D01*
X171999501Y-81020600D01*
G37*
X171999501Y-81020600D02*
X171999501Y-80766600D01*
X172380501Y-80766600D01*
X172380501Y-81020600D01*
X171999501Y-81020600D01*
G36*
X175903400Y-87789499D02*
G01*
X175903400Y-88170499D01*
X175649400Y-88170499D01*
X175649400Y-87789499D01*
X175903400Y-87789499D01*
G37*
X175903400Y-87789499D02*
X175903400Y-88170499D01*
X175649400Y-88170499D01*
X175649400Y-87789499D01*
X175903400Y-87789499D01*
G36*
X175903400Y-92789499D02*
G01*
X175903400Y-93170500D01*
X175649400Y-93170500D01*
X175649400Y-92789499D01*
X175903400Y-92789499D01*
G37*
X175903400Y-92789499D02*
X175903400Y-93170500D01*
X175649400Y-93170500D01*
X175649400Y-92789499D01*
X175903400Y-92789499D01*
G36*
X175903400Y-97789500D02*
G01*
X175903400Y-98170500D01*
X175649400Y-98170500D01*
X175649400Y-97789500D01*
X175903400Y-97789500D01*
G37*
X175903400Y-97789500D02*
X175903400Y-98170500D01*
X175649400Y-98170500D01*
X175649400Y-97789500D01*
X175903400Y-97789500D01*
G36*
X171499500Y-104439400D02*
G01*
X171499500Y-104693400D01*
X171880500Y-104693400D01*
X171880500Y-104439400D01*
X171499500Y-104439400D01*
G37*
X171499500Y-104439400D02*
X171499500Y-104693400D01*
X171880500Y-104693400D01*
X171880500Y-104439400D01*
X171499500Y-104439400D01*
G36*
X166499500Y-104439400D02*
G01*
X166499500Y-104693400D01*
X166880500Y-104693400D01*
X166880500Y-104439400D01*
X166499500Y-104439400D01*
G37*
X166499500Y-104439400D02*
X166499500Y-104693400D01*
X166880500Y-104693400D01*
X166880500Y-104439400D01*
X166499500Y-104439400D01*
G36*
X161499499Y-104439400D02*
G01*
X161499499Y-104693400D01*
X161880499Y-104693400D01*
X161880499Y-104439400D01*
X161499499Y-104439400D01*
G37*
X161499499Y-104439400D02*
X161499499Y-104693400D01*
X161880499Y-104693400D01*
X161880499Y-104439400D01*
X161499499Y-104439400D01*
G36*
X156499499Y-104439400D02*
G01*
X156499499Y-104693400D01*
X156880499Y-104693400D01*
X156880499Y-104439400D01*
X156499499Y-104439400D01*
G37*
X156499499Y-104439400D02*
X156499499Y-104693400D01*
X156880499Y-104693400D01*
X156880499Y-104439400D01*
X156499499Y-104439400D01*
G36*
X151976600Y-98289501D02*
G01*
X151976600Y-98670501D01*
X152230600Y-98670501D01*
X152230600Y-98289501D01*
X151976600Y-98289501D01*
G37*
X151976600Y-98289501D02*
X151976600Y-98670501D01*
X152230600Y-98670501D01*
X152230600Y-98289501D01*
X151976600Y-98289501D01*
G36*
X151976600Y-93289501D02*
G01*
X151976600Y-93670501D01*
X152230600Y-93670501D01*
X152230600Y-93289501D01*
X151976600Y-93289501D01*
G37*
X151976600Y-93289501D02*
X151976600Y-93670501D01*
X152230600Y-93670501D01*
X152230600Y-93289501D01*
X151976600Y-93289501D01*
G36*
X151976600Y-88289501D02*
G01*
X151976600Y-88670501D01*
X152230600Y-88670501D01*
X152230600Y-88289501D01*
X151976600Y-88289501D01*
G37*
X151976600Y-88289501D02*
X151976600Y-88670501D01*
X152230600Y-88670501D01*
X152230600Y-88289501D01*
X151976600Y-88289501D01*
D12*
X154742960Y-82506500D02*
X153716500Y-82506500D01*
X174163500Y-83532960D02*
X174163500Y-82506500D01*
X173137040Y-102953500D02*
X174163500Y-102953500D01*
X153716500Y-101927040D02*
X153716500Y-102953500D01*
X153716500Y-82506500D02*
X153716500Y-83532960D01*
X174163500Y-82506500D02*
X173137040Y-82506500D01*
X174163500Y-102953500D02*
X174163500Y-101927040D01*
X153716500Y-102953500D02*
X154742960Y-102953500D01*
%TO.C,R3*%
X150700000Y-101446359D02*
X150700000Y-101753641D01*
X151460000Y-101446359D02*
X151460000Y-101753641D01*
%TO.C,R2*%
X155883641Y-79520000D02*
X155576359Y-79520000D01*
X155883641Y-80280000D02*
X155576359Y-80280000D01*
%TO.C,L1*%
X148710000Y-89677122D02*
X148710000Y-88877878D01*
X147590000Y-89677122D02*
X147590000Y-88877878D01*
%TO.C,J7*%
X181200000Y-84170000D02*
X182530000Y-84170000D01*
X181200000Y-85500000D02*
X181200000Y-84170000D01*
X181200000Y-86770000D02*
X183860000Y-86770000D01*
X183860000Y-86770000D02*
X183860000Y-94450000D01*
X181200000Y-86770000D02*
X181200000Y-94450000D01*
X181200000Y-94450000D02*
X183860000Y-94450000D01*
%TO.C,J6*%
X185190000Y-66410000D02*
X186520000Y-66410000D01*
X185190000Y-67740000D02*
X185190000Y-66410000D01*
X185190000Y-69010000D02*
X187850000Y-69010000D01*
X187850000Y-69010000D02*
X187850000Y-76690000D01*
X185190000Y-69010000D02*
X185190000Y-76690000D01*
X185190000Y-76690000D02*
X187850000Y-76690000D01*
%TO.C,J5*%
X138680000Y-108630000D02*
X140010000Y-108630000D01*
X138680000Y-109960000D02*
X138680000Y-108630000D01*
X138680000Y-111230000D02*
X141340000Y-111230000D01*
X141340000Y-111230000D02*
X141340000Y-118910000D01*
X138680000Y-111230000D02*
X138680000Y-118910000D01*
X138680000Y-118910000D02*
X141340000Y-118910000D01*
%TO.C,J4*%
X173050000Y-45200000D02*
X172650000Y-45200000D01*
X173050000Y-45840000D02*
X173050000Y-45200000D01*
X168645000Y-49059000D02*
X168774000Y-48931000D01*
X166430000Y-51275000D02*
X166524000Y-51181000D01*
X168475000Y-48819000D02*
X168569000Y-48726000D01*
X166225000Y-51069000D02*
X166354000Y-50941000D01*
X165690000Y-53160000D02*
X165690000Y-45440000D01*
X172810000Y-53160000D02*
X172810000Y-45440000D01*
X172810000Y-45440000D02*
X165690000Y-45440000D01*
X172810000Y-53160000D02*
X165690000Y-53160000D01*
X172810000Y-47000000D02*
X165690000Y-47000000D01*
X172810000Y-45900000D02*
X165690000Y-45900000D01*
X169180000Y-50000000D02*
G75*
G03*
X169180000Y-50000000I-1680000J0D01*
G01*
X170971326Y-48319901D02*
G75*
G02*
X171866000Y-48560000I28674J-1680099D01*
G01*
X172425358Y-49110106D02*
G75*
G02*
X172440000Y-50866000I-1425358J-889894D01*
G01*
X171889894Y-51425358D02*
G75*
G02*
X170134000Y-51440000I-889894J1425358D01*
G01*
X169574495Y-50890193D02*
G75*
G02*
X169575000Y-49109000I1425505J890193D01*
G01*
X170109736Y-48575279D02*
G75*
G02*
X171000000Y-48320000I890264J-1424721D01*
G01*
%TO.C,J3*%
X169190000Y-118850000D02*
X169190000Y-117520000D01*
X170520000Y-118850000D02*
X169190000Y-118850000D01*
X171790000Y-118850000D02*
X171790000Y-116190000D01*
X171790000Y-116190000D02*
X174390000Y-116190000D01*
X171790000Y-118850000D02*
X174390000Y-118850000D01*
X174390000Y-118850000D02*
X174390000Y-116190000D01*
%TO.C,J2*%
X138570000Y-66260000D02*
X139900000Y-66260000D01*
X138570000Y-67590000D02*
X138570000Y-66260000D01*
X138570000Y-68860000D02*
X141230000Y-68860000D01*
X141230000Y-68860000D02*
X141230000Y-76540000D01*
X138570000Y-68860000D02*
X138570000Y-76540000D01*
X138570000Y-76540000D02*
X141230000Y-76540000D01*
%TO.C,J1*%
X185090000Y-108620000D02*
X186420000Y-108620000D01*
X185090000Y-109950000D02*
X185090000Y-108620000D01*
X185090000Y-111220000D02*
X187750000Y-111220000D01*
X187750000Y-111220000D02*
X187750000Y-118900000D01*
X185090000Y-111220000D02*
X185090000Y-118900000D01*
X185090000Y-118900000D02*
X187750000Y-118900000D01*
%TO.C,FB2*%
X162737878Y-57620000D02*
X163537122Y-57620000D01*
X162737878Y-56500000D02*
X163537122Y-56500000D01*
%TO.C,FB1*%
X148870000Y-102800378D02*
X148870000Y-103599622D01*
X149990000Y-102800378D02*
X149990000Y-103599622D01*
%TO.C,C27*%
X146210000Y-88292164D02*
X146210000Y-88507836D01*
X146930000Y-88292164D02*
X146930000Y-88507836D01*
%TO.C,C26*%
X177122164Y-86940000D02*
X177337836Y-86940000D01*
X177122164Y-86220000D02*
X177337836Y-86220000D01*
%TO.C,C25*%
X150370000Y-85877836D02*
X150370000Y-85662164D01*
X149650000Y-85877836D02*
X149650000Y-85662164D01*
%TO.C,C24*%
X143460000Y-88537836D02*
X143460000Y-88322164D01*
X142740000Y-88537836D02*
X142740000Y-88322164D01*
%TO.C,C23*%
X169407836Y-105180000D02*
X169192164Y-105180000D01*
X169407836Y-105900000D02*
X169192164Y-105900000D01*
%TO.C,C22*%
X158861252Y-54165000D02*
X158338748Y-54165000D01*
X158861252Y-55635000D02*
X158338748Y-55635000D01*
%TO.C,C21*%
X163301252Y-54275000D02*
X162778748Y-54275000D01*
X163301252Y-55745000D02*
X162778748Y-55745000D01*
%TO.C,C20*%
X174432164Y-104230000D02*
X174647836Y-104230000D01*
X174432164Y-103510000D02*
X174647836Y-103510000D01*
%TO.C,C19*%
X149250000Y-85877836D02*
X149250000Y-85662164D01*
X148530000Y-85877836D02*
X148530000Y-85662164D01*
%TO.C,C18*%
X155622164Y-79090000D02*
X155837836Y-79090000D01*
X155622164Y-78370000D02*
X155837836Y-78370000D01*
%TO.C,C17*%
X161780000Y-122122164D02*
X161780000Y-122337836D01*
X162500000Y-122122164D02*
X162500000Y-122337836D01*
%TO.C,C16*%
X162832164Y-80270000D02*
X163047836Y-80270000D01*
X162832164Y-79550000D02*
X163047836Y-79550000D01*
%TO.C,C15*%
X167852164Y-80260000D02*
X168067836Y-80260000D01*
X167852164Y-79540000D02*
X168067836Y-79540000D01*
%TO.C,C14*%
X176410000Y-84942164D02*
X176410000Y-85157836D01*
X177130000Y-84942164D02*
X177130000Y-85157836D01*
%TO.C,C13*%
X176410000Y-92652164D02*
X176410000Y-92867836D01*
X177130000Y-92652164D02*
X177130000Y-92867836D01*
%TO.C,C12*%
X177130000Y-98377836D02*
X177130000Y-98162164D01*
X176410000Y-98377836D02*
X176410000Y-98162164D01*
%TO.C,C11*%
X171817836Y-105200000D02*
X171602164Y-105200000D01*
X171817836Y-105920000D02*
X171602164Y-105920000D01*
%TO.C,C10*%
X150670000Y-103562164D02*
X150670000Y-103777836D01*
X151390000Y-103562164D02*
X151390000Y-103777836D01*
%TO.C,C9*%
X164507836Y-105190000D02*
X164292164Y-105190000D01*
X164507836Y-105910000D02*
X164292164Y-105910000D01*
%TO.C,C8*%
X151790000Y-103562164D02*
X151790000Y-103777836D01*
X152510000Y-103562164D02*
X152510000Y-103777836D01*
%TO.C,C7*%
X157517836Y-105200000D02*
X157302164Y-105200000D01*
X157517836Y-105920000D02*
X157302164Y-105920000D01*
%TO.C,C6*%
X150770000Y-99382164D02*
X150770000Y-99597836D01*
X151490000Y-99382164D02*
X151490000Y-99597836D01*
%TO.C,C5*%
X151470000Y-93407836D02*
X151470000Y-93192164D01*
X150750000Y-93407836D02*
X150750000Y-93192164D01*
%TO.C,C4*%
X151490000Y-89567836D02*
X151490000Y-89352164D01*
X150770000Y-89567836D02*
X150770000Y-89352164D01*
%TO.C,C3*%
X143055836Y-100160000D02*
X142840164Y-100160000D01*
X143055836Y-100880000D02*
X142840164Y-100880000D01*
%TO.C,C2*%
X142840164Y-92370000D02*
X143055836Y-92370000D01*
X142840164Y-91650000D02*
X143055836Y-91650000D01*
%TO.C,C1*%
X151490000Y-85857836D02*
X151490000Y-85642164D01*
X150770000Y-85857836D02*
X150770000Y-85642164D01*
%TO.C,J8*%
X155830000Y-73070000D02*
X155830000Y-71740000D01*
X157160000Y-73070000D02*
X155830000Y-73070000D01*
X158430000Y-73070000D02*
X158430000Y-70410000D01*
X158430000Y-70410000D02*
X163570000Y-70410000D01*
X158430000Y-73070000D02*
X163570000Y-73070000D01*
X163570000Y-73070000D02*
X163570000Y-70410000D01*
%TO.C,SW2*%
D10*
X154827382Y-122140000D02*
X155065478Y-122140000D01*
X154970240Y-122378095D02*
X155065478Y-122140000D01*
X154970240Y-121901904D01*
X155255954Y-122282857D02*
X155065478Y-122140000D01*
X155255954Y-121997142D01*
%TO.C,U1*%
X158225714Y-93134761D02*
X158368571Y-93182380D01*
X158606666Y-93182380D01*
X158701904Y-93134761D01*
X158749523Y-93087142D01*
X158797142Y-92991904D01*
X158797142Y-92896666D01*
X158749523Y-92801428D01*
X158701904Y-92753809D01*
X158606666Y-92706190D01*
X158416190Y-92658571D01*
X158320952Y-92610952D01*
X158273333Y-92563333D01*
X158225714Y-92468095D01*
X158225714Y-92372857D01*
X158273333Y-92277619D01*
X158320952Y-92230000D01*
X158416190Y-92182380D01*
X158654285Y-92182380D01*
X158797142Y-92230000D01*
X159082857Y-92182380D02*
X159654285Y-92182380D01*
X159368571Y-93182380D02*
X159368571Y-92182380D01*
X159987619Y-93182380D02*
X159987619Y-92182380D01*
X160320952Y-92896666D01*
X160654285Y-92182380D01*
X160654285Y-93182380D01*
X161035238Y-92182380D02*
X161654285Y-92182380D01*
X161320952Y-92563333D01*
X161463809Y-92563333D01*
X161559047Y-92610952D01*
X161606666Y-92658571D01*
X161654285Y-92753809D01*
X161654285Y-92991904D01*
X161606666Y-93087142D01*
X161559047Y-93134761D01*
X161463809Y-93182380D01*
X161178095Y-93182380D01*
X161082857Y-93134761D01*
X161035238Y-93087142D01*
X162035238Y-92277619D02*
X162082857Y-92230000D01*
X162178095Y-92182380D01*
X162416190Y-92182380D01*
X162511428Y-92230000D01*
X162559047Y-92277619D01*
X162606666Y-92372857D01*
X162606666Y-92468095D01*
X162559047Y-92610952D01*
X161987619Y-93182380D01*
X162606666Y-93182380D01*
X163035238Y-93182380D02*
X163035238Y-92182380D01*
X163035238Y-92658571D02*
X163606666Y-92658571D01*
X163606666Y-93182380D02*
X163606666Y-92182380D01*
X163987619Y-92182380D02*
X164654285Y-92182380D01*
X164225714Y-93182380D01*
X165511428Y-92182380D02*
X165035238Y-92182380D01*
X164987619Y-92658571D01*
X165035238Y-92610952D01*
X165130476Y-92563333D01*
X165368571Y-92563333D01*
X165463809Y-92610952D01*
X165511428Y-92658571D01*
X165559047Y-92753809D01*
X165559047Y-92991904D01*
X165511428Y-93087142D01*
X165463809Y-93134761D01*
X165368571Y-93182380D01*
X165130476Y-93182380D01*
X165035238Y-93134761D01*
X164987619Y-93087142D01*
X166463809Y-92182380D02*
X165987619Y-92182380D01*
X165940000Y-92658571D01*
X165987619Y-92610952D01*
X166082857Y-92563333D01*
X166320952Y-92563333D01*
X166416190Y-92610952D01*
X166463809Y-92658571D01*
X166511428Y-92753809D01*
X166511428Y-92991904D01*
X166463809Y-93087142D01*
X166416190Y-93134761D01*
X166320952Y-93182380D01*
X166082857Y-93182380D01*
X165987619Y-93134761D01*
X165940000Y-93087142D01*
X166844761Y-92182380D02*
X167511428Y-92182380D01*
X166844761Y-93182380D01*
X167511428Y-93182380D01*
X167892380Y-93182380D02*
X167892380Y-92182380D01*
X168225714Y-92182380D02*
X168797142Y-92182380D01*
X168511428Y-93182380D02*
X168511428Y-92182380D01*
X169559047Y-92182380D02*
X169368571Y-92182380D01*
X169273333Y-92230000D01*
X169225714Y-92277619D01*
X169130476Y-92420476D01*
X169082857Y-92610952D01*
X169082857Y-92991904D01*
X169130476Y-93087142D01*
X169178095Y-93134761D01*
X169273333Y-93182380D01*
X169463809Y-93182380D01*
X169559047Y-93134761D01*
X169606666Y-93087142D01*
X169654285Y-92991904D01*
X169654285Y-92753809D01*
X169606666Y-92658571D01*
X169559047Y-92610952D01*
X169463809Y-92563333D01*
X169273333Y-92563333D01*
X169178095Y-92610952D01*
X169130476Y-92658571D01*
X169082857Y-92753809D01*
X151849600Y-82801380D02*
X151849600Y-83039476D01*
X151611504Y-82944238D02*
X151849600Y-83039476D01*
X152087695Y-82944238D01*
X151706742Y-83229952D02*
X151849600Y-83039476D01*
X151992457Y-83229952D01*
X151849600Y-82801380D02*
X151849600Y-83039476D01*
X151611504Y-82944238D02*
X151849600Y-83039476D01*
X152087695Y-82944238D01*
X151706742Y-83229952D02*
X151849600Y-83039476D01*
X151992457Y-83229952D01*
%TD*%
M02*
