%TF.GenerationSoftware,KiCad,Pcbnew,(5.1.10)-1*%
%TF.CreationDate,2021-11-07T19:26:15-08:00*%
%TF.ProjectId,stm32_pcb,73746d33-325f-4706-9362-2e6b69636164,rev?*%
%TF.SameCoordinates,Original*%
%TF.FileFunction,Copper,L3,Inr*%
%TF.FilePolarity,Positive*%
%FSLAX46Y46*%
G04 Gerber Fmt 4.6, Leading zero omitted, Abs format (unit mm)*
G04 Created by KiCad (PCBNEW (5.1.10)-1) date 2021-11-07 19:26:15*
%MOMM*%
%LPD*%
G01*
G04 APERTURE LIST*
%TA.AperFunction,ComponentPad*%
%ADD10O,1.700000X1.700000*%
%TD*%
%TA.AperFunction,ComponentPad*%
%ADD11R,1.700000X1.700000*%
%TD*%
%TA.AperFunction,ComponentPad*%
%ADD12C,2.400000*%
%TD*%
%TA.AperFunction,ComponentPad*%
%ADD13R,2.400000X2.400000*%
%TD*%
%TA.AperFunction,ComponentPad*%
%ADD14C,0.900000*%
%TD*%
%TA.AperFunction,ComponentPad*%
%ADD15C,8.600000*%
%TD*%
%TA.AperFunction,ViaPad*%
%ADD16C,0.800000*%
%TD*%
%TA.AperFunction,Conductor*%
%ADD17C,0.254000*%
%TD*%
%TA.AperFunction,Conductor*%
%ADD18C,0.100000*%
%TD*%
G04 APERTURE END LIST*
D10*
%TO.N,GND*%
%TO.C,J7*%
X182530000Y-93120000D03*
%TO.N,+3V3*%
X182530000Y-90580000D03*
%TO.N,SWDIO*%
X182530000Y-88040000D03*
D11*
%TO.N,SWCLK*%
X182530000Y-85500000D03*
%TD*%
D10*
%TO.N,GND*%
%TO.C,J6*%
X186520000Y-75360000D03*
%TO.N,+3V3*%
X186520000Y-72820000D03*
%TO.N,DFSDM_CLK*%
X186520000Y-70280000D03*
D11*
%TO.N,DFSDM_TOP_DIN*%
X186520000Y-67740000D03*
%TD*%
D10*
%TO.N,GND*%
%TO.C,J5*%
X140010000Y-117580000D03*
%TO.N,+3V3*%
X140010000Y-115040000D03*
%TO.N,DFSDM_CLK*%
X140010000Y-112500000D03*
D11*
%TO.N,DFSDM_BOT_DIN*%
X140010000Y-109960000D03*
%TD*%
D12*
%TO.N,GND*%
%TO.C,J4*%
X167500000Y-50000000D03*
D13*
%TO.N,VCC*%
X171000000Y-50000000D03*
%TD*%
D10*
%TO.N,SPI_MOSI*%
%TO.C,J3*%
X173060000Y-117520000D03*
D11*
%TO.N,SPI_CLK*%
X170520000Y-117520000D03*
%TD*%
D10*
%TO.N,GND*%
%TO.C,J2*%
X139900000Y-75210000D03*
%TO.N,+3V3*%
X139900000Y-72670000D03*
%TO.N,DFSDM_CLK*%
X139900000Y-70130000D03*
D11*
%TO.N,DFSDM_TOP_DIN*%
X139900000Y-67590000D03*
%TD*%
D10*
%TO.N,GND*%
%TO.C,J1*%
X186420000Y-117570000D03*
%TO.N,+3V3*%
X186420000Y-115030000D03*
%TO.N,DFSDM_CLK*%
X186420000Y-112490000D03*
D11*
%TO.N,DFSDM_BOT_DIN*%
X186420000Y-109950000D03*
%TD*%
D14*
%TO.N,N/C*%
%TO.C,H4*%
X142220419Y-43469581D03*
X139940000Y-42525000D03*
X137659581Y-43469581D03*
X136715000Y-45750000D03*
X137659581Y-48030419D03*
X139940000Y-48975000D03*
X142220419Y-48030419D03*
X143165000Y-45750000D03*
D15*
X139940000Y-45750000D03*
%TD*%
D14*
%TO.N,N/C*%
%TO.C,H3*%
X142250419Y-133599581D03*
X139970000Y-132655000D03*
X137689581Y-133599581D03*
X136745000Y-135880000D03*
X137689581Y-138160419D03*
X139970000Y-139105000D03*
X142250419Y-138160419D03*
X143195000Y-135880000D03*
D15*
X139970000Y-135880000D03*
%TD*%
D14*
%TO.N,N/C*%
%TO.C,H2*%
X189080419Y-43459581D03*
X186800000Y-42515000D03*
X184519581Y-43459581D03*
X183575000Y-45740000D03*
X184519581Y-48020419D03*
X186800000Y-48965000D03*
X189080419Y-48020419D03*
X190025000Y-45740000D03*
D15*
X186800000Y-45740000D03*
%TD*%
D14*
%TO.N,N/C*%
%TO.C,H1*%
X188760419Y-133659581D03*
X186480000Y-132715000D03*
X184199581Y-133659581D03*
X183255000Y-135940000D03*
X184199581Y-138220419D03*
X186480000Y-139165000D03*
X188760419Y-138220419D03*
X189705000Y-135940000D03*
D15*
X186480000Y-135940000D03*
%TD*%
D10*
%TO.N,GND*%
%TO.C,J8*%
X162240000Y-71740000D03*
%TO.N,BOOT0*%
X159700000Y-71740000D03*
D11*
%TO.N,+3V3*%
X157160000Y-71740000D03*
%TD*%
D16*
%TO.N,GND*%
X156000000Y-51760000D03*
X156000000Y-52830000D03*
X156560000Y-54530000D03*
X156560000Y-55480000D03*
X154670000Y-100480000D03*
X156980000Y-128710000D03*
X158510000Y-128730000D03*
X164210000Y-79920000D03*
X140310000Y-97380000D03*
X144900000Y-93000000D03*
X145070000Y-94010000D03*
X144360000Y-87210000D03*
X150010000Y-84490000D03*
X151130000Y-84500000D03*
X148900000Y-84510000D03*
X151140000Y-88240000D03*
X156190000Y-105540000D03*
X163170000Y-105550000D03*
X168080000Y-105540000D03*
X171230000Y-106360000D03*
X175810000Y-103870000D03*
X176770000Y-97000000D03*
X176755000Y-94020000D03*
X178490000Y-86580000D03*
X177580000Y-85540000D03*
X162970000Y-122710000D03*
X146560000Y-89650000D03*
X143100000Y-87180000D03*
X145070000Y-95080000D03*
X140380000Y-98490000D03*
X140500000Y-99570000D03*
X150300000Y-93080000D03*
X154570000Y-90490000D03*
X169220000Y-79900000D03*
X156980000Y-78700000D03*
X152970000Y-104150000D03*
X151030000Y-104930000D03*
X150330000Y-100110000D03*
%TO.N,+3V3*%
X149430000Y-105250000D03*
X154460000Y-78730000D03*
X166700000Y-79900000D03*
X161800000Y-44410000D03*
X150010000Y-86990000D03*
X148890000Y-86990000D03*
X151150000Y-86950000D03*
X150340000Y-89920000D03*
X158630000Y-105560000D03*
X165640000Y-105550000D03*
X172970000Y-105560000D03*
X176770000Y-99510000D03*
X176760000Y-91500000D03*
X177600000Y-84260000D03*
X158960000Y-56110000D03*
X160180000Y-56110000D03*
X157850000Y-44400000D03*
X159170000Y-44400000D03*
X160470000Y-44400000D03*
X151140000Y-94560000D03*
X145140000Y-88960000D03*
X154450000Y-79900000D03*
X161670000Y-79890000D03*
X150320000Y-98890000D03*
%TO.N,Net-(C20-Pad1)*%
X172770000Y-101630000D03*
X173310000Y-85480000D03*
X155670000Y-83380000D03*
%TO.N,DFSDM_BOT_DIN*%
X161680000Y-104880000D03*
%TO.N,DFSDM_TOP_DIN*%
X154650000Y-85000000D03*
%TD*%
D17*
%TO.N,GND*%
X193524201Y-141364109D02*
X133298797Y-141285894D01*
X133331409Y-135393945D01*
X135035000Y-135393945D01*
X135035000Y-136366055D01*
X135224650Y-137319486D01*
X135596660Y-138217599D01*
X136136735Y-139025879D01*
X136824121Y-139713265D01*
X137632401Y-140253340D01*
X138530514Y-140625350D01*
X139483945Y-140815000D01*
X140456055Y-140815000D01*
X141409486Y-140625350D01*
X142307599Y-140253340D01*
X143115879Y-139713265D01*
X143803265Y-139025879D01*
X144343340Y-138217599D01*
X144715350Y-137319486D01*
X144905000Y-136366055D01*
X144905000Y-135776890D01*
X176080048Y-135776890D01*
X176080048Y-136023110D01*
X176128083Y-136264598D01*
X176222307Y-136492074D01*
X176359099Y-136696798D01*
X176533202Y-136870901D01*
X176737926Y-137007693D01*
X176965402Y-137101917D01*
X177206890Y-137149952D01*
X177453110Y-137149952D01*
X177694598Y-137101917D01*
X177922074Y-137007693D01*
X178126798Y-136870901D01*
X178300901Y-136696798D01*
X178437693Y-136492074D01*
X178531917Y-136264598D01*
X178579952Y-136023110D01*
X178579952Y-135776890D01*
X178531917Y-135535402D01*
X178498177Y-135453945D01*
X181545000Y-135453945D01*
X181545000Y-136426055D01*
X181734650Y-137379486D01*
X182106660Y-138277599D01*
X182646735Y-139085879D01*
X183334121Y-139773265D01*
X184142401Y-140313340D01*
X185040514Y-140685350D01*
X185993945Y-140875000D01*
X186966055Y-140875000D01*
X187919486Y-140685350D01*
X188817599Y-140313340D01*
X189625879Y-139773265D01*
X190313265Y-139085879D01*
X190853340Y-138277599D01*
X191225350Y-137379486D01*
X191415000Y-136426055D01*
X191415000Y-135453945D01*
X191225350Y-134500514D01*
X190853340Y-133602401D01*
X190313265Y-132794121D01*
X189625879Y-132106735D01*
X188817599Y-131566660D01*
X187919486Y-131194650D01*
X186966055Y-131005000D01*
X185993945Y-131005000D01*
X185040514Y-131194650D01*
X184142401Y-131566660D01*
X183334121Y-132106735D01*
X182646735Y-132794121D01*
X182106660Y-133602401D01*
X181734650Y-134500514D01*
X181545000Y-135453945D01*
X178498177Y-135453945D01*
X178437693Y-135307926D01*
X178300901Y-135103202D01*
X178126798Y-134929099D01*
X177922074Y-134792307D01*
X177694598Y-134698083D01*
X177453110Y-134650048D01*
X177206890Y-134650048D01*
X176965402Y-134698083D01*
X176737926Y-134792307D01*
X176533202Y-134929099D01*
X176359099Y-135103202D01*
X176222307Y-135307926D01*
X176128083Y-135535402D01*
X176080048Y-135776890D01*
X144905000Y-135776890D01*
X144905000Y-135393945D01*
X144715350Y-134440514D01*
X144343340Y-133542401D01*
X143803265Y-132734121D01*
X143115879Y-132046735D01*
X142307599Y-131506660D01*
X141409486Y-131134650D01*
X140456055Y-130945000D01*
X139483945Y-130945000D01*
X138530514Y-131134650D01*
X137632401Y-131506660D01*
X136824121Y-132046735D01*
X136136735Y-132734121D01*
X135596660Y-133542401D01*
X135224650Y-134440514D01*
X135035000Y-135393945D01*
X133331409Y-135393945D01*
X133428034Y-117936890D01*
X138568524Y-117936890D01*
X138613175Y-118084099D01*
X138738359Y-118346920D01*
X138912412Y-118580269D01*
X139128645Y-118775178D01*
X139378748Y-118924157D01*
X139653109Y-119021481D01*
X139883000Y-118900814D01*
X139883000Y-117707000D01*
X140137000Y-117707000D01*
X140137000Y-118900814D01*
X140366891Y-119021481D01*
X140641252Y-118924157D01*
X140891355Y-118775178D01*
X141107588Y-118580269D01*
X141281641Y-118346920D01*
X141406825Y-118084099D01*
X141451476Y-117936890D01*
X141330155Y-117707000D01*
X140137000Y-117707000D01*
X139883000Y-117707000D01*
X138689845Y-117707000D01*
X138568524Y-117936890D01*
X133428034Y-117936890D01*
X133476891Y-109110000D01*
X138521928Y-109110000D01*
X138521928Y-110810000D01*
X138534188Y-110934482D01*
X138570498Y-111054180D01*
X138629463Y-111164494D01*
X138708815Y-111261185D01*
X138805506Y-111340537D01*
X138915820Y-111399502D01*
X138988380Y-111421513D01*
X138856525Y-111553368D01*
X138694010Y-111796589D01*
X138582068Y-112066842D01*
X138525000Y-112353740D01*
X138525000Y-112646260D01*
X138582068Y-112933158D01*
X138694010Y-113203411D01*
X138856525Y-113446632D01*
X139063368Y-113653475D01*
X139237760Y-113770000D01*
X139063368Y-113886525D01*
X138856525Y-114093368D01*
X138694010Y-114336589D01*
X138582068Y-114606842D01*
X138525000Y-114893740D01*
X138525000Y-115186260D01*
X138582068Y-115473158D01*
X138694010Y-115743411D01*
X138856525Y-115986632D01*
X139063368Y-116193475D01*
X139245534Y-116315195D01*
X139128645Y-116384822D01*
X138912412Y-116579731D01*
X138738359Y-116813080D01*
X138613175Y-117075901D01*
X138568524Y-117223110D01*
X138689845Y-117453000D01*
X139883000Y-117453000D01*
X139883000Y-117433000D01*
X140137000Y-117433000D01*
X140137000Y-117453000D01*
X141330155Y-117453000D01*
X141451476Y-117223110D01*
X141406825Y-117075901D01*
X141281641Y-116813080D01*
X141174919Y-116670000D01*
X169031928Y-116670000D01*
X169031928Y-118370000D01*
X169044188Y-118494482D01*
X169080498Y-118614180D01*
X169139463Y-118724494D01*
X169218815Y-118821185D01*
X169315506Y-118900537D01*
X169425820Y-118959502D01*
X169545518Y-118995812D01*
X169670000Y-119008072D01*
X171370000Y-119008072D01*
X171494482Y-118995812D01*
X171614180Y-118959502D01*
X171724494Y-118900537D01*
X171821185Y-118821185D01*
X171900537Y-118724494D01*
X171959502Y-118614180D01*
X171981513Y-118541620D01*
X172113368Y-118673475D01*
X172356589Y-118835990D01*
X172626842Y-118947932D01*
X172913740Y-119005000D01*
X173206260Y-119005000D01*
X173493158Y-118947932D01*
X173763411Y-118835990D01*
X174006632Y-118673475D01*
X174213475Y-118466632D01*
X174375990Y-118223411D01*
X174487932Y-117953158D01*
X174493157Y-117926890D01*
X184978524Y-117926890D01*
X185023175Y-118074099D01*
X185148359Y-118336920D01*
X185322412Y-118570269D01*
X185538645Y-118765178D01*
X185788748Y-118914157D01*
X186063109Y-119011481D01*
X186293000Y-118890814D01*
X186293000Y-117697000D01*
X186547000Y-117697000D01*
X186547000Y-118890814D01*
X186776891Y-119011481D01*
X187051252Y-118914157D01*
X187301355Y-118765178D01*
X187517588Y-118570269D01*
X187691641Y-118336920D01*
X187816825Y-118074099D01*
X187861476Y-117926890D01*
X187740155Y-117697000D01*
X186547000Y-117697000D01*
X186293000Y-117697000D01*
X185099845Y-117697000D01*
X184978524Y-117926890D01*
X174493157Y-117926890D01*
X174545000Y-117666260D01*
X174545000Y-117373740D01*
X174487932Y-117086842D01*
X174375990Y-116816589D01*
X174213475Y-116573368D01*
X174006632Y-116366525D01*
X173763411Y-116204010D01*
X173493158Y-116092068D01*
X173206260Y-116035000D01*
X172913740Y-116035000D01*
X172626842Y-116092068D01*
X172356589Y-116204010D01*
X172113368Y-116366525D01*
X171981513Y-116498380D01*
X171959502Y-116425820D01*
X171900537Y-116315506D01*
X171821185Y-116218815D01*
X171724494Y-116139463D01*
X171614180Y-116080498D01*
X171494482Y-116044188D01*
X171370000Y-116031928D01*
X169670000Y-116031928D01*
X169545518Y-116044188D01*
X169425820Y-116080498D01*
X169315506Y-116139463D01*
X169218815Y-116218815D01*
X169139463Y-116315506D01*
X169080498Y-116425820D01*
X169044188Y-116545518D01*
X169031928Y-116670000D01*
X141174919Y-116670000D01*
X141107588Y-116579731D01*
X140891355Y-116384822D01*
X140774466Y-116315195D01*
X140956632Y-116193475D01*
X141163475Y-115986632D01*
X141325990Y-115743411D01*
X141437932Y-115473158D01*
X141495000Y-115186260D01*
X141495000Y-114893740D01*
X141437932Y-114606842D01*
X141325990Y-114336589D01*
X141163475Y-114093368D01*
X140956632Y-113886525D01*
X140782240Y-113770000D01*
X140956632Y-113653475D01*
X141163475Y-113446632D01*
X141325990Y-113203411D01*
X141437932Y-112933158D01*
X141495000Y-112646260D01*
X141495000Y-112353740D01*
X141437932Y-112066842D01*
X141325990Y-111796589D01*
X141163475Y-111553368D01*
X141031620Y-111421513D01*
X141104180Y-111399502D01*
X141214494Y-111340537D01*
X141311185Y-111261185D01*
X141390537Y-111164494D01*
X141449502Y-111054180D01*
X141485812Y-110934482D01*
X141498072Y-110810000D01*
X141498072Y-109110000D01*
X141497088Y-109100000D01*
X184931928Y-109100000D01*
X184931928Y-110800000D01*
X184944188Y-110924482D01*
X184980498Y-111044180D01*
X185039463Y-111154494D01*
X185118815Y-111251185D01*
X185215506Y-111330537D01*
X185325820Y-111389502D01*
X185398380Y-111411513D01*
X185266525Y-111543368D01*
X185104010Y-111786589D01*
X184992068Y-112056842D01*
X184935000Y-112343740D01*
X184935000Y-112636260D01*
X184992068Y-112923158D01*
X185104010Y-113193411D01*
X185266525Y-113436632D01*
X185473368Y-113643475D01*
X185647760Y-113760000D01*
X185473368Y-113876525D01*
X185266525Y-114083368D01*
X185104010Y-114326589D01*
X184992068Y-114596842D01*
X184935000Y-114883740D01*
X184935000Y-115176260D01*
X184992068Y-115463158D01*
X185104010Y-115733411D01*
X185266525Y-115976632D01*
X185473368Y-116183475D01*
X185655534Y-116305195D01*
X185538645Y-116374822D01*
X185322412Y-116569731D01*
X185148359Y-116803080D01*
X185023175Y-117065901D01*
X184978524Y-117213110D01*
X185099845Y-117443000D01*
X186293000Y-117443000D01*
X186293000Y-117423000D01*
X186547000Y-117423000D01*
X186547000Y-117443000D01*
X187740155Y-117443000D01*
X187861476Y-117213110D01*
X187816825Y-117065901D01*
X187691641Y-116803080D01*
X187517588Y-116569731D01*
X187301355Y-116374822D01*
X187184466Y-116305195D01*
X187366632Y-116183475D01*
X187573475Y-115976632D01*
X187735990Y-115733411D01*
X187847932Y-115463158D01*
X187905000Y-115176260D01*
X187905000Y-114883740D01*
X187847932Y-114596842D01*
X187735990Y-114326589D01*
X187573475Y-114083368D01*
X187366632Y-113876525D01*
X187192240Y-113760000D01*
X187366632Y-113643475D01*
X187573475Y-113436632D01*
X187735990Y-113193411D01*
X187847932Y-112923158D01*
X187905000Y-112636260D01*
X187905000Y-112343740D01*
X187847932Y-112056842D01*
X187735990Y-111786589D01*
X187573475Y-111543368D01*
X187441620Y-111411513D01*
X187514180Y-111389502D01*
X187624494Y-111330537D01*
X187721185Y-111251185D01*
X187800537Y-111154494D01*
X187859502Y-111044180D01*
X187895812Y-110924482D01*
X187908072Y-110800000D01*
X187908072Y-109100000D01*
X187895812Y-108975518D01*
X187859502Y-108855820D01*
X187800537Y-108745506D01*
X187721185Y-108648815D01*
X187624494Y-108569463D01*
X187514180Y-108510498D01*
X187394482Y-108474188D01*
X187270000Y-108461928D01*
X185570000Y-108461928D01*
X185445518Y-108474188D01*
X185325820Y-108510498D01*
X185215506Y-108569463D01*
X185118815Y-108648815D01*
X185039463Y-108745506D01*
X184980498Y-108855820D01*
X184944188Y-108975518D01*
X184931928Y-109100000D01*
X141497088Y-109100000D01*
X141485812Y-108985518D01*
X141449502Y-108865820D01*
X141390537Y-108755506D01*
X141311185Y-108658815D01*
X141214494Y-108579463D01*
X141104180Y-108520498D01*
X140984482Y-108484188D01*
X140860000Y-108471928D01*
X139160000Y-108471928D01*
X139035518Y-108484188D01*
X138915820Y-108520498D01*
X138805506Y-108579463D01*
X138708815Y-108658815D01*
X138629463Y-108755506D01*
X138570498Y-108865820D01*
X138534188Y-108985518D01*
X138521928Y-109110000D01*
X133476891Y-109110000D01*
X133498820Y-105148061D01*
X148395000Y-105148061D01*
X148395000Y-105351939D01*
X148434774Y-105551898D01*
X148512795Y-105740256D01*
X148626063Y-105909774D01*
X148770226Y-106053937D01*
X148939744Y-106167205D01*
X149128102Y-106245226D01*
X149328061Y-106285000D01*
X149531939Y-106285000D01*
X149731898Y-106245226D01*
X149920256Y-106167205D01*
X150089774Y-106053937D01*
X150233937Y-105909774D01*
X150347205Y-105740256D01*
X150425226Y-105551898D01*
X150443891Y-105458061D01*
X157595000Y-105458061D01*
X157595000Y-105661939D01*
X157634774Y-105861898D01*
X157712795Y-106050256D01*
X157826063Y-106219774D01*
X157970226Y-106363937D01*
X158139744Y-106477205D01*
X158328102Y-106555226D01*
X158528061Y-106595000D01*
X158731939Y-106595000D01*
X158931898Y-106555226D01*
X159120256Y-106477205D01*
X159289774Y-106363937D01*
X159433937Y-106219774D01*
X159547205Y-106050256D01*
X159625226Y-105861898D01*
X159665000Y-105661939D01*
X159665000Y-105458061D01*
X159625226Y-105258102D01*
X159547205Y-105069744D01*
X159433937Y-104900226D01*
X159311772Y-104778061D01*
X160645000Y-104778061D01*
X160645000Y-104981939D01*
X160684774Y-105181898D01*
X160762795Y-105370256D01*
X160876063Y-105539774D01*
X161020226Y-105683937D01*
X161189744Y-105797205D01*
X161378102Y-105875226D01*
X161578061Y-105915000D01*
X161781939Y-105915000D01*
X161981898Y-105875226D01*
X162170256Y-105797205D01*
X162339774Y-105683937D01*
X162483937Y-105539774D01*
X162545217Y-105448061D01*
X164605000Y-105448061D01*
X164605000Y-105651939D01*
X164644774Y-105851898D01*
X164722795Y-106040256D01*
X164836063Y-106209774D01*
X164980226Y-106353937D01*
X165149744Y-106467205D01*
X165338102Y-106545226D01*
X165538061Y-106585000D01*
X165741939Y-106585000D01*
X165941898Y-106545226D01*
X166130256Y-106467205D01*
X166299774Y-106353937D01*
X166443937Y-106209774D01*
X166557205Y-106040256D01*
X166635226Y-105851898D01*
X166675000Y-105651939D01*
X166675000Y-105458061D01*
X171935000Y-105458061D01*
X171935000Y-105661939D01*
X171974774Y-105861898D01*
X172052795Y-106050256D01*
X172166063Y-106219774D01*
X172310226Y-106363937D01*
X172479744Y-106477205D01*
X172668102Y-106555226D01*
X172868061Y-106595000D01*
X173071939Y-106595000D01*
X173271898Y-106555226D01*
X173460256Y-106477205D01*
X173629774Y-106363937D01*
X173773937Y-106219774D01*
X173887205Y-106050256D01*
X173965226Y-105861898D01*
X174005000Y-105661939D01*
X174005000Y-105458061D01*
X173965226Y-105258102D01*
X173887205Y-105069744D01*
X173773937Y-104900226D01*
X173629774Y-104756063D01*
X173460256Y-104642795D01*
X173271898Y-104564774D01*
X173071939Y-104525000D01*
X172868061Y-104525000D01*
X172668102Y-104564774D01*
X172479744Y-104642795D01*
X172310226Y-104756063D01*
X172166063Y-104900226D01*
X172052795Y-105069744D01*
X171974774Y-105258102D01*
X171935000Y-105458061D01*
X166675000Y-105458061D01*
X166675000Y-105448061D01*
X166635226Y-105248102D01*
X166557205Y-105059744D01*
X166443937Y-104890226D01*
X166299774Y-104746063D01*
X166130256Y-104632795D01*
X165941898Y-104554774D01*
X165741939Y-104515000D01*
X165538061Y-104515000D01*
X165338102Y-104554774D01*
X165149744Y-104632795D01*
X164980226Y-104746063D01*
X164836063Y-104890226D01*
X164722795Y-105059744D01*
X164644774Y-105248102D01*
X164605000Y-105448061D01*
X162545217Y-105448061D01*
X162597205Y-105370256D01*
X162675226Y-105181898D01*
X162715000Y-104981939D01*
X162715000Y-104778061D01*
X162675226Y-104578102D01*
X162597205Y-104389744D01*
X162483937Y-104220226D01*
X162339774Y-104076063D01*
X162170256Y-103962795D01*
X161981898Y-103884774D01*
X161781939Y-103845000D01*
X161578061Y-103845000D01*
X161378102Y-103884774D01*
X161189744Y-103962795D01*
X161020226Y-104076063D01*
X160876063Y-104220226D01*
X160762795Y-104389744D01*
X160684774Y-104578102D01*
X160645000Y-104778061D01*
X159311772Y-104778061D01*
X159289774Y-104756063D01*
X159120256Y-104642795D01*
X158931898Y-104564774D01*
X158731939Y-104525000D01*
X158528061Y-104525000D01*
X158328102Y-104564774D01*
X158139744Y-104642795D01*
X157970226Y-104756063D01*
X157826063Y-104900226D01*
X157712795Y-105069744D01*
X157634774Y-105258102D01*
X157595000Y-105458061D01*
X150443891Y-105458061D01*
X150465000Y-105351939D01*
X150465000Y-105148061D01*
X150425226Y-104948102D01*
X150347205Y-104759744D01*
X150233937Y-104590226D01*
X150089774Y-104446063D01*
X149920256Y-104332795D01*
X149731898Y-104254774D01*
X149531939Y-104215000D01*
X149328061Y-104215000D01*
X149128102Y-104254774D01*
X148939744Y-104332795D01*
X148770226Y-104446063D01*
X148626063Y-104590226D01*
X148512795Y-104759744D01*
X148434774Y-104948102D01*
X148395000Y-105148061D01*
X133498820Y-105148061D01*
X133518856Y-101528061D01*
X171735000Y-101528061D01*
X171735000Y-101731939D01*
X171774774Y-101931898D01*
X171852795Y-102120256D01*
X171966063Y-102289774D01*
X172110226Y-102433937D01*
X172279744Y-102547205D01*
X172468102Y-102625226D01*
X172668061Y-102665000D01*
X172871939Y-102665000D01*
X173071898Y-102625226D01*
X173260256Y-102547205D01*
X173429774Y-102433937D01*
X173573937Y-102289774D01*
X173687205Y-102120256D01*
X173765226Y-101931898D01*
X173805000Y-101731939D01*
X173805000Y-101528061D01*
X173765226Y-101328102D01*
X173687205Y-101139744D01*
X173573937Y-100970226D01*
X173429774Y-100826063D01*
X173260256Y-100712795D01*
X173071898Y-100634774D01*
X172871939Y-100595000D01*
X172668061Y-100595000D01*
X172468102Y-100634774D01*
X172279744Y-100712795D01*
X172110226Y-100826063D01*
X171966063Y-100970226D01*
X171852795Y-101139744D01*
X171774774Y-101328102D01*
X171735000Y-101528061D01*
X133518856Y-101528061D01*
X133534022Y-98788061D01*
X149285000Y-98788061D01*
X149285000Y-98991939D01*
X149324774Y-99191898D01*
X149402795Y-99380256D01*
X149516063Y-99549774D01*
X149660226Y-99693937D01*
X149829744Y-99807205D01*
X150018102Y-99885226D01*
X150218061Y-99925000D01*
X150421939Y-99925000D01*
X150621898Y-99885226D01*
X150810256Y-99807205D01*
X150979774Y-99693937D01*
X151123937Y-99549774D01*
X151218626Y-99408061D01*
X175735000Y-99408061D01*
X175735000Y-99611939D01*
X175774774Y-99811898D01*
X175852795Y-100000256D01*
X175966063Y-100169774D01*
X176110226Y-100313937D01*
X176279744Y-100427205D01*
X176468102Y-100505226D01*
X176668061Y-100545000D01*
X176871939Y-100545000D01*
X177071898Y-100505226D01*
X177260256Y-100427205D01*
X177429774Y-100313937D01*
X177573937Y-100169774D01*
X177687205Y-100000256D01*
X177765226Y-99811898D01*
X177805000Y-99611939D01*
X177805000Y-99408061D01*
X177765226Y-99208102D01*
X177687205Y-99019744D01*
X177573937Y-98850226D01*
X177429774Y-98706063D01*
X177260256Y-98592795D01*
X177071898Y-98514774D01*
X176871939Y-98475000D01*
X176668061Y-98475000D01*
X176468102Y-98514774D01*
X176279744Y-98592795D01*
X176110226Y-98706063D01*
X175966063Y-98850226D01*
X175852795Y-99019744D01*
X175774774Y-99208102D01*
X175735000Y-99408061D01*
X151218626Y-99408061D01*
X151237205Y-99380256D01*
X151315226Y-99191898D01*
X151355000Y-98991939D01*
X151355000Y-98788061D01*
X151315226Y-98588102D01*
X151237205Y-98399744D01*
X151123937Y-98230226D01*
X150979774Y-98086063D01*
X150810256Y-97972795D01*
X150621898Y-97894774D01*
X150421939Y-97855000D01*
X150218061Y-97855000D01*
X150018102Y-97894774D01*
X149829744Y-97972795D01*
X149660226Y-98086063D01*
X149516063Y-98230226D01*
X149402795Y-98399744D01*
X149324774Y-98588102D01*
X149285000Y-98788061D01*
X133534022Y-98788061D01*
X133557989Y-94458061D01*
X150105000Y-94458061D01*
X150105000Y-94661939D01*
X150144774Y-94861898D01*
X150222795Y-95050256D01*
X150336063Y-95219774D01*
X150480226Y-95363937D01*
X150649744Y-95477205D01*
X150838102Y-95555226D01*
X151038061Y-95595000D01*
X151241939Y-95595000D01*
X151441898Y-95555226D01*
X151630256Y-95477205D01*
X151799774Y-95363937D01*
X151943937Y-95219774D01*
X152057205Y-95050256D01*
X152135226Y-94861898D01*
X152175000Y-94661939D01*
X152175000Y-94458061D01*
X152135226Y-94258102D01*
X152057205Y-94069744D01*
X151943937Y-93900226D01*
X151799774Y-93756063D01*
X151630256Y-93642795D01*
X151441898Y-93564774D01*
X151241939Y-93525000D01*
X151038061Y-93525000D01*
X150838102Y-93564774D01*
X150649744Y-93642795D01*
X150480226Y-93756063D01*
X150336063Y-93900226D01*
X150222795Y-94069744D01*
X150144774Y-94258102D01*
X150105000Y-94458061D01*
X133557989Y-94458061D01*
X133563419Y-93476890D01*
X181088524Y-93476890D01*
X181133175Y-93624099D01*
X181258359Y-93886920D01*
X181432412Y-94120269D01*
X181648645Y-94315178D01*
X181898748Y-94464157D01*
X182173109Y-94561481D01*
X182403000Y-94440814D01*
X182403000Y-93247000D01*
X182657000Y-93247000D01*
X182657000Y-94440814D01*
X182886891Y-94561481D01*
X183161252Y-94464157D01*
X183411355Y-94315178D01*
X183627588Y-94120269D01*
X183801641Y-93886920D01*
X183926825Y-93624099D01*
X183971476Y-93476890D01*
X183850155Y-93247000D01*
X182657000Y-93247000D01*
X182403000Y-93247000D01*
X181209845Y-93247000D01*
X181088524Y-93476890D01*
X133563419Y-93476890D01*
X133574926Y-91398061D01*
X175725000Y-91398061D01*
X175725000Y-91601939D01*
X175764774Y-91801898D01*
X175842795Y-91990256D01*
X175956063Y-92159774D01*
X176100226Y-92303937D01*
X176269744Y-92417205D01*
X176458102Y-92495226D01*
X176658061Y-92535000D01*
X176861939Y-92535000D01*
X177061898Y-92495226D01*
X177250256Y-92417205D01*
X177419774Y-92303937D01*
X177563937Y-92159774D01*
X177677205Y-91990256D01*
X177755226Y-91801898D01*
X177795000Y-91601939D01*
X177795000Y-91398061D01*
X177755226Y-91198102D01*
X177677205Y-91009744D01*
X177563937Y-90840226D01*
X177419774Y-90696063D01*
X177250256Y-90582795D01*
X177061898Y-90504774D01*
X176861939Y-90465000D01*
X176658061Y-90465000D01*
X176458102Y-90504774D01*
X176269744Y-90582795D01*
X176100226Y-90696063D01*
X175956063Y-90840226D01*
X175842795Y-91009744D01*
X175764774Y-91198102D01*
X175725000Y-91398061D01*
X133574926Y-91398061D01*
X133588986Y-88858061D01*
X144105000Y-88858061D01*
X144105000Y-89061939D01*
X144144774Y-89261898D01*
X144222795Y-89450256D01*
X144336063Y-89619774D01*
X144480226Y-89763937D01*
X144649744Y-89877205D01*
X144838102Y-89955226D01*
X145038061Y-89995000D01*
X145241939Y-89995000D01*
X145441898Y-89955226D01*
X145630256Y-89877205D01*
X145718771Y-89818061D01*
X149305000Y-89818061D01*
X149305000Y-90021939D01*
X149344774Y-90221898D01*
X149422795Y-90410256D01*
X149536063Y-90579774D01*
X149680226Y-90723937D01*
X149849744Y-90837205D01*
X150038102Y-90915226D01*
X150238061Y-90955000D01*
X150441939Y-90955000D01*
X150641898Y-90915226D01*
X150830256Y-90837205D01*
X150999774Y-90723937D01*
X151143937Y-90579774D01*
X151257205Y-90410256D01*
X151335226Y-90221898D01*
X151375000Y-90021939D01*
X151375000Y-89818061D01*
X151335226Y-89618102D01*
X151257205Y-89429744D01*
X151143937Y-89260226D01*
X150999774Y-89116063D01*
X150830256Y-89002795D01*
X150641898Y-88924774D01*
X150441939Y-88885000D01*
X150238061Y-88885000D01*
X150038102Y-88924774D01*
X149849744Y-89002795D01*
X149680226Y-89116063D01*
X149536063Y-89260226D01*
X149422795Y-89429744D01*
X149344774Y-89618102D01*
X149305000Y-89818061D01*
X145718771Y-89818061D01*
X145799774Y-89763937D01*
X145943937Y-89619774D01*
X146057205Y-89450256D01*
X146135226Y-89261898D01*
X146175000Y-89061939D01*
X146175000Y-88858061D01*
X146135226Y-88658102D01*
X146057205Y-88469744D01*
X145943937Y-88300226D01*
X145799774Y-88156063D01*
X145630256Y-88042795D01*
X145441898Y-87964774D01*
X145241939Y-87925000D01*
X145038061Y-87925000D01*
X144838102Y-87964774D01*
X144649744Y-88042795D01*
X144480226Y-88156063D01*
X144336063Y-88300226D01*
X144222795Y-88469744D01*
X144144774Y-88658102D01*
X144105000Y-88858061D01*
X133588986Y-88858061D01*
X133599890Y-86888061D01*
X147855000Y-86888061D01*
X147855000Y-87091939D01*
X147894774Y-87291898D01*
X147972795Y-87480256D01*
X148086063Y-87649774D01*
X148230226Y-87793937D01*
X148399744Y-87907205D01*
X148588102Y-87985226D01*
X148788061Y-88025000D01*
X148991939Y-88025000D01*
X149191898Y-87985226D01*
X149380256Y-87907205D01*
X149450000Y-87860604D01*
X149519744Y-87907205D01*
X149708102Y-87985226D01*
X149908061Y-88025000D01*
X150111939Y-88025000D01*
X150311898Y-87985226D01*
X150500256Y-87907205D01*
X150609932Y-87833922D01*
X150659744Y-87867205D01*
X150848102Y-87945226D01*
X151048061Y-87985000D01*
X151251939Y-87985000D01*
X151451898Y-87945226D01*
X151640256Y-87867205D01*
X151809774Y-87753937D01*
X151953937Y-87609774D01*
X152067205Y-87440256D01*
X152145226Y-87251898D01*
X152185000Y-87051939D01*
X152185000Y-86848061D01*
X152145226Y-86648102D01*
X152067205Y-86459744D01*
X151953937Y-86290226D01*
X151809774Y-86146063D01*
X151640256Y-86032795D01*
X151451898Y-85954774D01*
X151251939Y-85915000D01*
X151048061Y-85915000D01*
X150848102Y-85954774D01*
X150659744Y-86032795D01*
X150550068Y-86106078D01*
X150500256Y-86072795D01*
X150311898Y-85994774D01*
X150111939Y-85955000D01*
X149908061Y-85955000D01*
X149708102Y-85994774D01*
X149519744Y-86072795D01*
X149450000Y-86119396D01*
X149380256Y-86072795D01*
X149191898Y-85994774D01*
X148991939Y-85955000D01*
X148788061Y-85955000D01*
X148588102Y-85994774D01*
X148399744Y-86072795D01*
X148230226Y-86186063D01*
X148086063Y-86330226D01*
X147972795Y-86499744D01*
X147894774Y-86688102D01*
X147855000Y-86888061D01*
X133599890Y-86888061D01*
X133610904Y-84898061D01*
X153615000Y-84898061D01*
X153615000Y-85101939D01*
X153654774Y-85301898D01*
X153732795Y-85490256D01*
X153846063Y-85659774D01*
X153990226Y-85803937D01*
X154159744Y-85917205D01*
X154348102Y-85995226D01*
X154548061Y-86035000D01*
X154751939Y-86035000D01*
X154951898Y-85995226D01*
X155140256Y-85917205D01*
X155309774Y-85803937D01*
X155453937Y-85659774D01*
X155567205Y-85490256D01*
X155613678Y-85378061D01*
X172275000Y-85378061D01*
X172275000Y-85581939D01*
X172314774Y-85781898D01*
X172392795Y-85970256D01*
X172506063Y-86139774D01*
X172650226Y-86283937D01*
X172819744Y-86397205D01*
X173008102Y-86475226D01*
X173208061Y-86515000D01*
X173411939Y-86515000D01*
X173611898Y-86475226D01*
X173800256Y-86397205D01*
X173969774Y-86283937D01*
X174113937Y-86139774D01*
X174227205Y-85970256D01*
X174305226Y-85781898D01*
X174345000Y-85581939D01*
X174345000Y-85378061D01*
X174305226Y-85178102D01*
X174227205Y-84989744D01*
X174113937Y-84820226D01*
X173969774Y-84676063D01*
X173800256Y-84562795D01*
X173611898Y-84484774D01*
X173411939Y-84445000D01*
X173208061Y-84445000D01*
X173008102Y-84484774D01*
X172819744Y-84562795D01*
X172650226Y-84676063D01*
X172506063Y-84820226D01*
X172392795Y-84989744D01*
X172314774Y-85178102D01*
X172275000Y-85378061D01*
X155613678Y-85378061D01*
X155645226Y-85301898D01*
X155685000Y-85101939D01*
X155685000Y-84898061D01*
X155645226Y-84698102D01*
X155567205Y-84509744D01*
X155494065Y-84400281D01*
X155568061Y-84415000D01*
X155771939Y-84415000D01*
X155971898Y-84375226D01*
X156160256Y-84297205D01*
X156329774Y-84183937D01*
X156355650Y-84158061D01*
X176565000Y-84158061D01*
X176565000Y-84361939D01*
X176604774Y-84561898D01*
X176682795Y-84750256D01*
X176796063Y-84919774D01*
X176940226Y-85063937D01*
X177109744Y-85177205D01*
X177298102Y-85255226D01*
X177498061Y-85295000D01*
X177701939Y-85295000D01*
X177901898Y-85255226D01*
X178090256Y-85177205D01*
X178259774Y-85063937D01*
X178403937Y-84919774D01*
X178517205Y-84750256D01*
X178558732Y-84650000D01*
X181041928Y-84650000D01*
X181041928Y-86350000D01*
X181054188Y-86474482D01*
X181090498Y-86594180D01*
X181149463Y-86704494D01*
X181228815Y-86801185D01*
X181325506Y-86880537D01*
X181435820Y-86939502D01*
X181508380Y-86961513D01*
X181376525Y-87093368D01*
X181214010Y-87336589D01*
X181102068Y-87606842D01*
X181045000Y-87893740D01*
X181045000Y-88186260D01*
X181102068Y-88473158D01*
X181214010Y-88743411D01*
X181376525Y-88986632D01*
X181583368Y-89193475D01*
X181757760Y-89310000D01*
X181583368Y-89426525D01*
X181376525Y-89633368D01*
X181214010Y-89876589D01*
X181102068Y-90146842D01*
X181045000Y-90433740D01*
X181045000Y-90726260D01*
X181102068Y-91013158D01*
X181214010Y-91283411D01*
X181376525Y-91526632D01*
X181583368Y-91733475D01*
X181765534Y-91855195D01*
X181648645Y-91924822D01*
X181432412Y-92119731D01*
X181258359Y-92353080D01*
X181133175Y-92615901D01*
X181088524Y-92763110D01*
X181209845Y-92993000D01*
X182403000Y-92993000D01*
X182403000Y-92973000D01*
X182657000Y-92973000D01*
X182657000Y-92993000D01*
X183850155Y-92993000D01*
X183971476Y-92763110D01*
X183926825Y-92615901D01*
X183801641Y-92353080D01*
X183627588Y-92119731D01*
X183411355Y-91924822D01*
X183294466Y-91855195D01*
X183476632Y-91733475D01*
X183683475Y-91526632D01*
X183845990Y-91283411D01*
X183957932Y-91013158D01*
X184015000Y-90726260D01*
X184015000Y-90433740D01*
X183957932Y-90146842D01*
X183845990Y-89876589D01*
X183683475Y-89633368D01*
X183476632Y-89426525D01*
X183302240Y-89310000D01*
X183476632Y-89193475D01*
X183683475Y-88986632D01*
X183845990Y-88743411D01*
X183957932Y-88473158D01*
X184015000Y-88186260D01*
X184015000Y-87893740D01*
X183957932Y-87606842D01*
X183845990Y-87336589D01*
X183683475Y-87093368D01*
X183551620Y-86961513D01*
X183624180Y-86939502D01*
X183734494Y-86880537D01*
X183831185Y-86801185D01*
X183910537Y-86704494D01*
X183969502Y-86594180D01*
X184005812Y-86474482D01*
X184018072Y-86350000D01*
X184018072Y-84650000D01*
X184005812Y-84525518D01*
X183969502Y-84405820D01*
X183910537Y-84295506D01*
X183831185Y-84198815D01*
X183734494Y-84119463D01*
X183624180Y-84060498D01*
X183504482Y-84024188D01*
X183380000Y-84011928D01*
X181680000Y-84011928D01*
X181555518Y-84024188D01*
X181435820Y-84060498D01*
X181325506Y-84119463D01*
X181228815Y-84198815D01*
X181149463Y-84295506D01*
X181090498Y-84405820D01*
X181054188Y-84525518D01*
X181041928Y-84650000D01*
X178558732Y-84650000D01*
X178595226Y-84561898D01*
X178635000Y-84361939D01*
X178635000Y-84158061D01*
X178595226Y-83958102D01*
X178517205Y-83769744D01*
X178403937Y-83600226D01*
X178259774Y-83456063D01*
X178090256Y-83342795D01*
X177901898Y-83264774D01*
X177701939Y-83225000D01*
X177498061Y-83225000D01*
X177298102Y-83264774D01*
X177109744Y-83342795D01*
X176940226Y-83456063D01*
X176796063Y-83600226D01*
X176682795Y-83769744D01*
X176604774Y-83958102D01*
X176565000Y-84158061D01*
X156355650Y-84158061D01*
X156473937Y-84039774D01*
X156587205Y-83870256D01*
X156665226Y-83681898D01*
X156705000Y-83481939D01*
X156705000Y-83278061D01*
X156665226Y-83078102D01*
X156587205Y-82889744D01*
X156473937Y-82720226D01*
X156329774Y-82576063D01*
X156160256Y-82462795D01*
X155971898Y-82384774D01*
X155771939Y-82345000D01*
X155568061Y-82345000D01*
X155368102Y-82384774D01*
X155179744Y-82462795D01*
X155010226Y-82576063D01*
X154866063Y-82720226D01*
X154752795Y-82889744D01*
X154674774Y-83078102D01*
X154635000Y-83278061D01*
X154635000Y-83481939D01*
X154674774Y-83681898D01*
X154752795Y-83870256D01*
X154825935Y-83979719D01*
X154751939Y-83965000D01*
X154548061Y-83965000D01*
X154348102Y-84004774D01*
X154159744Y-84082795D01*
X153990226Y-84196063D01*
X153846063Y-84340226D01*
X153732795Y-84509744D01*
X153654774Y-84698102D01*
X153615000Y-84898061D01*
X133610904Y-84898061D01*
X133639133Y-79798061D01*
X153415000Y-79798061D01*
X153415000Y-80001939D01*
X153454774Y-80201898D01*
X153532795Y-80390256D01*
X153646063Y-80559774D01*
X153790226Y-80703937D01*
X153959744Y-80817205D01*
X154148102Y-80895226D01*
X154348061Y-80935000D01*
X154551939Y-80935000D01*
X154751898Y-80895226D01*
X154940256Y-80817205D01*
X155109774Y-80703937D01*
X155253937Y-80559774D01*
X155367205Y-80390256D01*
X155445226Y-80201898D01*
X155485000Y-80001939D01*
X155485000Y-79798061D01*
X155483011Y-79788061D01*
X160635000Y-79788061D01*
X160635000Y-79991939D01*
X160674774Y-80191898D01*
X160752795Y-80380256D01*
X160866063Y-80549774D01*
X161010226Y-80693937D01*
X161179744Y-80807205D01*
X161368102Y-80885226D01*
X161568061Y-80925000D01*
X161771939Y-80925000D01*
X161971898Y-80885226D01*
X162160256Y-80807205D01*
X162329774Y-80693937D01*
X162473937Y-80549774D01*
X162587205Y-80380256D01*
X162665226Y-80191898D01*
X162705000Y-79991939D01*
X162705000Y-79798061D01*
X165665000Y-79798061D01*
X165665000Y-80001939D01*
X165704774Y-80201898D01*
X165782795Y-80390256D01*
X165896063Y-80559774D01*
X166040226Y-80703937D01*
X166209744Y-80817205D01*
X166398102Y-80895226D01*
X166598061Y-80935000D01*
X166801939Y-80935000D01*
X167001898Y-80895226D01*
X167190256Y-80817205D01*
X167359774Y-80703937D01*
X167503937Y-80559774D01*
X167617205Y-80390256D01*
X167695226Y-80201898D01*
X167735000Y-80001939D01*
X167735000Y-79798061D01*
X167695226Y-79598102D01*
X167617205Y-79409744D01*
X167503937Y-79240226D01*
X167359774Y-79096063D01*
X167190256Y-78982795D01*
X167001898Y-78904774D01*
X166801939Y-78865000D01*
X166598061Y-78865000D01*
X166398102Y-78904774D01*
X166209744Y-78982795D01*
X166040226Y-79096063D01*
X165896063Y-79240226D01*
X165782795Y-79409744D01*
X165704774Y-79598102D01*
X165665000Y-79798061D01*
X162705000Y-79798061D01*
X162705000Y-79788061D01*
X162665226Y-79588102D01*
X162587205Y-79399744D01*
X162473937Y-79230226D01*
X162329774Y-79086063D01*
X162160256Y-78972795D01*
X161971898Y-78894774D01*
X161771939Y-78855000D01*
X161568061Y-78855000D01*
X161368102Y-78894774D01*
X161179744Y-78972795D01*
X161010226Y-79086063D01*
X160866063Y-79230226D01*
X160752795Y-79399744D01*
X160674774Y-79588102D01*
X160635000Y-79788061D01*
X155483011Y-79788061D01*
X155445226Y-79598102D01*
X155367205Y-79409744D01*
X155308899Y-79322483D01*
X155377205Y-79220256D01*
X155455226Y-79031898D01*
X155495000Y-78831939D01*
X155495000Y-78628061D01*
X155455226Y-78428102D01*
X155377205Y-78239744D01*
X155263937Y-78070226D01*
X155119774Y-77926063D01*
X154950256Y-77812795D01*
X154761898Y-77734774D01*
X154561939Y-77695000D01*
X154358061Y-77695000D01*
X154158102Y-77734774D01*
X153969744Y-77812795D01*
X153800226Y-77926063D01*
X153656063Y-78070226D01*
X153542795Y-78239744D01*
X153464774Y-78428102D01*
X153425000Y-78628061D01*
X153425000Y-78831939D01*
X153464774Y-79031898D01*
X153542795Y-79220256D01*
X153601101Y-79307517D01*
X153532795Y-79409744D01*
X153454774Y-79598102D01*
X153415000Y-79798061D01*
X133639133Y-79798061D01*
X133662553Y-75566890D01*
X138458524Y-75566890D01*
X138503175Y-75714099D01*
X138628359Y-75976920D01*
X138802412Y-76210269D01*
X139018645Y-76405178D01*
X139268748Y-76554157D01*
X139543109Y-76651481D01*
X139773000Y-76530814D01*
X139773000Y-75337000D01*
X140027000Y-75337000D01*
X140027000Y-76530814D01*
X140256891Y-76651481D01*
X140531252Y-76554157D01*
X140781355Y-76405178D01*
X140997588Y-76210269D01*
X141171641Y-75976920D01*
X141295495Y-75716890D01*
X185078524Y-75716890D01*
X185123175Y-75864099D01*
X185248359Y-76126920D01*
X185422412Y-76360269D01*
X185638645Y-76555178D01*
X185888748Y-76704157D01*
X186163109Y-76801481D01*
X186393000Y-76680814D01*
X186393000Y-75487000D01*
X186647000Y-75487000D01*
X186647000Y-76680814D01*
X186876891Y-76801481D01*
X187151252Y-76704157D01*
X187401355Y-76555178D01*
X187617588Y-76360269D01*
X187791641Y-76126920D01*
X187916825Y-75864099D01*
X187961476Y-75716890D01*
X187840155Y-75487000D01*
X186647000Y-75487000D01*
X186393000Y-75487000D01*
X185199845Y-75487000D01*
X185078524Y-75716890D01*
X141295495Y-75716890D01*
X141296825Y-75714099D01*
X141341476Y-75566890D01*
X141220155Y-75337000D01*
X140027000Y-75337000D01*
X139773000Y-75337000D01*
X138579845Y-75337000D01*
X138458524Y-75566890D01*
X133662553Y-75566890D01*
X133711411Y-66740000D01*
X138411928Y-66740000D01*
X138411928Y-68440000D01*
X138424188Y-68564482D01*
X138460498Y-68684180D01*
X138519463Y-68794494D01*
X138598815Y-68891185D01*
X138695506Y-68970537D01*
X138805820Y-69029502D01*
X138878380Y-69051513D01*
X138746525Y-69183368D01*
X138584010Y-69426589D01*
X138472068Y-69696842D01*
X138415000Y-69983740D01*
X138415000Y-70276260D01*
X138472068Y-70563158D01*
X138584010Y-70833411D01*
X138746525Y-71076632D01*
X138953368Y-71283475D01*
X139127760Y-71400000D01*
X138953368Y-71516525D01*
X138746525Y-71723368D01*
X138584010Y-71966589D01*
X138472068Y-72236842D01*
X138415000Y-72523740D01*
X138415000Y-72816260D01*
X138472068Y-73103158D01*
X138584010Y-73373411D01*
X138746525Y-73616632D01*
X138953368Y-73823475D01*
X139135534Y-73945195D01*
X139018645Y-74014822D01*
X138802412Y-74209731D01*
X138628359Y-74443080D01*
X138503175Y-74705901D01*
X138458524Y-74853110D01*
X138579845Y-75083000D01*
X139773000Y-75083000D01*
X139773000Y-75063000D01*
X140027000Y-75063000D01*
X140027000Y-75083000D01*
X141220155Y-75083000D01*
X141341476Y-74853110D01*
X141296825Y-74705901D01*
X141171641Y-74443080D01*
X140997588Y-74209731D01*
X140781355Y-74014822D01*
X140664466Y-73945195D01*
X140846632Y-73823475D01*
X141053475Y-73616632D01*
X141215990Y-73373411D01*
X141327932Y-73103158D01*
X141385000Y-72816260D01*
X141385000Y-72523740D01*
X141327932Y-72236842D01*
X141215990Y-71966589D01*
X141053475Y-71723368D01*
X140846632Y-71516525D01*
X140672240Y-71400000D01*
X140846632Y-71283475D01*
X141053475Y-71076632D01*
X141178178Y-70890000D01*
X155671928Y-70890000D01*
X155671928Y-72590000D01*
X155684188Y-72714482D01*
X155720498Y-72834180D01*
X155779463Y-72944494D01*
X155858815Y-73041185D01*
X155955506Y-73120537D01*
X156065820Y-73179502D01*
X156185518Y-73215812D01*
X156310000Y-73228072D01*
X158010000Y-73228072D01*
X158134482Y-73215812D01*
X158254180Y-73179502D01*
X158364494Y-73120537D01*
X158461185Y-73041185D01*
X158540537Y-72944494D01*
X158599502Y-72834180D01*
X158621513Y-72761620D01*
X158753368Y-72893475D01*
X158996589Y-73055990D01*
X159266842Y-73167932D01*
X159553740Y-73225000D01*
X159846260Y-73225000D01*
X160133158Y-73167932D01*
X160403411Y-73055990D01*
X160646632Y-72893475D01*
X160853475Y-72686632D01*
X160975195Y-72504466D01*
X161044822Y-72621355D01*
X161239731Y-72837588D01*
X161473080Y-73011641D01*
X161735901Y-73136825D01*
X161883110Y-73181476D01*
X162113000Y-73060155D01*
X162113000Y-71867000D01*
X162367000Y-71867000D01*
X162367000Y-73060155D01*
X162596890Y-73181476D01*
X162744099Y-73136825D01*
X163006920Y-73011641D01*
X163240269Y-72837588D01*
X163435178Y-72621355D01*
X163584157Y-72371252D01*
X163681481Y-72096891D01*
X163560814Y-71867000D01*
X162367000Y-71867000D01*
X162113000Y-71867000D01*
X162093000Y-71867000D01*
X162093000Y-71613000D01*
X162113000Y-71613000D01*
X162113000Y-70419845D01*
X162367000Y-70419845D01*
X162367000Y-71613000D01*
X163560814Y-71613000D01*
X163681481Y-71383109D01*
X163584157Y-71108748D01*
X163435178Y-70858645D01*
X163240269Y-70642412D01*
X163006920Y-70468359D01*
X162744099Y-70343175D01*
X162596890Y-70298524D01*
X162367000Y-70419845D01*
X162113000Y-70419845D01*
X161883110Y-70298524D01*
X161735901Y-70343175D01*
X161473080Y-70468359D01*
X161239731Y-70642412D01*
X161044822Y-70858645D01*
X160975195Y-70975534D01*
X160853475Y-70793368D01*
X160646632Y-70586525D01*
X160403411Y-70424010D01*
X160133158Y-70312068D01*
X159846260Y-70255000D01*
X159553740Y-70255000D01*
X159266842Y-70312068D01*
X158996589Y-70424010D01*
X158753368Y-70586525D01*
X158621513Y-70718380D01*
X158599502Y-70645820D01*
X158540537Y-70535506D01*
X158461185Y-70438815D01*
X158364494Y-70359463D01*
X158254180Y-70300498D01*
X158134482Y-70264188D01*
X158010000Y-70251928D01*
X156310000Y-70251928D01*
X156185518Y-70264188D01*
X156065820Y-70300498D01*
X155955506Y-70359463D01*
X155858815Y-70438815D01*
X155779463Y-70535506D01*
X155720498Y-70645820D01*
X155684188Y-70765518D01*
X155671928Y-70890000D01*
X141178178Y-70890000D01*
X141215990Y-70833411D01*
X141327932Y-70563158D01*
X141385000Y-70276260D01*
X141385000Y-69983740D01*
X141327932Y-69696842D01*
X141215990Y-69426589D01*
X141053475Y-69183368D01*
X140921620Y-69051513D01*
X140994180Y-69029502D01*
X141104494Y-68970537D01*
X141201185Y-68891185D01*
X141280537Y-68794494D01*
X141339502Y-68684180D01*
X141375812Y-68564482D01*
X141388072Y-68440000D01*
X141388072Y-66890000D01*
X185031928Y-66890000D01*
X185031928Y-68590000D01*
X185044188Y-68714482D01*
X185080498Y-68834180D01*
X185139463Y-68944494D01*
X185218815Y-69041185D01*
X185315506Y-69120537D01*
X185425820Y-69179502D01*
X185498380Y-69201513D01*
X185366525Y-69333368D01*
X185204010Y-69576589D01*
X185092068Y-69846842D01*
X185035000Y-70133740D01*
X185035000Y-70426260D01*
X185092068Y-70713158D01*
X185204010Y-70983411D01*
X185366525Y-71226632D01*
X185573368Y-71433475D01*
X185747760Y-71550000D01*
X185573368Y-71666525D01*
X185366525Y-71873368D01*
X185204010Y-72116589D01*
X185092068Y-72386842D01*
X185035000Y-72673740D01*
X185035000Y-72966260D01*
X185092068Y-73253158D01*
X185204010Y-73523411D01*
X185366525Y-73766632D01*
X185573368Y-73973475D01*
X185755534Y-74095195D01*
X185638645Y-74164822D01*
X185422412Y-74359731D01*
X185248359Y-74593080D01*
X185123175Y-74855901D01*
X185078524Y-75003110D01*
X185199845Y-75233000D01*
X186393000Y-75233000D01*
X186393000Y-75213000D01*
X186647000Y-75213000D01*
X186647000Y-75233000D01*
X187840155Y-75233000D01*
X187961476Y-75003110D01*
X187916825Y-74855901D01*
X187791641Y-74593080D01*
X187617588Y-74359731D01*
X187401355Y-74164822D01*
X187284466Y-74095195D01*
X187466632Y-73973475D01*
X187673475Y-73766632D01*
X187835990Y-73523411D01*
X187947932Y-73253158D01*
X188005000Y-72966260D01*
X188005000Y-72673740D01*
X187947932Y-72386842D01*
X187835990Y-72116589D01*
X187673475Y-71873368D01*
X187466632Y-71666525D01*
X187292240Y-71550000D01*
X187466632Y-71433475D01*
X187673475Y-71226632D01*
X187835990Y-70983411D01*
X187947932Y-70713158D01*
X188005000Y-70426260D01*
X188005000Y-70133740D01*
X187947932Y-69846842D01*
X187835990Y-69576589D01*
X187673475Y-69333368D01*
X187541620Y-69201513D01*
X187614180Y-69179502D01*
X187724494Y-69120537D01*
X187821185Y-69041185D01*
X187900537Y-68944494D01*
X187959502Y-68834180D01*
X187995812Y-68714482D01*
X188008072Y-68590000D01*
X188008072Y-66890000D01*
X187995812Y-66765518D01*
X187959502Y-66645820D01*
X187900537Y-66535506D01*
X187821185Y-66438815D01*
X187724494Y-66359463D01*
X187614180Y-66300498D01*
X187494482Y-66264188D01*
X187370000Y-66251928D01*
X185670000Y-66251928D01*
X185545518Y-66264188D01*
X185425820Y-66300498D01*
X185315506Y-66359463D01*
X185218815Y-66438815D01*
X185139463Y-66535506D01*
X185080498Y-66645820D01*
X185044188Y-66765518D01*
X185031928Y-66890000D01*
X141388072Y-66890000D01*
X141388072Y-66740000D01*
X141375812Y-66615518D01*
X141339502Y-66495820D01*
X141280537Y-66385506D01*
X141201185Y-66288815D01*
X141104494Y-66209463D01*
X140994180Y-66150498D01*
X140874482Y-66114188D01*
X140750000Y-66101928D01*
X139050000Y-66101928D01*
X138925518Y-66114188D01*
X138805820Y-66150498D01*
X138695506Y-66209463D01*
X138598815Y-66288815D01*
X138519463Y-66385506D01*
X138460498Y-66495820D01*
X138424188Y-66615518D01*
X138411928Y-66740000D01*
X133711411Y-66740000D01*
X133770812Y-56008061D01*
X157925000Y-56008061D01*
X157925000Y-56211939D01*
X157964774Y-56411898D01*
X158042795Y-56600256D01*
X158156063Y-56769774D01*
X158300226Y-56913937D01*
X158469744Y-57027205D01*
X158658102Y-57105226D01*
X158858061Y-57145000D01*
X159061939Y-57145000D01*
X159261898Y-57105226D01*
X159450256Y-57027205D01*
X159570000Y-56947195D01*
X159689744Y-57027205D01*
X159878102Y-57105226D01*
X160078061Y-57145000D01*
X160281939Y-57145000D01*
X160481898Y-57105226D01*
X160670256Y-57027205D01*
X160839774Y-56913937D01*
X160983937Y-56769774D01*
X161097205Y-56600256D01*
X161175226Y-56411898D01*
X161215000Y-56211939D01*
X161215000Y-56008061D01*
X161175226Y-55808102D01*
X161097205Y-55619744D01*
X160983937Y-55450226D01*
X160839774Y-55306063D01*
X160670256Y-55192795D01*
X160481898Y-55114774D01*
X160281939Y-55075000D01*
X160078061Y-55075000D01*
X159878102Y-55114774D01*
X159689744Y-55192795D01*
X159570000Y-55272805D01*
X159450256Y-55192795D01*
X159261898Y-55114774D01*
X159061939Y-55075000D01*
X158858061Y-55075000D01*
X158658102Y-55114774D01*
X158469744Y-55192795D01*
X158300226Y-55306063D01*
X158156063Y-55450226D01*
X158042795Y-55619744D01*
X157964774Y-55808102D01*
X157925000Y-56008061D01*
X133770812Y-56008061D01*
X133796993Y-51277980D01*
X166401626Y-51277980D01*
X166521514Y-51562836D01*
X166845210Y-51723699D01*
X167194069Y-51818322D01*
X167554684Y-51843067D01*
X167913198Y-51796985D01*
X168255833Y-51681846D01*
X168478486Y-51562836D01*
X168598374Y-51277980D01*
X167500000Y-50179605D01*
X166401626Y-51277980D01*
X133796993Y-51277980D01*
X133830282Y-45263945D01*
X135005000Y-45263945D01*
X135005000Y-46236055D01*
X135194650Y-47189486D01*
X135566660Y-48087599D01*
X136106735Y-48895879D01*
X136794121Y-49583265D01*
X137602401Y-50123340D01*
X138500514Y-50495350D01*
X139453945Y-50685000D01*
X140426055Y-50685000D01*
X141379486Y-50495350D01*
X142277599Y-50123340D01*
X142380350Y-50054684D01*
X165656933Y-50054684D01*
X165703015Y-50413198D01*
X165818154Y-50755833D01*
X165937164Y-50978486D01*
X166222020Y-51098374D01*
X167320395Y-50000000D01*
X167679605Y-50000000D01*
X168777980Y-51098374D01*
X169062836Y-50978486D01*
X169161928Y-50779088D01*
X169161928Y-51200000D01*
X169174188Y-51324482D01*
X169210498Y-51444180D01*
X169269463Y-51554494D01*
X169348815Y-51651185D01*
X169445506Y-51730537D01*
X169555820Y-51789502D01*
X169675518Y-51825812D01*
X169800000Y-51838072D01*
X172200000Y-51838072D01*
X172324482Y-51825812D01*
X172444180Y-51789502D01*
X172554494Y-51730537D01*
X172651185Y-51651185D01*
X172730537Y-51554494D01*
X172789502Y-51444180D01*
X172825812Y-51324482D01*
X172838072Y-51200000D01*
X172838072Y-48800000D01*
X172825812Y-48675518D01*
X172789502Y-48555820D01*
X172730537Y-48445506D01*
X172651185Y-48348815D01*
X172554494Y-48269463D01*
X172444180Y-48210498D01*
X172324482Y-48174188D01*
X172200000Y-48161928D01*
X169800000Y-48161928D01*
X169675518Y-48174188D01*
X169555820Y-48210498D01*
X169445506Y-48269463D01*
X169348815Y-48348815D01*
X169269463Y-48445506D01*
X169210498Y-48555820D01*
X169174188Y-48675518D01*
X169161928Y-48800000D01*
X169161928Y-49206903D01*
X169062836Y-49021514D01*
X168777980Y-48901626D01*
X167679605Y-50000000D01*
X167320395Y-50000000D01*
X166222020Y-48901626D01*
X165937164Y-49021514D01*
X165776301Y-49345210D01*
X165681678Y-49694069D01*
X165656933Y-50054684D01*
X142380350Y-50054684D01*
X143085879Y-49583265D01*
X143773265Y-48895879D01*
X143889433Y-48722020D01*
X166401626Y-48722020D01*
X167500000Y-49820395D01*
X168598374Y-48722020D01*
X168478486Y-48437164D01*
X168154790Y-48276301D01*
X167805931Y-48181678D01*
X167445316Y-48156933D01*
X167086802Y-48203015D01*
X166744167Y-48318154D01*
X166521514Y-48437164D01*
X166401626Y-48722020D01*
X143889433Y-48722020D01*
X144313340Y-48087599D01*
X144685350Y-47189486D01*
X144875000Y-46236055D01*
X144875000Y-45736890D01*
X148950048Y-45736890D01*
X148950048Y-45983110D01*
X148998083Y-46224598D01*
X149092307Y-46452074D01*
X149229099Y-46656798D01*
X149403202Y-46830901D01*
X149607926Y-46967693D01*
X149835402Y-47061917D01*
X150076890Y-47109952D01*
X150323110Y-47109952D01*
X150564598Y-47061917D01*
X150792074Y-46967693D01*
X150996798Y-46830901D01*
X151170901Y-46656798D01*
X151307693Y-46452074D01*
X151401917Y-46224598D01*
X151449952Y-45983110D01*
X151449952Y-45736890D01*
X151424094Y-45606890D01*
X176310048Y-45606890D01*
X176310048Y-45853110D01*
X176358083Y-46094598D01*
X176452307Y-46322074D01*
X176589099Y-46526798D01*
X176763202Y-46700901D01*
X176967926Y-46837693D01*
X177195402Y-46931917D01*
X177436890Y-46979952D01*
X177683110Y-46979952D01*
X177924598Y-46931917D01*
X178152074Y-46837693D01*
X178356798Y-46700901D01*
X178530901Y-46526798D01*
X178667693Y-46322074D01*
X178761917Y-46094598D01*
X178809952Y-45853110D01*
X178809952Y-45606890D01*
X178761917Y-45365402D01*
X178715750Y-45253945D01*
X181865000Y-45253945D01*
X181865000Y-46226055D01*
X182054650Y-47179486D01*
X182426660Y-48077599D01*
X182966735Y-48885879D01*
X183654121Y-49573265D01*
X184462401Y-50113340D01*
X185360514Y-50485350D01*
X186313945Y-50675000D01*
X187286055Y-50675000D01*
X188239486Y-50485350D01*
X189137599Y-50113340D01*
X189945879Y-49573265D01*
X190633265Y-48885879D01*
X191173340Y-48077599D01*
X191545350Y-47179486D01*
X191735000Y-46226055D01*
X191735000Y-45253945D01*
X191545350Y-44300514D01*
X191173340Y-43402401D01*
X190633265Y-42594121D01*
X189945879Y-41906735D01*
X189137599Y-41366660D01*
X188239486Y-40994650D01*
X187286055Y-40805000D01*
X186313945Y-40805000D01*
X185360514Y-40994650D01*
X184462401Y-41366660D01*
X183654121Y-41906735D01*
X182966735Y-42594121D01*
X182426660Y-43402401D01*
X182054650Y-44300514D01*
X181865000Y-45253945D01*
X178715750Y-45253945D01*
X178667693Y-45137926D01*
X178530901Y-44933202D01*
X178356798Y-44759099D01*
X178152074Y-44622307D01*
X177924598Y-44528083D01*
X177683110Y-44480048D01*
X177436890Y-44480048D01*
X177195402Y-44528083D01*
X176967926Y-44622307D01*
X176763202Y-44759099D01*
X176589099Y-44933202D01*
X176452307Y-45137926D01*
X176358083Y-45365402D01*
X176310048Y-45606890D01*
X151424094Y-45606890D01*
X151401917Y-45495402D01*
X151307693Y-45267926D01*
X151170901Y-45063202D01*
X150996798Y-44889099D01*
X150792074Y-44752307D01*
X150564598Y-44658083D01*
X150323110Y-44610048D01*
X150076890Y-44610048D01*
X149835402Y-44658083D01*
X149607926Y-44752307D01*
X149403202Y-44889099D01*
X149229099Y-45063202D01*
X149092307Y-45267926D01*
X148998083Y-45495402D01*
X148950048Y-45736890D01*
X144875000Y-45736890D01*
X144875000Y-45263945D01*
X144685350Y-44310514D01*
X144680192Y-44298061D01*
X156815000Y-44298061D01*
X156815000Y-44501939D01*
X156854774Y-44701898D01*
X156932795Y-44890256D01*
X157046063Y-45059774D01*
X157190226Y-45203937D01*
X157359744Y-45317205D01*
X157548102Y-45395226D01*
X157748061Y-45435000D01*
X157951939Y-45435000D01*
X158151898Y-45395226D01*
X158340256Y-45317205D01*
X158509774Y-45203937D01*
X158510000Y-45203711D01*
X158510226Y-45203937D01*
X158679744Y-45317205D01*
X158868102Y-45395226D01*
X159068061Y-45435000D01*
X159271939Y-45435000D01*
X159471898Y-45395226D01*
X159660256Y-45317205D01*
X159820000Y-45210468D01*
X159979744Y-45317205D01*
X160168102Y-45395226D01*
X160368061Y-45435000D01*
X160571939Y-45435000D01*
X160771898Y-45395226D01*
X160960256Y-45317205D01*
X161129774Y-45203937D01*
X161130000Y-45203711D01*
X161140226Y-45213937D01*
X161309744Y-45327205D01*
X161498102Y-45405226D01*
X161698061Y-45445000D01*
X161901939Y-45445000D01*
X162101898Y-45405226D01*
X162290256Y-45327205D01*
X162459774Y-45213937D01*
X162603937Y-45069774D01*
X162717205Y-44900256D01*
X162795226Y-44711898D01*
X162835000Y-44511939D01*
X162835000Y-44308061D01*
X162795226Y-44108102D01*
X162717205Y-43919744D01*
X162603937Y-43750226D01*
X162459774Y-43606063D01*
X162290256Y-43492795D01*
X162101898Y-43414774D01*
X161901939Y-43375000D01*
X161698061Y-43375000D01*
X161498102Y-43414774D01*
X161309744Y-43492795D01*
X161140226Y-43606063D01*
X161140000Y-43606289D01*
X161129774Y-43596063D01*
X160960256Y-43482795D01*
X160771898Y-43404774D01*
X160571939Y-43365000D01*
X160368061Y-43365000D01*
X160168102Y-43404774D01*
X159979744Y-43482795D01*
X159820000Y-43589532D01*
X159660256Y-43482795D01*
X159471898Y-43404774D01*
X159271939Y-43365000D01*
X159068061Y-43365000D01*
X158868102Y-43404774D01*
X158679744Y-43482795D01*
X158510226Y-43596063D01*
X158510000Y-43596289D01*
X158509774Y-43596063D01*
X158340256Y-43482795D01*
X158151898Y-43404774D01*
X157951939Y-43365000D01*
X157748061Y-43365000D01*
X157548102Y-43404774D01*
X157359744Y-43482795D01*
X157190226Y-43596063D01*
X157046063Y-43740226D01*
X156932795Y-43909744D01*
X156854774Y-44098102D01*
X156815000Y-44298061D01*
X144680192Y-44298061D01*
X144313340Y-43412401D01*
X143773265Y-42604121D01*
X143085879Y-41916735D01*
X142277599Y-41376660D01*
X141379486Y-41004650D01*
X140426055Y-40815000D01*
X139453945Y-40815000D01*
X138500514Y-41004650D01*
X137602401Y-41376660D01*
X136794121Y-41916735D01*
X136106735Y-42604121D01*
X135566660Y-43412401D01*
X135194650Y-44310514D01*
X135005000Y-45263945D01*
X133830282Y-45263945D01*
X133861219Y-39674776D01*
X193405798Y-39655224D01*
X193524201Y-141364109D01*
%TA.AperFunction,Conductor*%
D18*
G36*
X193524201Y-141364109D02*
G01*
X133298797Y-141285894D01*
X133331409Y-135393945D01*
X135035000Y-135393945D01*
X135035000Y-136366055D01*
X135224650Y-137319486D01*
X135596660Y-138217599D01*
X136136735Y-139025879D01*
X136824121Y-139713265D01*
X137632401Y-140253340D01*
X138530514Y-140625350D01*
X139483945Y-140815000D01*
X140456055Y-140815000D01*
X141409486Y-140625350D01*
X142307599Y-140253340D01*
X143115879Y-139713265D01*
X143803265Y-139025879D01*
X144343340Y-138217599D01*
X144715350Y-137319486D01*
X144905000Y-136366055D01*
X144905000Y-135776890D01*
X176080048Y-135776890D01*
X176080048Y-136023110D01*
X176128083Y-136264598D01*
X176222307Y-136492074D01*
X176359099Y-136696798D01*
X176533202Y-136870901D01*
X176737926Y-137007693D01*
X176965402Y-137101917D01*
X177206890Y-137149952D01*
X177453110Y-137149952D01*
X177694598Y-137101917D01*
X177922074Y-137007693D01*
X178126798Y-136870901D01*
X178300901Y-136696798D01*
X178437693Y-136492074D01*
X178531917Y-136264598D01*
X178579952Y-136023110D01*
X178579952Y-135776890D01*
X178531917Y-135535402D01*
X178498177Y-135453945D01*
X181545000Y-135453945D01*
X181545000Y-136426055D01*
X181734650Y-137379486D01*
X182106660Y-138277599D01*
X182646735Y-139085879D01*
X183334121Y-139773265D01*
X184142401Y-140313340D01*
X185040514Y-140685350D01*
X185993945Y-140875000D01*
X186966055Y-140875000D01*
X187919486Y-140685350D01*
X188817599Y-140313340D01*
X189625879Y-139773265D01*
X190313265Y-139085879D01*
X190853340Y-138277599D01*
X191225350Y-137379486D01*
X191415000Y-136426055D01*
X191415000Y-135453945D01*
X191225350Y-134500514D01*
X190853340Y-133602401D01*
X190313265Y-132794121D01*
X189625879Y-132106735D01*
X188817599Y-131566660D01*
X187919486Y-131194650D01*
X186966055Y-131005000D01*
X185993945Y-131005000D01*
X185040514Y-131194650D01*
X184142401Y-131566660D01*
X183334121Y-132106735D01*
X182646735Y-132794121D01*
X182106660Y-133602401D01*
X181734650Y-134500514D01*
X181545000Y-135453945D01*
X178498177Y-135453945D01*
X178437693Y-135307926D01*
X178300901Y-135103202D01*
X178126798Y-134929099D01*
X177922074Y-134792307D01*
X177694598Y-134698083D01*
X177453110Y-134650048D01*
X177206890Y-134650048D01*
X176965402Y-134698083D01*
X176737926Y-134792307D01*
X176533202Y-134929099D01*
X176359099Y-135103202D01*
X176222307Y-135307926D01*
X176128083Y-135535402D01*
X176080048Y-135776890D01*
X144905000Y-135776890D01*
X144905000Y-135393945D01*
X144715350Y-134440514D01*
X144343340Y-133542401D01*
X143803265Y-132734121D01*
X143115879Y-132046735D01*
X142307599Y-131506660D01*
X141409486Y-131134650D01*
X140456055Y-130945000D01*
X139483945Y-130945000D01*
X138530514Y-131134650D01*
X137632401Y-131506660D01*
X136824121Y-132046735D01*
X136136735Y-132734121D01*
X135596660Y-133542401D01*
X135224650Y-134440514D01*
X135035000Y-135393945D01*
X133331409Y-135393945D01*
X133428034Y-117936890D01*
X138568524Y-117936890D01*
X138613175Y-118084099D01*
X138738359Y-118346920D01*
X138912412Y-118580269D01*
X139128645Y-118775178D01*
X139378748Y-118924157D01*
X139653109Y-119021481D01*
X139883000Y-118900814D01*
X139883000Y-117707000D01*
X140137000Y-117707000D01*
X140137000Y-118900814D01*
X140366891Y-119021481D01*
X140641252Y-118924157D01*
X140891355Y-118775178D01*
X141107588Y-118580269D01*
X141281641Y-118346920D01*
X141406825Y-118084099D01*
X141451476Y-117936890D01*
X141330155Y-117707000D01*
X140137000Y-117707000D01*
X139883000Y-117707000D01*
X138689845Y-117707000D01*
X138568524Y-117936890D01*
X133428034Y-117936890D01*
X133476891Y-109110000D01*
X138521928Y-109110000D01*
X138521928Y-110810000D01*
X138534188Y-110934482D01*
X138570498Y-111054180D01*
X138629463Y-111164494D01*
X138708815Y-111261185D01*
X138805506Y-111340537D01*
X138915820Y-111399502D01*
X138988380Y-111421513D01*
X138856525Y-111553368D01*
X138694010Y-111796589D01*
X138582068Y-112066842D01*
X138525000Y-112353740D01*
X138525000Y-112646260D01*
X138582068Y-112933158D01*
X138694010Y-113203411D01*
X138856525Y-113446632D01*
X139063368Y-113653475D01*
X139237760Y-113770000D01*
X139063368Y-113886525D01*
X138856525Y-114093368D01*
X138694010Y-114336589D01*
X138582068Y-114606842D01*
X138525000Y-114893740D01*
X138525000Y-115186260D01*
X138582068Y-115473158D01*
X138694010Y-115743411D01*
X138856525Y-115986632D01*
X139063368Y-116193475D01*
X139245534Y-116315195D01*
X139128645Y-116384822D01*
X138912412Y-116579731D01*
X138738359Y-116813080D01*
X138613175Y-117075901D01*
X138568524Y-117223110D01*
X138689845Y-117453000D01*
X139883000Y-117453000D01*
X139883000Y-117433000D01*
X140137000Y-117433000D01*
X140137000Y-117453000D01*
X141330155Y-117453000D01*
X141451476Y-117223110D01*
X141406825Y-117075901D01*
X141281641Y-116813080D01*
X141174919Y-116670000D01*
X169031928Y-116670000D01*
X169031928Y-118370000D01*
X169044188Y-118494482D01*
X169080498Y-118614180D01*
X169139463Y-118724494D01*
X169218815Y-118821185D01*
X169315506Y-118900537D01*
X169425820Y-118959502D01*
X169545518Y-118995812D01*
X169670000Y-119008072D01*
X171370000Y-119008072D01*
X171494482Y-118995812D01*
X171614180Y-118959502D01*
X171724494Y-118900537D01*
X171821185Y-118821185D01*
X171900537Y-118724494D01*
X171959502Y-118614180D01*
X171981513Y-118541620D01*
X172113368Y-118673475D01*
X172356589Y-118835990D01*
X172626842Y-118947932D01*
X172913740Y-119005000D01*
X173206260Y-119005000D01*
X173493158Y-118947932D01*
X173763411Y-118835990D01*
X174006632Y-118673475D01*
X174213475Y-118466632D01*
X174375990Y-118223411D01*
X174487932Y-117953158D01*
X174493157Y-117926890D01*
X184978524Y-117926890D01*
X185023175Y-118074099D01*
X185148359Y-118336920D01*
X185322412Y-118570269D01*
X185538645Y-118765178D01*
X185788748Y-118914157D01*
X186063109Y-119011481D01*
X186293000Y-118890814D01*
X186293000Y-117697000D01*
X186547000Y-117697000D01*
X186547000Y-118890814D01*
X186776891Y-119011481D01*
X187051252Y-118914157D01*
X187301355Y-118765178D01*
X187517588Y-118570269D01*
X187691641Y-118336920D01*
X187816825Y-118074099D01*
X187861476Y-117926890D01*
X187740155Y-117697000D01*
X186547000Y-117697000D01*
X186293000Y-117697000D01*
X185099845Y-117697000D01*
X184978524Y-117926890D01*
X174493157Y-117926890D01*
X174545000Y-117666260D01*
X174545000Y-117373740D01*
X174487932Y-117086842D01*
X174375990Y-116816589D01*
X174213475Y-116573368D01*
X174006632Y-116366525D01*
X173763411Y-116204010D01*
X173493158Y-116092068D01*
X173206260Y-116035000D01*
X172913740Y-116035000D01*
X172626842Y-116092068D01*
X172356589Y-116204010D01*
X172113368Y-116366525D01*
X171981513Y-116498380D01*
X171959502Y-116425820D01*
X171900537Y-116315506D01*
X171821185Y-116218815D01*
X171724494Y-116139463D01*
X171614180Y-116080498D01*
X171494482Y-116044188D01*
X171370000Y-116031928D01*
X169670000Y-116031928D01*
X169545518Y-116044188D01*
X169425820Y-116080498D01*
X169315506Y-116139463D01*
X169218815Y-116218815D01*
X169139463Y-116315506D01*
X169080498Y-116425820D01*
X169044188Y-116545518D01*
X169031928Y-116670000D01*
X141174919Y-116670000D01*
X141107588Y-116579731D01*
X140891355Y-116384822D01*
X140774466Y-116315195D01*
X140956632Y-116193475D01*
X141163475Y-115986632D01*
X141325990Y-115743411D01*
X141437932Y-115473158D01*
X141495000Y-115186260D01*
X141495000Y-114893740D01*
X141437932Y-114606842D01*
X141325990Y-114336589D01*
X141163475Y-114093368D01*
X140956632Y-113886525D01*
X140782240Y-113770000D01*
X140956632Y-113653475D01*
X141163475Y-113446632D01*
X141325990Y-113203411D01*
X141437932Y-112933158D01*
X141495000Y-112646260D01*
X141495000Y-112353740D01*
X141437932Y-112066842D01*
X141325990Y-111796589D01*
X141163475Y-111553368D01*
X141031620Y-111421513D01*
X141104180Y-111399502D01*
X141214494Y-111340537D01*
X141311185Y-111261185D01*
X141390537Y-111164494D01*
X141449502Y-111054180D01*
X141485812Y-110934482D01*
X141498072Y-110810000D01*
X141498072Y-109110000D01*
X141497088Y-109100000D01*
X184931928Y-109100000D01*
X184931928Y-110800000D01*
X184944188Y-110924482D01*
X184980498Y-111044180D01*
X185039463Y-111154494D01*
X185118815Y-111251185D01*
X185215506Y-111330537D01*
X185325820Y-111389502D01*
X185398380Y-111411513D01*
X185266525Y-111543368D01*
X185104010Y-111786589D01*
X184992068Y-112056842D01*
X184935000Y-112343740D01*
X184935000Y-112636260D01*
X184992068Y-112923158D01*
X185104010Y-113193411D01*
X185266525Y-113436632D01*
X185473368Y-113643475D01*
X185647760Y-113760000D01*
X185473368Y-113876525D01*
X185266525Y-114083368D01*
X185104010Y-114326589D01*
X184992068Y-114596842D01*
X184935000Y-114883740D01*
X184935000Y-115176260D01*
X184992068Y-115463158D01*
X185104010Y-115733411D01*
X185266525Y-115976632D01*
X185473368Y-116183475D01*
X185655534Y-116305195D01*
X185538645Y-116374822D01*
X185322412Y-116569731D01*
X185148359Y-116803080D01*
X185023175Y-117065901D01*
X184978524Y-117213110D01*
X185099845Y-117443000D01*
X186293000Y-117443000D01*
X186293000Y-117423000D01*
X186547000Y-117423000D01*
X186547000Y-117443000D01*
X187740155Y-117443000D01*
X187861476Y-117213110D01*
X187816825Y-117065901D01*
X187691641Y-116803080D01*
X187517588Y-116569731D01*
X187301355Y-116374822D01*
X187184466Y-116305195D01*
X187366632Y-116183475D01*
X187573475Y-115976632D01*
X187735990Y-115733411D01*
X187847932Y-115463158D01*
X187905000Y-115176260D01*
X187905000Y-114883740D01*
X187847932Y-114596842D01*
X187735990Y-114326589D01*
X187573475Y-114083368D01*
X187366632Y-113876525D01*
X187192240Y-113760000D01*
X187366632Y-113643475D01*
X187573475Y-113436632D01*
X187735990Y-113193411D01*
X187847932Y-112923158D01*
X187905000Y-112636260D01*
X187905000Y-112343740D01*
X187847932Y-112056842D01*
X187735990Y-111786589D01*
X187573475Y-111543368D01*
X187441620Y-111411513D01*
X187514180Y-111389502D01*
X187624494Y-111330537D01*
X187721185Y-111251185D01*
X187800537Y-111154494D01*
X187859502Y-111044180D01*
X187895812Y-110924482D01*
X187908072Y-110800000D01*
X187908072Y-109100000D01*
X187895812Y-108975518D01*
X187859502Y-108855820D01*
X187800537Y-108745506D01*
X187721185Y-108648815D01*
X187624494Y-108569463D01*
X187514180Y-108510498D01*
X187394482Y-108474188D01*
X187270000Y-108461928D01*
X185570000Y-108461928D01*
X185445518Y-108474188D01*
X185325820Y-108510498D01*
X185215506Y-108569463D01*
X185118815Y-108648815D01*
X185039463Y-108745506D01*
X184980498Y-108855820D01*
X184944188Y-108975518D01*
X184931928Y-109100000D01*
X141497088Y-109100000D01*
X141485812Y-108985518D01*
X141449502Y-108865820D01*
X141390537Y-108755506D01*
X141311185Y-108658815D01*
X141214494Y-108579463D01*
X141104180Y-108520498D01*
X140984482Y-108484188D01*
X140860000Y-108471928D01*
X139160000Y-108471928D01*
X139035518Y-108484188D01*
X138915820Y-108520498D01*
X138805506Y-108579463D01*
X138708815Y-108658815D01*
X138629463Y-108755506D01*
X138570498Y-108865820D01*
X138534188Y-108985518D01*
X138521928Y-109110000D01*
X133476891Y-109110000D01*
X133498820Y-105148061D01*
X148395000Y-105148061D01*
X148395000Y-105351939D01*
X148434774Y-105551898D01*
X148512795Y-105740256D01*
X148626063Y-105909774D01*
X148770226Y-106053937D01*
X148939744Y-106167205D01*
X149128102Y-106245226D01*
X149328061Y-106285000D01*
X149531939Y-106285000D01*
X149731898Y-106245226D01*
X149920256Y-106167205D01*
X150089774Y-106053937D01*
X150233937Y-105909774D01*
X150347205Y-105740256D01*
X150425226Y-105551898D01*
X150443891Y-105458061D01*
X157595000Y-105458061D01*
X157595000Y-105661939D01*
X157634774Y-105861898D01*
X157712795Y-106050256D01*
X157826063Y-106219774D01*
X157970226Y-106363937D01*
X158139744Y-106477205D01*
X158328102Y-106555226D01*
X158528061Y-106595000D01*
X158731939Y-106595000D01*
X158931898Y-106555226D01*
X159120256Y-106477205D01*
X159289774Y-106363937D01*
X159433937Y-106219774D01*
X159547205Y-106050256D01*
X159625226Y-105861898D01*
X159665000Y-105661939D01*
X159665000Y-105458061D01*
X159625226Y-105258102D01*
X159547205Y-105069744D01*
X159433937Y-104900226D01*
X159311772Y-104778061D01*
X160645000Y-104778061D01*
X160645000Y-104981939D01*
X160684774Y-105181898D01*
X160762795Y-105370256D01*
X160876063Y-105539774D01*
X161020226Y-105683937D01*
X161189744Y-105797205D01*
X161378102Y-105875226D01*
X161578061Y-105915000D01*
X161781939Y-105915000D01*
X161981898Y-105875226D01*
X162170256Y-105797205D01*
X162339774Y-105683937D01*
X162483937Y-105539774D01*
X162545217Y-105448061D01*
X164605000Y-105448061D01*
X164605000Y-105651939D01*
X164644774Y-105851898D01*
X164722795Y-106040256D01*
X164836063Y-106209774D01*
X164980226Y-106353937D01*
X165149744Y-106467205D01*
X165338102Y-106545226D01*
X165538061Y-106585000D01*
X165741939Y-106585000D01*
X165941898Y-106545226D01*
X166130256Y-106467205D01*
X166299774Y-106353937D01*
X166443937Y-106209774D01*
X166557205Y-106040256D01*
X166635226Y-105851898D01*
X166675000Y-105651939D01*
X166675000Y-105458061D01*
X171935000Y-105458061D01*
X171935000Y-105661939D01*
X171974774Y-105861898D01*
X172052795Y-106050256D01*
X172166063Y-106219774D01*
X172310226Y-106363937D01*
X172479744Y-106477205D01*
X172668102Y-106555226D01*
X172868061Y-106595000D01*
X173071939Y-106595000D01*
X173271898Y-106555226D01*
X173460256Y-106477205D01*
X173629774Y-106363937D01*
X173773937Y-106219774D01*
X173887205Y-106050256D01*
X173965226Y-105861898D01*
X174005000Y-105661939D01*
X174005000Y-105458061D01*
X173965226Y-105258102D01*
X173887205Y-105069744D01*
X173773937Y-104900226D01*
X173629774Y-104756063D01*
X173460256Y-104642795D01*
X173271898Y-104564774D01*
X173071939Y-104525000D01*
X172868061Y-104525000D01*
X172668102Y-104564774D01*
X172479744Y-104642795D01*
X172310226Y-104756063D01*
X172166063Y-104900226D01*
X172052795Y-105069744D01*
X171974774Y-105258102D01*
X171935000Y-105458061D01*
X166675000Y-105458061D01*
X166675000Y-105448061D01*
X166635226Y-105248102D01*
X166557205Y-105059744D01*
X166443937Y-104890226D01*
X166299774Y-104746063D01*
X166130256Y-104632795D01*
X165941898Y-104554774D01*
X165741939Y-104515000D01*
X165538061Y-104515000D01*
X165338102Y-104554774D01*
X165149744Y-104632795D01*
X164980226Y-104746063D01*
X164836063Y-104890226D01*
X164722795Y-105059744D01*
X164644774Y-105248102D01*
X164605000Y-105448061D01*
X162545217Y-105448061D01*
X162597205Y-105370256D01*
X162675226Y-105181898D01*
X162715000Y-104981939D01*
X162715000Y-104778061D01*
X162675226Y-104578102D01*
X162597205Y-104389744D01*
X162483937Y-104220226D01*
X162339774Y-104076063D01*
X162170256Y-103962795D01*
X161981898Y-103884774D01*
X161781939Y-103845000D01*
X161578061Y-103845000D01*
X161378102Y-103884774D01*
X161189744Y-103962795D01*
X161020226Y-104076063D01*
X160876063Y-104220226D01*
X160762795Y-104389744D01*
X160684774Y-104578102D01*
X160645000Y-104778061D01*
X159311772Y-104778061D01*
X159289774Y-104756063D01*
X159120256Y-104642795D01*
X158931898Y-104564774D01*
X158731939Y-104525000D01*
X158528061Y-104525000D01*
X158328102Y-104564774D01*
X158139744Y-104642795D01*
X157970226Y-104756063D01*
X157826063Y-104900226D01*
X157712795Y-105069744D01*
X157634774Y-105258102D01*
X157595000Y-105458061D01*
X150443891Y-105458061D01*
X150465000Y-105351939D01*
X150465000Y-105148061D01*
X150425226Y-104948102D01*
X150347205Y-104759744D01*
X150233937Y-104590226D01*
X150089774Y-104446063D01*
X149920256Y-104332795D01*
X149731898Y-104254774D01*
X149531939Y-104215000D01*
X149328061Y-104215000D01*
X149128102Y-104254774D01*
X148939744Y-104332795D01*
X148770226Y-104446063D01*
X148626063Y-104590226D01*
X148512795Y-104759744D01*
X148434774Y-104948102D01*
X148395000Y-105148061D01*
X133498820Y-105148061D01*
X133518856Y-101528061D01*
X171735000Y-101528061D01*
X171735000Y-101731939D01*
X171774774Y-101931898D01*
X171852795Y-102120256D01*
X171966063Y-102289774D01*
X172110226Y-102433937D01*
X172279744Y-102547205D01*
X172468102Y-102625226D01*
X172668061Y-102665000D01*
X172871939Y-102665000D01*
X173071898Y-102625226D01*
X173260256Y-102547205D01*
X173429774Y-102433937D01*
X173573937Y-102289774D01*
X173687205Y-102120256D01*
X173765226Y-101931898D01*
X173805000Y-101731939D01*
X173805000Y-101528061D01*
X173765226Y-101328102D01*
X173687205Y-101139744D01*
X173573937Y-100970226D01*
X173429774Y-100826063D01*
X173260256Y-100712795D01*
X173071898Y-100634774D01*
X172871939Y-100595000D01*
X172668061Y-100595000D01*
X172468102Y-100634774D01*
X172279744Y-100712795D01*
X172110226Y-100826063D01*
X171966063Y-100970226D01*
X171852795Y-101139744D01*
X171774774Y-101328102D01*
X171735000Y-101528061D01*
X133518856Y-101528061D01*
X133534022Y-98788061D01*
X149285000Y-98788061D01*
X149285000Y-98991939D01*
X149324774Y-99191898D01*
X149402795Y-99380256D01*
X149516063Y-99549774D01*
X149660226Y-99693937D01*
X149829744Y-99807205D01*
X150018102Y-99885226D01*
X150218061Y-99925000D01*
X150421939Y-99925000D01*
X150621898Y-99885226D01*
X150810256Y-99807205D01*
X150979774Y-99693937D01*
X151123937Y-99549774D01*
X151218626Y-99408061D01*
X175735000Y-99408061D01*
X175735000Y-99611939D01*
X175774774Y-99811898D01*
X175852795Y-100000256D01*
X175966063Y-100169774D01*
X176110226Y-100313937D01*
X176279744Y-100427205D01*
X176468102Y-100505226D01*
X176668061Y-100545000D01*
X176871939Y-100545000D01*
X177071898Y-100505226D01*
X177260256Y-100427205D01*
X177429774Y-100313937D01*
X177573937Y-100169774D01*
X177687205Y-100000256D01*
X177765226Y-99811898D01*
X177805000Y-99611939D01*
X177805000Y-99408061D01*
X177765226Y-99208102D01*
X177687205Y-99019744D01*
X177573937Y-98850226D01*
X177429774Y-98706063D01*
X177260256Y-98592795D01*
X177071898Y-98514774D01*
X176871939Y-98475000D01*
X176668061Y-98475000D01*
X176468102Y-98514774D01*
X176279744Y-98592795D01*
X176110226Y-98706063D01*
X175966063Y-98850226D01*
X175852795Y-99019744D01*
X175774774Y-99208102D01*
X175735000Y-99408061D01*
X151218626Y-99408061D01*
X151237205Y-99380256D01*
X151315226Y-99191898D01*
X151355000Y-98991939D01*
X151355000Y-98788061D01*
X151315226Y-98588102D01*
X151237205Y-98399744D01*
X151123937Y-98230226D01*
X150979774Y-98086063D01*
X150810256Y-97972795D01*
X150621898Y-97894774D01*
X150421939Y-97855000D01*
X150218061Y-97855000D01*
X150018102Y-97894774D01*
X149829744Y-97972795D01*
X149660226Y-98086063D01*
X149516063Y-98230226D01*
X149402795Y-98399744D01*
X149324774Y-98588102D01*
X149285000Y-98788061D01*
X133534022Y-98788061D01*
X133557989Y-94458061D01*
X150105000Y-94458061D01*
X150105000Y-94661939D01*
X150144774Y-94861898D01*
X150222795Y-95050256D01*
X150336063Y-95219774D01*
X150480226Y-95363937D01*
X150649744Y-95477205D01*
X150838102Y-95555226D01*
X151038061Y-95595000D01*
X151241939Y-95595000D01*
X151441898Y-95555226D01*
X151630256Y-95477205D01*
X151799774Y-95363937D01*
X151943937Y-95219774D01*
X152057205Y-95050256D01*
X152135226Y-94861898D01*
X152175000Y-94661939D01*
X152175000Y-94458061D01*
X152135226Y-94258102D01*
X152057205Y-94069744D01*
X151943937Y-93900226D01*
X151799774Y-93756063D01*
X151630256Y-93642795D01*
X151441898Y-93564774D01*
X151241939Y-93525000D01*
X151038061Y-93525000D01*
X150838102Y-93564774D01*
X150649744Y-93642795D01*
X150480226Y-93756063D01*
X150336063Y-93900226D01*
X150222795Y-94069744D01*
X150144774Y-94258102D01*
X150105000Y-94458061D01*
X133557989Y-94458061D01*
X133563419Y-93476890D01*
X181088524Y-93476890D01*
X181133175Y-93624099D01*
X181258359Y-93886920D01*
X181432412Y-94120269D01*
X181648645Y-94315178D01*
X181898748Y-94464157D01*
X182173109Y-94561481D01*
X182403000Y-94440814D01*
X182403000Y-93247000D01*
X182657000Y-93247000D01*
X182657000Y-94440814D01*
X182886891Y-94561481D01*
X183161252Y-94464157D01*
X183411355Y-94315178D01*
X183627588Y-94120269D01*
X183801641Y-93886920D01*
X183926825Y-93624099D01*
X183971476Y-93476890D01*
X183850155Y-93247000D01*
X182657000Y-93247000D01*
X182403000Y-93247000D01*
X181209845Y-93247000D01*
X181088524Y-93476890D01*
X133563419Y-93476890D01*
X133574926Y-91398061D01*
X175725000Y-91398061D01*
X175725000Y-91601939D01*
X175764774Y-91801898D01*
X175842795Y-91990256D01*
X175956063Y-92159774D01*
X176100226Y-92303937D01*
X176269744Y-92417205D01*
X176458102Y-92495226D01*
X176658061Y-92535000D01*
X176861939Y-92535000D01*
X177061898Y-92495226D01*
X177250256Y-92417205D01*
X177419774Y-92303937D01*
X177563937Y-92159774D01*
X177677205Y-91990256D01*
X177755226Y-91801898D01*
X177795000Y-91601939D01*
X177795000Y-91398061D01*
X177755226Y-91198102D01*
X177677205Y-91009744D01*
X177563937Y-90840226D01*
X177419774Y-90696063D01*
X177250256Y-90582795D01*
X177061898Y-90504774D01*
X176861939Y-90465000D01*
X176658061Y-90465000D01*
X176458102Y-90504774D01*
X176269744Y-90582795D01*
X176100226Y-90696063D01*
X175956063Y-90840226D01*
X175842795Y-91009744D01*
X175764774Y-91198102D01*
X175725000Y-91398061D01*
X133574926Y-91398061D01*
X133588986Y-88858061D01*
X144105000Y-88858061D01*
X144105000Y-89061939D01*
X144144774Y-89261898D01*
X144222795Y-89450256D01*
X144336063Y-89619774D01*
X144480226Y-89763937D01*
X144649744Y-89877205D01*
X144838102Y-89955226D01*
X145038061Y-89995000D01*
X145241939Y-89995000D01*
X145441898Y-89955226D01*
X145630256Y-89877205D01*
X145718771Y-89818061D01*
X149305000Y-89818061D01*
X149305000Y-90021939D01*
X149344774Y-90221898D01*
X149422795Y-90410256D01*
X149536063Y-90579774D01*
X149680226Y-90723937D01*
X149849744Y-90837205D01*
X150038102Y-90915226D01*
X150238061Y-90955000D01*
X150441939Y-90955000D01*
X150641898Y-90915226D01*
X150830256Y-90837205D01*
X150999774Y-90723937D01*
X151143937Y-90579774D01*
X151257205Y-90410256D01*
X151335226Y-90221898D01*
X151375000Y-90021939D01*
X151375000Y-89818061D01*
X151335226Y-89618102D01*
X151257205Y-89429744D01*
X151143937Y-89260226D01*
X150999774Y-89116063D01*
X150830256Y-89002795D01*
X150641898Y-88924774D01*
X150441939Y-88885000D01*
X150238061Y-88885000D01*
X150038102Y-88924774D01*
X149849744Y-89002795D01*
X149680226Y-89116063D01*
X149536063Y-89260226D01*
X149422795Y-89429744D01*
X149344774Y-89618102D01*
X149305000Y-89818061D01*
X145718771Y-89818061D01*
X145799774Y-89763937D01*
X145943937Y-89619774D01*
X146057205Y-89450256D01*
X146135226Y-89261898D01*
X146175000Y-89061939D01*
X146175000Y-88858061D01*
X146135226Y-88658102D01*
X146057205Y-88469744D01*
X145943937Y-88300226D01*
X145799774Y-88156063D01*
X145630256Y-88042795D01*
X145441898Y-87964774D01*
X145241939Y-87925000D01*
X145038061Y-87925000D01*
X144838102Y-87964774D01*
X144649744Y-88042795D01*
X144480226Y-88156063D01*
X144336063Y-88300226D01*
X144222795Y-88469744D01*
X144144774Y-88658102D01*
X144105000Y-88858061D01*
X133588986Y-88858061D01*
X133599890Y-86888061D01*
X147855000Y-86888061D01*
X147855000Y-87091939D01*
X147894774Y-87291898D01*
X147972795Y-87480256D01*
X148086063Y-87649774D01*
X148230226Y-87793937D01*
X148399744Y-87907205D01*
X148588102Y-87985226D01*
X148788061Y-88025000D01*
X148991939Y-88025000D01*
X149191898Y-87985226D01*
X149380256Y-87907205D01*
X149450000Y-87860604D01*
X149519744Y-87907205D01*
X149708102Y-87985226D01*
X149908061Y-88025000D01*
X150111939Y-88025000D01*
X150311898Y-87985226D01*
X150500256Y-87907205D01*
X150609932Y-87833922D01*
X150659744Y-87867205D01*
X150848102Y-87945226D01*
X151048061Y-87985000D01*
X151251939Y-87985000D01*
X151451898Y-87945226D01*
X151640256Y-87867205D01*
X151809774Y-87753937D01*
X151953937Y-87609774D01*
X152067205Y-87440256D01*
X152145226Y-87251898D01*
X152185000Y-87051939D01*
X152185000Y-86848061D01*
X152145226Y-86648102D01*
X152067205Y-86459744D01*
X151953937Y-86290226D01*
X151809774Y-86146063D01*
X151640256Y-86032795D01*
X151451898Y-85954774D01*
X151251939Y-85915000D01*
X151048061Y-85915000D01*
X150848102Y-85954774D01*
X150659744Y-86032795D01*
X150550068Y-86106078D01*
X150500256Y-86072795D01*
X150311898Y-85994774D01*
X150111939Y-85955000D01*
X149908061Y-85955000D01*
X149708102Y-85994774D01*
X149519744Y-86072795D01*
X149450000Y-86119396D01*
X149380256Y-86072795D01*
X149191898Y-85994774D01*
X148991939Y-85955000D01*
X148788061Y-85955000D01*
X148588102Y-85994774D01*
X148399744Y-86072795D01*
X148230226Y-86186063D01*
X148086063Y-86330226D01*
X147972795Y-86499744D01*
X147894774Y-86688102D01*
X147855000Y-86888061D01*
X133599890Y-86888061D01*
X133610904Y-84898061D01*
X153615000Y-84898061D01*
X153615000Y-85101939D01*
X153654774Y-85301898D01*
X153732795Y-85490256D01*
X153846063Y-85659774D01*
X153990226Y-85803937D01*
X154159744Y-85917205D01*
X154348102Y-85995226D01*
X154548061Y-86035000D01*
X154751939Y-86035000D01*
X154951898Y-85995226D01*
X155140256Y-85917205D01*
X155309774Y-85803937D01*
X155453937Y-85659774D01*
X155567205Y-85490256D01*
X155613678Y-85378061D01*
X172275000Y-85378061D01*
X172275000Y-85581939D01*
X172314774Y-85781898D01*
X172392795Y-85970256D01*
X172506063Y-86139774D01*
X172650226Y-86283937D01*
X172819744Y-86397205D01*
X173008102Y-86475226D01*
X173208061Y-86515000D01*
X173411939Y-86515000D01*
X173611898Y-86475226D01*
X173800256Y-86397205D01*
X173969774Y-86283937D01*
X174113937Y-86139774D01*
X174227205Y-85970256D01*
X174305226Y-85781898D01*
X174345000Y-85581939D01*
X174345000Y-85378061D01*
X174305226Y-85178102D01*
X174227205Y-84989744D01*
X174113937Y-84820226D01*
X173969774Y-84676063D01*
X173800256Y-84562795D01*
X173611898Y-84484774D01*
X173411939Y-84445000D01*
X173208061Y-84445000D01*
X173008102Y-84484774D01*
X172819744Y-84562795D01*
X172650226Y-84676063D01*
X172506063Y-84820226D01*
X172392795Y-84989744D01*
X172314774Y-85178102D01*
X172275000Y-85378061D01*
X155613678Y-85378061D01*
X155645226Y-85301898D01*
X155685000Y-85101939D01*
X155685000Y-84898061D01*
X155645226Y-84698102D01*
X155567205Y-84509744D01*
X155494065Y-84400281D01*
X155568061Y-84415000D01*
X155771939Y-84415000D01*
X155971898Y-84375226D01*
X156160256Y-84297205D01*
X156329774Y-84183937D01*
X156355650Y-84158061D01*
X176565000Y-84158061D01*
X176565000Y-84361939D01*
X176604774Y-84561898D01*
X176682795Y-84750256D01*
X176796063Y-84919774D01*
X176940226Y-85063937D01*
X177109744Y-85177205D01*
X177298102Y-85255226D01*
X177498061Y-85295000D01*
X177701939Y-85295000D01*
X177901898Y-85255226D01*
X178090256Y-85177205D01*
X178259774Y-85063937D01*
X178403937Y-84919774D01*
X178517205Y-84750256D01*
X178558732Y-84650000D01*
X181041928Y-84650000D01*
X181041928Y-86350000D01*
X181054188Y-86474482D01*
X181090498Y-86594180D01*
X181149463Y-86704494D01*
X181228815Y-86801185D01*
X181325506Y-86880537D01*
X181435820Y-86939502D01*
X181508380Y-86961513D01*
X181376525Y-87093368D01*
X181214010Y-87336589D01*
X181102068Y-87606842D01*
X181045000Y-87893740D01*
X181045000Y-88186260D01*
X181102068Y-88473158D01*
X181214010Y-88743411D01*
X181376525Y-88986632D01*
X181583368Y-89193475D01*
X181757760Y-89310000D01*
X181583368Y-89426525D01*
X181376525Y-89633368D01*
X181214010Y-89876589D01*
X181102068Y-90146842D01*
X181045000Y-90433740D01*
X181045000Y-90726260D01*
X181102068Y-91013158D01*
X181214010Y-91283411D01*
X181376525Y-91526632D01*
X181583368Y-91733475D01*
X181765534Y-91855195D01*
X181648645Y-91924822D01*
X181432412Y-92119731D01*
X181258359Y-92353080D01*
X181133175Y-92615901D01*
X181088524Y-92763110D01*
X181209845Y-92993000D01*
X182403000Y-92993000D01*
X182403000Y-92973000D01*
X182657000Y-92973000D01*
X182657000Y-92993000D01*
X183850155Y-92993000D01*
X183971476Y-92763110D01*
X183926825Y-92615901D01*
X183801641Y-92353080D01*
X183627588Y-92119731D01*
X183411355Y-91924822D01*
X183294466Y-91855195D01*
X183476632Y-91733475D01*
X183683475Y-91526632D01*
X183845990Y-91283411D01*
X183957932Y-91013158D01*
X184015000Y-90726260D01*
X184015000Y-90433740D01*
X183957932Y-90146842D01*
X183845990Y-89876589D01*
X183683475Y-89633368D01*
X183476632Y-89426525D01*
X183302240Y-89310000D01*
X183476632Y-89193475D01*
X183683475Y-88986632D01*
X183845990Y-88743411D01*
X183957932Y-88473158D01*
X184015000Y-88186260D01*
X184015000Y-87893740D01*
X183957932Y-87606842D01*
X183845990Y-87336589D01*
X183683475Y-87093368D01*
X183551620Y-86961513D01*
X183624180Y-86939502D01*
X183734494Y-86880537D01*
X183831185Y-86801185D01*
X183910537Y-86704494D01*
X183969502Y-86594180D01*
X184005812Y-86474482D01*
X184018072Y-86350000D01*
X184018072Y-84650000D01*
X184005812Y-84525518D01*
X183969502Y-84405820D01*
X183910537Y-84295506D01*
X183831185Y-84198815D01*
X183734494Y-84119463D01*
X183624180Y-84060498D01*
X183504482Y-84024188D01*
X183380000Y-84011928D01*
X181680000Y-84011928D01*
X181555518Y-84024188D01*
X181435820Y-84060498D01*
X181325506Y-84119463D01*
X181228815Y-84198815D01*
X181149463Y-84295506D01*
X181090498Y-84405820D01*
X181054188Y-84525518D01*
X181041928Y-84650000D01*
X178558732Y-84650000D01*
X178595226Y-84561898D01*
X178635000Y-84361939D01*
X178635000Y-84158061D01*
X178595226Y-83958102D01*
X178517205Y-83769744D01*
X178403937Y-83600226D01*
X178259774Y-83456063D01*
X178090256Y-83342795D01*
X177901898Y-83264774D01*
X177701939Y-83225000D01*
X177498061Y-83225000D01*
X177298102Y-83264774D01*
X177109744Y-83342795D01*
X176940226Y-83456063D01*
X176796063Y-83600226D01*
X176682795Y-83769744D01*
X176604774Y-83958102D01*
X176565000Y-84158061D01*
X156355650Y-84158061D01*
X156473937Y-84039774D01*
X156587205Y-83870256D01*
X156665226Y-83681898D01*
X156705000Y-83481939D01*
X156705000Y-83278061D01*
X156665226Y-83078102D01*
X156587205Y-82889744D01*
X156473937Y-82720226D01*
X156329774Y-82576063D01*
X156160256Y-82462795D01*
X155971898Y-82384774D01*
X155771939Y-82345000D01*
X155568061Y-82345000D01*
X155368102Y-82384774D01*
X155179744Y-82462795D01*
X155010226Y-82576063D01*
X154866063Y-82720226D01*
X154752795Y-82889744D01*
X154674774Y-83078102D01*
X154635000Y-83278061D01*
X154635000Y-83481939D01*
X154674774Y-83681898D01*
X154752795Y-83870256D01*
X154825935Y-83979719D01*
X154751939Y-83965000D01*
X154548061Y-83965000D01*
X154348102Y-84004774D01*
X154159744Y-84082795D01*
X153990226Y-84196063D01*
X153846063Y-84340226D01*
X153732795Y-84509744D01*
X153654774Y-84698102D01*
X153615000Y-84898061D01*
X133610904Y-84898061D01*
X133639133Y-79798061D01*
X153415000Y-79798061D01*
X153415000Y-80001939D01*
X153454774Y-80201898D01*
X153532795Y-80390256D01*
X153646063Y-80559774D01*
X153790226Y-80703937D01*
X153959744Y-80817205D01*
X154148102Y-80895226D01*
X154348061Y-80935000D01*
X154551939Y-80935000D01*
X154751898Y-80895226D01*
X154940256Y-80817205D01*
X155109774Y-80703937D01*
X155253937Y-80559774D01*
X155367205Y-80390256D01*
X155445226Y-80201898D01*
X155485000Y-80001939D01*
X155485000Y-79798061D01*
X155483011Y-79788061D01*
X160635000Y-79788061D01*
X160635000Y-79991939D01*
X160674774Y-80191898D01*
X160752795Y-80380256D01*
X160866063Y-80549774D01*
X161010226Y-80693937D01*
X161179744Y-80807205D01*
X161368102Y-80885226D01*
X161568061Y-80925000D01*
X161771939Y-80925000D01*
X161971898Y-80885226D01*
X162160256Y-80807205D01*
X162329774Y-80693937D01*
X162473937Y-80549774D01*
X162587205Y-80380256D01*
X162665226Y-80191898D01*
X162705000Y-79991939D01*
X162705000Y-79798061D01*
X165665000Y-79798061D01*
X165665000Y-80001939D01*
X165704774Y-80201898D01*
X165782795Y-80390256D01*
X165896063Y-80559774D01*
X166040226Y-80703937D01*
X166209744Y-80817205D01*
X166398102Y-80895226D01*
X166598061Y-80935000D01*
X166801939Y-80935000D01*
X167001898Y-80895226D01*
X167190256Y-80817205D01*
X167359774Y-80703937D01*
X167503937Y-80559774D01*
X167617205Y-80390256D01*
X167695226Y-80201898D01*
X167735000Y-80001939D01*
X167735000Y-79798061D01*
X167695226Y-79598102D01*
X167617205Y-79409744D01*
X167503937Y-79240226D01*
X167359774Y-79096063D01*
X167190256Y-78982795D01*
X167001898Y-78904774D01*
X166801939Y-78865000D01*
X166598061Y-78865000D01*
X166398102Y-78904774D01*
X166209744Y-78982795D01*
X166040226Y-79096063D01*
X165896063Y-79240226D01*
X165782795Y-79409744D01*
X165704774Y-79598102D01*
X165665000Y-79798061D01*
X162705000Y-79798061D01*
X162705000Y-79788061D01*
X162665226Y-79588102D01*
X162587205Y-79399744D01*
X162473937Y-79230226D01*
X162329774Y-79086063D01*
X162160256Y-78972795D01*
X161971898Y-78894774D01*
X161771939Y-78855000D01*
X161568061Y-78855000D01*
X161368102Y-78894774D01*
X161179744Y-78972795D01*
X161010226Y-79086063D01*
X160866063Y-79230226D01*
X160752795Y-79399744D01*
X160674774Y-79588102D01*
X160635000Y-79788061D01*
X155483011Y-79788061D01*
X155445226Y-79598102D01*
X155367205Y-79409744D01*
X155308899Y-79322483D01*
X155377205Y-79220256D01*
X155455226Y-79031898D01*
X155495000Y-78831939D01*
X155495000Y-78628061D01*
X155455226Y-78428102D01*
X155377205Y-78239744D01*
X155263937Y-78070226D01*
X155119774Y-77926063D01*
X154950256Y-77812795D01*
X154761898Y-77734774D01*
X154561939Y-77695000D01*
X154358061Y-77695000D01*
X154158102Y-77734774D01*
X153969744Y-77812795D01*
X153800226Y-77926063D01*
X153656063Y-78070226D01*
X153542795Y-78239744D01*
X153464774Y-78428102D01*
X153425000Y-78628061D01*
X153425000Y-78831939D01*
X153464774Y-79031898D01*
X153542795Y-79220256D01*
X153601101Y-79307517D01*
X153532795Y-79409744D01*
X153454774Y-79598102D01*
X153415000Y-79798061D01*
X133639133Y-79798061D01*
X133662553Y-75566890D01*
X138458524Y-75566890D01*
X138503175Y-75714099D01*
X138628359Y-75976920D01*
X138802412Y-76210269D01*
X139018645Y-76405178D01*
X139268748Y-76554157D01*
X139543109Y-76651481D01*
X139773000Y-76530814D01*
X139773000Y-75337000D01*
X140027000Y-75337000D01*
X140027000Y-76530814D01*
X140256891Y-76651481D01*
X140531252Y-76554157D01*
X140781355Y-76405178D01*
X140997588Y-76210269D01*
X141171641Y-75976920D01*
X141295495Y-75716890D01*
X185078524Y-75716890D01*
X185123175Y-75864099D01*
X185248359Y-76126920D01*
X185422412Y-76360269D01*
X185638645Y-76555178D01*
X185888748Y-76704157D01*
X186163109Y-76801481D01*
X186393000Y-76680814D01*
X186393000Y-75487000D01*
X186647000Y-75487000D01*
X186647000Y-76680814D01*
X186876891Y-76801481D01*
X187151252Y-76704157D01*
X187401355Y-76555178D01*
X187617588Y-76360269D01*
X187791641Y-76126920D01*
X187916825Y-75864099D01*
X187961476Y-75716890D01*
X187840155Y-75487000D01*
X186647000Y-75487000D01*
X186393000Y-75487000D01*
X185199845Y-75487000D01*
X185078524Y-75716890D01*
X141295495Y-75716890D01*
X141296825Y-75714099D01*
X141341476Y-75566890D01*
X141220155Y-75337000D01*
X140027000Y-75337000D01*
X139773000Y-75337000D01*
X138579845Y-75337000D01*
X138458524Y-75566890D01*
X133662553Y-75566890D01*
X133711411Y-66740000D01*
X138411928Y-66740000D01*
X138411928Y-68440000D01*
X138424188Y-68564482D01*
X138460498Y-68684180D01*
X138519463Y-68794494D01*
X138598815Y-68891185D01*
X138695506Y-68970537D01*
X138805820Y-69029502D01*
X138878380Y-69051513D01*
X138746525Y-69183368D01*
X138584010Y-69426589D01*
X138472068Y-69696842D01*
X138415000Y-69983740D01*
X138415000Y-70276260D01*
X138472068Y-70563158D01*
X138584010Y-70833411D01*
X138746525Y-71076632D01*
X138953368Y-71283475D01*
X139127760Y-71400000D01*
X138953368Y-71516525D01*
X138746525Y-71723368D01*
X138584010Y-71966589D01*
X138472068Y-72236842D01*
X138415000Y-72523740D01*
X138415000Y-72816260D01*
X138472068Y-73103158D01*
X138584010Y-73373411D01*
X138746525Y-73616632D01*
X138953368Y-73823475D01*
X139135534Y-73945195D01*
X139018645Y-74014822D01*
X138802412Y-74209731D01*
X138628359Y-74443080D01*
X138503175Y-74705901D01*
X138458524Y-74853110D01*
X138579845Y-75083000D01*
X139773000Y-75083000D01*
X139773000Y-75063000D01*
X140027000Y-75063000D01*
X140027000Y-75083000D01*
X141220155Y-75083000D01*
X141341476Y-74853110D01*
X141296825Y-74705901D01*
X141171641Y-74443080D01*
X140997588Y-74209731D01*
X140781355Y-74014822D01*
X140664466Y-73945195D01*
X140846632Y-73823475D01*
X141053475Y-73616632D01*
X141215990Y-73373411D01*
X141327932Y-73103158D01*
X141385000Y-72816260D01*
X141385000Y-72523740D01*
X141327932Y-72236842D01*
X141215990Y-71966589D01*
X141053475Y-71723368D01*
X140846632Y-71516525D01*
X140672240Y-71400000D01*
X140846632Y-71283475D01*
X141053475Y-71076632D01*
X141178178Y-70890000D01*
X155671928Y-70890000D01*
X155671928Y-72590000D01*
X155684188Y-72714482D01*
X155720498Y-72834180D01*
X155779463Y-72944494D01*
X155858815Y-73041185D01*
X155955506Y-73120537D01*
X156065820Y-73179502D01*
X156185518Y-73215812D01*
X156310000Y-73228072D01*
X158010000Y-73228072D01*
X158134482Y-73215812D01*
X158254180Y-73179502D01*
X158364494Y-73120537D01*
X158461185Y-73041185D01*
X158540537Y-72944494D01*
X158599502Y-72834180D01*
X158621513Y-72761620D01*
X158753368Y-72893475D01*
X158996589Y-73055990D01*
X159266842Y-73167932D01*
X159553740Y-73225000D01*
X159846260Y-73225000D01*
X160133158Y-73167932D01*
X160403411Y-73055990D01*
X160646632Y-72893475D01*
X160853475Y-72686632D01*
X160975195Y-72504466D01*
X161044822Y-72621355D01*
X161239731Y-72837588D01*
X161473080Y-73011641D01*
X161735901Y-73136825D01*
X161883110Y-73181476D01*
X162113000Y-73060155D01*
X162113000Y-71867000D01*
X162367000Y-71867000D01*
X162367000Y-73060155D01*
X162596890Y-73181476D01*
X162744099Y-73136825D01*
X163006920Y-73011641D01*
X163240269Y-72837588D01*
X163435178Y-72621355D01*
X163584157Y-72371252D01*
X163681481Y-72096891D01*
X163560814Y-71867000D01*
X162367000Y-71867000D01*
X162113000Y-71867000D01*
X162093000Y-71867000D01*
X162093000Y-71613000D01*
X162113000Y-71613000D01*
X162113000Y-70419845D01*
X162367000Y-70419845D01*
X162367000Y-71613000D01*
X163560814Y-71613000D01*
X163681481Y-71383109D01*
X163584157Y-71108748D01*
X163435178Y-70858645D01*
X163240269Y-70642412D01*
X163006920Y-70468359D01*
X162744099Y-70343175D01*
X162596890Y-70298524D01*
X162367000Y-70419845D01*
X162113000Y-70419845D01*
X161883110Y-70298524D01*
X161735901Y-70343175D01*
X161473080Y-70468359D01*
X161239731Y-70642412D01*
X161044822Y-70858645D01*
X160975195Y-70975534D01*
X160853475Y-70793368D01*
X160646632Y-70586525D01*
X160403411Y-70424010D01*
X160133158Y-70312068D01*
X159846260Y-70255000D01*
X159553740Y-70255000D01*
X159266842Y-70312068D01*
X158996589Y-70424010D01*
X158753368Y-70586525D01*
X158621513Y-70718380D01*
X158599502Y-70645820D01*
X158540537Y-70535506D01*
X158461185Y-70438815D01*
X158364494Y-70359463D01*
X158254180Y-70300498D01*
X158134482Y-70264188D01*
X158010000Y-70251928D01*
X156310000Y-70251928D01*
X156185518Y-70264188D01*
X156065820Y-70300498D01*
X155955506Y-70359463D01*
X155858815Y-70438815D01*
X155779463Y-70535506D01*
X155720498Y-70645820D01*
X155684188Y-70765518D01*
X155671928Y-70890000D01*
X141178178Y-70890000D01*
X141215990Y-70833411D01*
X141327932Y-70563158D01*
X141385000Y-70276260D01*
X141385000Y-69983740D01*
X141327932Y-69696842D01*
X141215990Y-69426589D01*
X141053475Y-69183368D01*
X140921620Y-69051513D01*
X140994180Y-69029502D01*
X141104494Y-68970537D01*
X141201185Y-68891185D01*
X141280537Y-68794494D01*
X141339502Y-68684180D01*
X141375812Y-68564482D01*
X141388072Y-68440000D01*
X141388072Y-66890000D01*
X185031928Y-66890000D01*
X185031928Y-68590000D01*
X185044188Y-68714482D01*
X185080498Y-68834180D01*
X185139463Y-68944494D01*
X185218815Y-69041185D01*
X185315506Y-69120537D01*
X185425820Y-69179502D01*
X185498380Y-69201513D01*
X185366525Y-69333368D01*
X185204010Y-69576589D01*
X185092068Y-69846842D01*
X185035000Y-70133740D01*
X185035000Y-70426260D01*
X185092068Y-70713158D01*
X185204010Y-70983411D01*
X185366525Y-71226632D01*
X185573368Y-71433475D01*
X185747760Y-71550000D01*
X185573368Y-71666525D01*
X185366525Y-71873368D01*
X185204010Y-72116589D01*
X185092068Y-72386842D01*
X185035000Y-72673740D01*
X185035000Y-72966260D01*
X185092068Y-73253158D01*
X185204010Y-73523411D01*
X185366525Y-73766632D01*
X185573368Y-73973475D01*
X185755534Y-74095195D01*
X185638645Y-74164822D01*
X185422412Y-74359731D01*
X185248359Y-74593080D01*
X185123175Y-74855901D01*
X185078524Y-75003110D01*
X185199845Y-75233000D01*
X186393000Y-75233000D01*
X186393000Y-75213000D01*
X186647000Y-75213000D01*
X186647000Y-75233000D01*
X187840155Y-75233000D01*
X187961476Y-75003110D01*
X187916825Y-74855901D01*
X187791641Y-74593080D01*
X187617588Y-74359731D01*
X187401355Y-74164822D01*
X187284466Y-74095195D01*
X187466632Y-73973475D01*
X187673475Y-73766632D01*
X187835990Y-73523411D01*
X187947932Y-73253158D01*
X188005000Y-72966260D01*
X188005000Y-72673740D01*
X187947932Y-72386842D01*
X187835990Y-72116589D01*
X187673475Y-71873368D01*
X187466632Y-71666525D01*
X187292240Y-71550000D01*
X187466632Y-71433475D01*
X187673475Y-71226632D01*
X187835990Y-70983411D01*
X187947932Y-70713158D01*
X188005000Y-70426260D01*
X188005000Y-70133740D01*
X187947932Y-69846842D01*
X187835990Y-69576589D01*
X187673475Y-69333368D01*
X187541620Y-69201513D01*
X187614180Y-69179502D01*
X187724494Y-69120537D01*
X187821185Y-69041185D01*
X187900537Y-68944494D01*
X187959502Y-68834180D01*
X187995812Y-68714482D01*
X188008072Y-68590000D01*
X188008072Y-66890000D01*
X187995812Y-66765518D01*
X187959502Y-66645820D01*
X187900537Y-66535506D01*
X187821185Y-66438815D01*
X187724494Y-66359463D01*
X187614180Y-66300498D01*
X187494482Y-66264188D01*
X187370000Y-66251928D01*
X185670000Y-66251928D01*
X185545518Y-66264188D01*
X185425820Y-66300498D01*
X185315506Y-66359463D01*
X185218815Y-66438815D01*
X185139463Y-66535506D01*
X185080498Y-66645820D01*
X185044188Y-66765518D01*
X185031928Y-66890000D01*
X141388072Y-66890000D01*
X141388072Y-66740000D01*
X141375812Y-66615518D01*
X141339502Y-66495820D01*
X141280537Y-66385506D01*
X141201185Y-66288815D01*
X141104494Y-66209463D01*
X140994180Y-66150498D01*
X140874482Y-66114188D01*
X140750000Y-66101928D01*
X139050000Y-66101928D01*
X138925518Y-66114188D01*
X138805820Y-66150498D01*
X138695506Y-66209463D01*
X138598815Y-66288815D01*
X138519463Y-66385506D01*
X138460498Y-66495820D01*
X138424188Y-66615518D01*
X138411928Y-66740000D01*
X133711411Y-66740000D01*
X133770812Y-56008061D01*
X157925000Y-56008061D01*
X157925000Y-56211939D01*
X157964774Y-56411898D01*
X158042795Y-56600256D01*
X158156063Y-56769774D01*
X158300226Y-56913937D01*
X158469744Y-57027205D01*
X158658102Y-57105226D01*
X158858061Y-57145000D01*
X159061939Y-57145000D01*
X159261898Y-57105226D01*
X159450256Y-57027205D01*
X159570000Y-56947195D01*
X159689744Y-57027205D01*
X159878102Y-57105226D01*
X160078061Y-57145000D01*
X160281939Y-57145000D01*
X160481898Y-57105226D01*
X160670256Y-57027205D01*
X160839774Y-56913937D01*
X160983937Y-56769774D01*
X161097205Y-56600256D01*
X161175226Y-56411898D01*
X161215000Y-56211939D01*
X161215000Y-56008061D01*
X161175226Y-55808102D01*
X161097205Y-55619744D01*
X160983937Y-55450226D01*
X160839774Y-55306063D01*
X160670256Y-55192795D01*
X160481898Y-55114774D01*
X160281939Y-55075000D01*
X160078061Y-55075000D01*
X159878102Y-55114774D01*
X159689744Y-55192795D01*
X159570000Y-55272805D01*
X159450256Y-55192795D01*
X159261898Y-55114774D01*
X159061939Y-55075000D01*
X158858061Y-55075000D01*
X158658102Y-55114774D01*
X158469744Y-55192795D01*
X158300226Y-55306063D01*
X158156063Y-55450226D01*
X158042795Y-55619744D01*
X157964774Y-55808102D01*
X157925000Y-56008061D01*
X133770812Y-56008061D01*
X133796993Y-51277980D01*
X166401626Y-51277980D01*
X166521514Y-51562836D01*
X166845210Y-51723699D01*
X167194069Y-51818322D01*
X167554684Y-51843067D01*
X167913198Y-51796985D01*
X168255833Y-51681846D01*
X168478486Y-51562836D01*
X168598374Y-51277980D01*
X167500000Y-50179605D01*
X166401626Y-51277980D01*
X133796993Y-51277980D01*
X133830282Y-45263945D01*
X135005000Y-45263945D01*
X135005000Y-46236055D01*
X135194650Y-47189486D01*
X135566660Y-48087599D01*
X136106735Y-48895879D01*
X136794121Y-49583265D01*
X137602401Y-50123340D01*
X138500514Y-50495350D01*
X139453945Y-50685000D01*
X140426055Y-50685000D01*
X141379486Y-50495350D01*
X142277599Y-50123340D01*
X142380350Y-50054684D01*
X165656933Y-50054684D01*
X165703015Y-50413198D01*
X165818154Y-50755833D01*
X165937164Y-50978486D01*
X166222020Y-51098374D01*
X167320395Y-50000000D01*
X167679605Y-50000000D01*
X168777980Y-51098374D01*
X169062836Y-50978486D01*
X169161928Y-50779088D01*
X169161928Y-51200000D01*
X169174188Y-51324482D01*
X169210498Y-51444180D01*
X169269463Y-51554494D01*
X169348815Y-51651185D01*
X169445506Y-51730537D01*
X169555820Y-51789502D01*
X169675518Y-51825812D01*
X169800000Y-51838072D01*
X172200000Y-51838072D01*
X172324482Y-51825812D01*
X172444180Y-51789502D01*
X172554494Y-51730537D01*
X172651185Y-51651185D01*
X172730537Y-51554494D01*
X172789502Y-51444180D01*
X172825812Y-51324482D01*
X172838072Y-51200000D01*
X172838072Y-48800000D01*
X172825812Y-48675518D01*
X172789502Y-48555820D01*
X172730537Y-48445506D01*
X172651185Y-48348815D01*
X172554494Y-48269463D01*
X172444180Y-48210498D01*
X172324482Y-48174188D01*
X172200000Y-48161928D01*
X169800000Y-48161928D01*
X169675518Y-48174188D01*
X169555820Y-48210498D01*
X169445506Y-48269463D01*
X169348815Y-48348815D01*
X169269463Y-48445506D01*
X169210498Y-48555820D01*
X169174188Y-48675518D01*
X169161928Y-48800000D01*
X169161928Y-49206903D01*
X169062836Y-49021514D01*
X168777980Y-48901626D01*
X167679605Y-50000000D01*
X167320395Y-50000000D01*
X166222020Y-48901626D01*
X165937164Y-49021514D01*
X165776301Y-49345210D01*
X165681678Y-49694069D01*
X165656933Y-50054684D01*
X142380350Y-50054684D01*
X143085879Y-49583265D01*
X143773265Y-48895879D01*
X143889433Y-48722020D01*
X166401626Y-48722020D01*
X167500000Y-49820395D01*
X168598374Y-48722020D01*
X168478486Y-48437164D01*
X168154790Y-48276301D01*
X167805931Y-48181678D01*
X167445316Y-48156933D01*
X167086802Y-48203015D01*
X166744167Y-48318154D01*
X166521514Y-48437164D01*
X166401626Y-48722020D01*
X143889433Y-48722020D01*
X144313340Y-48087599D01*
X144685350Y-47189486D01*
X144875000Y-46236055D01*
X144875000Y-45736890D01*
X148950048Y-45736890D01*
X148950048Y-45983110D01*
X148998083Y-46224598D01*
X149092307Y-46452074D01*
X149229099Y-46656798D01*
X149403202Y-46830901D01*
X149607926Y-46967693D01*
X149835402Y-47061917D01*
X150076890Y-47109952D01*
X150323110Y-47109952D01*
X150564598Y-47061917D01*
X150792074Y-46967693D01*
X150996798Y-46830901D01*
X151170901Y-46656798D01*
X151307693Y-46452074D01*
X151401917Y-46224598D01*
X151449952Y-45983110D01*
X151449952Y-45736890D01*
X151424094Y-45606890D01*
X176310048Y-45606890D01*
X176310048Y-45853110D01*
X176358083Y-46094598D01*
X176452307Y-46322074D01*
X176589099Y-46526798D01*
X176763202Y-46700901D01*
X176967926Y-46837693D01*
X177195402Y-46931917D01*
X177436890Y-46979952D01*
X177683110Y-46979952D01*
X177924598Y-46931917D01*
X178152074Y-46837693D01*
X178356798Y-46700901D01*
X178530901Y-46526798D01*
X178667693Y-46322074D01*
X178761917Y-46094598D01*
X178809952Y-45853110D01*
X178809952Y-45606890D01*
X178761917Y-45365402D01*
X178715750Y-45253945D01*
X181865000Y-45253945D01*
X181865000Y-46226055D01*
X182054650Y-47179486D01*
X182426660Y-48077599D01*
X182966735Y-48885879D01*
X183654121Y-49573265D01*
X184462401Y-50113340D01*
X185360514Y-50485350D01*
X186313945Y-50675000D01*
X187286055Y-50675000D01*
X188239486Y-50485350D01*
X189137599Y-50113340D01*
X189945879Y-49573265D01*
X190633265Y-48885879D01*
X191173340Y-48077599D01*
X191545350Y-47179486D01*
X191735000Y-46226055D01*
X191735000Y-45253945D01*
X191545350Y-44300514D01*
X191173340Y-43402401D01*
X190633265Y-42594121D01*
X189945879Y-41906735D01*
X189137599Y-41366660D01*
X188239486Y-40994650D01*
X187286055Y-40805000D01*
X186313945Y-40805000D01*
X185360514Y-40994650D01*
X184462401Y-41366660D01*
X183654121Y-41906735D01*
X182966735Y-42594121D01*
X182426660Y-43402401D01*
X182054650Y-44300514D01*
X181865000Y-45253945D01*
X178715750Y-45253945D01*
X178667693Y-45137926D01*
X178530901Y-44933202D01*
X178356798Y-44759099D01*
X178152074Y-44622307D01*
X177924598Y-44528083D01*
X177683110Y-44480048D01*
X177436890Y-44480048D01*
X177195402Y-44528083D01*
X176967926Y-44622307D01*
X176763202Y-44759099D01*
X176589099Y-44933202D01*
X176452307Y-45137926D01*
X176358083Y-45365402D01*
X176310048Y-45606890D01*
X151424094Y-45606890D01*
X151401917Y-45495402D01*
X151307693Y-45267926D01*
X151170901Y-45063202D01*
X150996798Y-44889099D01*
X150792074Y-44752307D01*
X150564598Y-44658083D01*
X150323110Y-44610048D01*
X150076890Y-44610048D01*
X149835402Y-44658083D01*
X149607926Y-44752307D01*
X149403202Y-44889099D01*
X149229099Y-45063202D01*
X149092307Y-45267926D01*
X148998083Y-45495402D01*
X148950048Y-45736890D01*
X144875000Y-45736890D01*
X144875000Y-45263945D01*
X144685350Y-44310514D01*
X144680192Y-44298061D01*
X156815000Y-44298061D01*
X156815000Y-44501939D01*
X156854774Y-44701898D01*
X156932795Y-44890256D01*
X157046063Y-45059774D01*
X157190226Y-45203937D01*
X157359744Y-45317205D01*
X157548102Y-45395226D01*
X157748061Y-45435000D01*
X157951939Y-45435000D01*
X158151898Y-45395226D01*
X158340256Y-45317205D01*
X158509774Y-45203937D01*
X158510000Y-45203711D01*
X158510226Y-45203937D01*
X158679744Y-45317205D01*
X158868102Y-45395226D01*
X159068061Y-45435000D01*
X159271939Y-45435000D01*
X159471898Y-45395226D01*
X159660256Y-45317205D01*
X159820000Y-45210468D01*
X159979744Y-45317205D01*
X160168102Y-45395226D01*
X160368061Y-45435000D01*
X160571939Y-45435000D01*
X160771898Y-45395226D01*
X160960256Y-45317205D01*
X161129774Y-45203937D01*
X161130000Y-45203711D01*
X161140226Y-45213937D01*
X161309744Y-45327205D01*
X161498102Y-45405226D01*
X161698061Y-45445000D01*
X161901939Y-45445000D01*
X162101898Y-45405226D01*
X162290256Y-45327205D01*
X162459774Y-45213937D01*
X162603937Y-45069774D01*
X162717205Y-44900256D01*
X162795226Y-44711898D01*
X162835000Y-44511939D01*
X162835000Y-44308061D01*
X162795226Y-44108102D01*
X162717205Y-43919744D01*
X162603937Y-43750226D01*
X162459774Y-43606063D01*
X162290256Y-43492795D01*
X162101898Y-43414774D01*
X161901939Y-43375000D01*
X161698061Y-43375000D01*
X161498102Y-43414774D01*
X161309744Y-43492795D01*
X161140226Y-43606063D01*
X161140000Y-43606289D01*
X161129774Y-43596063D01*
X160960256Y-43482795D01*
X160771898Y-43404774D01*
X160571939Y-43365000D01*
X160368061Y-43365000D01*
X160168102Y-43404774D01*
X159979744Y-43482795D01*
X159820000Y-43589532D01*
X159660256Y-43482795D01*
X159471898Y-43404774D01*
X159271939Y-43365000D01*
X159068061Y-43365000D01*
X158868102Y-43404774D01*
X158679744Y-43482795D01*
X158510226Y-43596063D01*
X158510000Y-43596289D01*
X158509774Y-43596063D01*
X158340256Y-43482795D01*
X158151898Y-43404774D01*
X157951939Y-43365000D01*
X157748061Y-43365000D01*
X157548102Y-43404774D01*
X157359744Y-43482795D01*
X157190226Y-43596063D01*
X157046063Y-43740226D01*
X156932795Y-43909744D01*
X156854774Y-44098102D01*
X156815000Y-44298061D01*
X144680192Y-44298061D01*
X144313340Y-43412401D01*
X143773265Y-42604121D01*
X143085879Y-41916735D01*
X142277599Y-41376660D01*
X141379486Y-41004650D01*
X140426055Y-40815000D01*
X139453945Y-40815000D01*
X138500514Y-41004650D01*
X137602401Y-41376660D01*
X136794121Y-41916735D01*
X136106735Y-42604121D01*
X135566660Y-43412401D01*
X135194650Y-44310514D01*
X135005000Y-45263945D01*
X133830282Y-45263945D01*
X133861219Y-39674776D01*
X193405798Y-39655224D01*
X193524201Y-141364109D01*
G37*
%TD.AperFunction*%
%TD*%
M02*
