%TF.GenerationSoftware,KiCad,Pcbnew,(5.1.10)-1*%
%TF.CreationDate,2021-11-07T18:39:57-08:00*%
%TF.ProjectId,mic_pcb,6d69635f-7063-4622-9e6b-696361645f70,rev?*%
%TF.SameCoordinates,Original*%
%TF.FileFunction,Copper,L1,Top*%
%TF.FilePolarity,Positive*%
%FSLAX46Y46*%
G04 Gerber Fmt 4.6, Leading zero omitted, Abs format (unit mm)*
G04 Created by KiCad (PCBNEW (5.1.10)-1) date 2021-11-07 18:39:57*
%MOMM*%
%LPD*%
G01*
G04 APERTURE LIST*
%TA.AperFunction,ComponentPad*%
%ADD10C,0.700000*%
%TD*%
%TA.AperFunction,ComponentPad*%
%ADD11C,4.400000*%
%TD*%
%TA.AperFunction,SMDPad,CuDef*%
%ADD12R,0.355600X2.311400*%
%TD*%
%TA.AperFunction,SMDPad,CuDef*%
%ADD13R,0.406400X0.939800*%
%TD*%
%TA.AperFunction,SMDPad,CuDef*%
%ADD14R,1.295400X0.355600*%
%TD*%
%TA.AperFunction,ComponentPad*%
%ADD15O,1.700000X1.700000*%
%TD*%
%TA.AperFunction,ComponentPad*%
%ADD16R,1.700000X1.700000*%
%TD*%
%TA.AperFunction,ViaPad*%
%ADD17C,0.600000*%
%TD*%
%TA.AperFunction,Conductor*%
%ADD18C,0.250000*%
%TD*%
%TA.AperFunction,NonConductor*%
%ADD19C,0.254000*%
%TD*%
%TA.AperFunction,NonConductor*%
%ADD20C,0.100000*%
%TD*%
G04 APERTURE END LIST*
D10*
%TO.P,H2,1*%
%TO.N,N/C*%
X141506726Y-91003274D03*
X140340000Y-90520000D03*
X139173274Y-91003274D03*
X138690000Y-92170000D03*
X139173274Y-93336726D03*
X140340000Y-93820000D03*
X141506726Y-93336726D03*
X141990000Y-92170000D03*
D11*
X140340000Y-92170000D03*
%TD*%
D10*
%TO.P,H1,1*%
%TO.N,N/C*%
X128476726Y-90913274D03*
X127310000Y-90430000D03*
X126143274Y-90913274D03*
X125660000Y-92080000D03*
X126143274Y-93246726D03*
X127310000Y-93730000D03*
X128476726Y-93246726D03*
X128960000Y-92080000D03*
D11*
X127310000Y-92080000D03*
%TD*%
D12*
%TO.P,U1,7*%
%TO.N,N/C*%
X133773401Y-99157466D03*
%TO.P,U1,8*%
X136223401Y-99157466D03*
D13*
%TO.P,U1,4*%
%TO.N,DOUT*%
X135448400Y-98482466D03*
D14*
%TO.P,U1,5*%
%TO.N,GND*%
X134998401Y-97432466D03*
%TO.P,U1,6*%
%TO.N,N/C*%
X134998401Y-100882466D03*
D13*
%TO.P,U1,3*%
%TO.N,CLK*%
X135448400Y-99832466D03*
%TO.P,U1,2*%
%TO.N,LR*%
X134548402Y-99832466D03*
%TO.P,U1,1*%
%TO.N,VCC*%
X134548402Y-98482466D03*
%TD*%
D15*
%TO.P,J1,5*%
%TO.N,DOUT*%
X138930000Y-104030000D03*
%TO.P,J1,4*%
%TO.N,CLK*%
X136390000Y-104030000D03*
%TO.P,J1,3*%
%TO.N,VCC*%
X133850000Y-104030000D03*
%TO.P,J1,2*%
%TO.N,LR*%
X131310000Y-104030000D03*
D16*
%TO.P,J1,1*%
%TO.N,GND*%
X128770000Y-104030000D03*
%TD*%
%TO.P,C2,2*%
%TO.N,VCC*%
%TA.AperFunction,SMDPad,CuDef*%
G36*
G01*
X131930000Y-98190000D02*
X132270000Y-98190000D01*
G75*
G02*
X132410000Y-98330000I0J-140000D01*
G01*
X132410000Y-98610000D01*
G75*
G02*
X132270000Y-98750000I-140000J0D01*
G01*
X131930000Y-98750000D01*
G75*
G02*
X131790000Y-98610000I0J140000D01*
G01*
X131790000Y-98330000D01*
G75*
G02*
X131930000Y-98190000I140000J0D01*
G01*
G37*
%TD.AperFunction*%
%TO.P,C2,1*%
%TO.N,GND*%
%TA.AperFunction,SMDPad,CuDef*%
G36*
G01*
X131930000Y-97230000D02*
X132270000Y-97230000D01*
G75*
G02*
X132410000Y-97370000I0J-140000D01*
G01*
X132410000Y-97650000D01*
G75*
G02*
X132270000Y-97790000I-140000J0D01*
G01*
X131930000Y-97790000D01*
G75*
G02*
X131790000Y-97650000I0J140000D01*
G01*
X131790000Y-97370000D01*
G75*
G02*
X131930000Y-97230000I140000J0D01*
G01*
G37*
%TD.AperFunction*%
%TD*%
%TO.P,C1,2*%
%TO.N,VCC*%
%TA.AperFunction,SMDPad,CuDef*%
G36*
G01*
X130850000Y-98190000D02*
X131190000Y-98190000D01*
G75*
G02*
X131330000Y-98330000I0J-140000D01*
G01*
X131330000Y-98610000D01*
G75*
G02*
X131190000Y-98750000I-140000J0D01*
G01*
X130850000Y-98750000D01*
G75*
G02*
X130710000Y-98610000I0J140000D01*
G01*
X130710000Y-98330000D01*
G75*
G02*
X130850000Y-98190000I140000J0D01*
G01*
G37*
%TD.AperFunction*%
%TO.P,C1,1*%
%TO.N,GND*%
%TA.AperFunction,SMDPad,CuDef*%
G36*
G01*
X130850000Y-97230000D02*
X131190000Y-97230000D01*
G75*
G02*
X131330000Y-97370000I0J-140000D01*
G01*
X131330000Y-97650000D01*
G75*
G02*
X131190000Y-97790000I-140000J0D01*
G01*
X130850000Y-97790000D01*
G75*
G02*
X130710000Y-97650000I0J140000D01*
G01*
X130710000Y-97370000D01*
G75*
G02*
X130850000Y-97230000I140000J0D01*
G01*
G37*
%TD.AperFunction*%
%TD*%
D17*
%TO.N,VCC*%
X133040000Y-98490000D03*
X134560000Y-98450000D03*
%TO.N,LR*%
X134550000Y-99780000D03*
%TO.N,CLK*%
X135450000Y-99790000D03*
%TO.N,DOUT*%
X135450000Y-98450000D03*
%TD*%
D18*
%TO.N,VCC*%
X132100000Y-98470000D02*
X131020000Y-98470000D01*
X133020000Y-98470000D02*
X133040000Y-98490000D01*
X132100000Y-98470000D02*
X133020000Y-98470000D01*
X131020000Y-101200000D02*
X133850000Y-104030000D01*
X131020000Y-98470000D02*
X131020000Y-101200000D01*
%TO.N,GND*%
X132100000Y-97510000D02*
X131020000Y-97510000D01*
X132177534Y-97432466D02*
X132100000Y-97510000D01*
X134998401Y-97432466D02*
X132177534Y-97432466D01*
X128770000Y-99450000D02*
X128770000Y-104030000D01*
X130710000Y-97510000D02*
X128770000Y-99450000D01*
X131020000Y-97510000D02*
X130710000Y-97510000D01*
%TD*%
D19*
X143156027Y-89013635D02*
X143160238Y-91816562D01*
X143066052Y-91343061D01*
X142852344Y-90827124D01*
X142542088Y-90362793D01*
X142147207Y-89967912D01*
X141682876Y-89657656D01*
X141166939Y-89443948D01*
X140619223Y-89335000D01*
X140060777Y-89335000D01*
X139513061Y-89443948D01*
X138997124Y-89657656D01*
X138532793Y-89967912D01*
X138137912Y-90362793D01*
X137827656Y-90827124D01*
X137613948Y-91343061D01*
X137505000Y-91890777D01*
X137505000Y-92449223D01*
X137613948Y-92996939D01*
X137827656Y-93512876D01*
X138137912Y-93977207D01*
X138532793Y-94372088D01*
X138997124Y-94682344D01*
X139513061Y-94896052D01*
X140060777Y-95005000D01*
X140619223Y-95005000D01*
X141166939Y-94896052D01*
X141682876Y-94682344D01*
X142147207Y-94372088D01*
X142542088Y-93977207D01*
X142852344Y-93512876D01*
X143066052Y-92996939D01*
X143161292Y-92518139D01*
X143183973Y-107616369D01*
X124523973Y-107653633D01*
X124517280Y-103180000D01*
X127281928Y-103180000D01*
X127281928Y-104880000D01*
X127294188Y-105004482D01*
X127330498Y-105124180D01*
X127389463Y-105234494D01*
X127468815Y-105331185D01*
X127565506Y-105410537D01*
X127675820Y-105469502D01*
X127795518Y-105505812D01*
X127920000Y-105518072D01*
X129620000Y-105518072D01*
X129744482Y-105505812D01*
X129864180Y-105469502D01*
X129974494Y-105410537D01*
X130071185Y-105331185D01*
X130150537Y-105234494D01*
X130209502Y-105124180D01*
X130231513Y-105051620D01*
X130363368Y-105183475D01*
X130606589Y-105345990D01*
X130876842Y-105457932D01*
X131163740Y-105515000D01*
X131456260Y-105515000D01*
X131743158Y-105457932D01*
X132013411Y-105345990D01*
X132256632Y-105183475D01*
X132463475Y-104976632D01*
X132580000Y-104802240D01*
X132696525Y-104976632D01*
X132903368Y-105183475D01*
X133146589Y-105345990D01*
X133416842Y-105457932D01*
X133703740Y-105515000D01*
X133996260Y-105515000D01*
X134283158Y-105457932D01*
X134553411Y-105345990D01*
X134796632Y-105183475D01*
X135003475Y-104976632D01*
X135120000Y-104802240D01*
X135236525Y-104976632D01*
X135443368Y-105183475D01*
X135686589Y-105345990D01*
X135956842Y-105457932D01*
X136243740Y-105515000D01*
X136536260Y-105515000D01*
X136823158Y-105457932D01*
X137093411Y-105345990D01*
X137336632Y-105183475D01*
X137543475Y-104976632D01*
X137660000Y-104802240D01*
X137776525Y-104976632D01*
X137983368Y-105183475D01*
X138226589Y-105345990D01*
X138496842Y-105457932D01*
X138783740Y-105515000D01*
X139076260Y-105515000D01*
X139363158Y-105457932D01*
X139633411Y-105345990D01*
X139876632Y-105183475D01*
X140083475Y-104976632D01*
X140245990Y-104733411D01*
X140357932Y-104463158D01*
X140415000Y-104176260D01*
X140415000Y-103883740D01*
X140357932Y-103596842D01*
X140245990Y-103326589D01*
X140083475Y-103083368D01*
X139876632Y-102876525D01*
X139633411Y-102714010D01*
X139363158Y-102602068D01*
X139076260Y-102545000D01*
X138783740Y-102545000D01*
X138496842Y-102602068D01*
X138226589Y-102714010D01*
X137983368Y-102876525D01*
X137776525Y-103083368D01*
X137660000Y-103257760D01*
X137543475Y-103083368D01*
X137336632Y-102876525D01*
X137093411Y-102714010D01*
X136823158Y-102602068D01*
X136536260Y-102545000D01*
X136243740Y-102545000D01*
X135956842Y-102602068D01*
X135686589Y-102714010D01*
X135443368Y-102876525D01*
X135236525Y-103083368D01*
X135120000Y-103257760D01*
X135003475Y-103083368D01*
X134796632Y-102876525D01*
X134553411Y-102714010D01*
X134283158Y-102602068D01*
X133996260Y-102545000D01*
X133703740Y-102545000D01*
X133483593Y-102588790D01*
X131780000Y-100885199D01*
X131780000Y-99373299D01*
X131930000Y-99388072D01*
X132270000Y-99388072D01*
X132421794Y-99373122D01*
X132567755Y-99328845D01*
X132592594Y-99315568D01*
X132597111Y-99318586D01*
X132767271Y-99389068D01*
X132947911Y-99425000D01*
X132957529Y-99425000D01*
X132957529Y-100313166D01*
X132969789Y-100437648D01*
X133006099Y-100557346D01*
X133065064Y-100667660D01*
X133144416Y-100764351D01*
X133241107Y-100843703D01*
X133351421Y-100902668D01*
X133471119Y-100938978D01*
X133595601Y-100951238D01*
X133712629Y-100951238D01*
X133712629Y-101060266D01*
X133724889Y-101184748D01*
X133761199Y-101304446D01*
X133820164Y-101414760D01*
X133899516Y-101511451D01*
X133996207Y-101590803D01*
X134106521Y-101649768D01*
X134226219Y-101686078D01*
X134350701Y-101698338D01*
X135646101Y-101698338D01*
X135770583Y-101686078D01*
X135890281Y-101649768D01*
X136000595Y-101590803D01*
X136097286Y-101511451D01*
X136176638Y-101414760D01*
X136235603Y-101304446D01*
X136271913Y-101184748D01*
X136284173Y-101060266D01*
X136284173Y-100951238D01*
X136401201Y-100951238D01*
X136525683Y-100938978D01*
X136645381Y-100902668D01*
X136755695Y-100843703D01*
X136852386Y-100764351D01*
X136931738Y-100667660D01*
X136990703Y-100557346D01*
X137027013Y-100437648D01*
X137039273Y-100313166D01*
X137039273Y-98001766D01*
X137027013Y-97877284D01*
X136990703Y-97757586D01*
X136931738Y-97647272D01*
X136852386Y-97550581D01*
X136755695Y-97471229D01*
X136645381Y-97412264D01*
X136525683Y-97375954D01*
X136401201Y-97363694D01*
X136284173Y-97363694D01*
X136284173Y-97254666D01*
X136271913Y-97130184D01*
X136235603Y-97010486D01*
X136176638Y-96900172D01*
X136165738Y-96886890D01*
X139470048Y-96886890D01*
X139470048Y-97133110D01*
X139518083Y-97374598D01*
X139612307Y-97602074D01*
X139749099Y-97806798D01*
X139923202Y-97980901D01*
X140127926Y-98117693D01*
X140355402Y-98211917D01*
X140596890Y-98259952D01*
X140843110Y-98259952D01*
X141084598Y-98211917D01*
X141312074Y-98117693D01*
X141516798Y-97980901D01*
X141690901Y-97806798D01*
X141827693Y-97602074D01*
X141921917Y-97374598D01*
X141969952Y-97133110D01*
X141969952Y-96886890D01*
X141921917Y-96645402D01*
X141827693Y-96417926D01*
X141690901Y-96213202D01*
X141516798Y-96039099D01*
X141312074Y-95902307D01*
X141084598Y-95808083D01*
X140843110Y-95760048D01*
X140596890Y-95760048D01*
X140355402Y-95808083D01*
X140127926Y-95902307D01*
X139923202Y-96039099D01*
X139749099Y-96213202D01*
X139612307Y-96417926D01*
X139518083Y-96645402D01*
X139470048Y-96886890D01*
X136165738Y-96886890D01*
X136097286Y-96803481D01*
X136000595Y-96724129D01*
X135890281Y-96665164D01*
X135770583Y-96628854D01*
X135646101Y-96616594D01*
X134350701Y-96616594D01*
X134226219Y-96628854D01*
X134106521Y-96665164D01*
X134092860Y-96672466D01*
X132607625Y-96672466D01*
X132567755Y-96651155D01*
X132421794Y-96606878D01*
X132270000Y-96591928D01*
X131930000Y-96591928D01*
X131778206Y-96606878D01*
X131632245Y-96651155D01*
X131560000Y-96689771D01*
X131487755Y-96651155D01*
X131341794Y-96606878D01*
X131190000Y-96591928D01*
X130850000Y-96591928D01*
X130698206Y-96606878D01*
X130552245Y-96651155D01*
X130417726Y-96723057D01*
X130299820Y-96819820D01*
X130203057Y-96937726D01*
X130198160Y-96946888D01*
X130169999Y-96969999D01*
X130146201Y-96998997D01*
X128259003Y-98886196D01*
X128229999Y-98909999D01*
X128196011Y-98951414D01*
X128135026Y-99025724D01*
X128102793Y-99086028D01*
X128064454Y-99157754D01*
X128020997Y-99301015D01*
X128010000Y-99412668D01*
X128010000Y-99412678D01*
X128006324Y-99450000D01*
X128010000Y-99487323D01*
X128010001Y-102541928D01*
X127920000Y-102541928D01*
X127795518Y-102554188D01*
X127675820Y-102590498D01*
X127565506Y-102649463D01*
X127468815Y-102728815D01*
X127389463Y-102825506D01*
X127330498Y-102935820D01*
X127294188Y-103055518D01*
X127281928Y-103180000D01*
X124517280Y-103180000D01*
X124507744Y-96806890D01*
X125650048Y-96806890D01*
X125650048Y-97053110D01*
X125698083Y-97294598D01*
X125792307Y-97522074D01*
X125929099Y-97726798D01*
X126103202Y-97900901D01*
X126307926Y-98037693D01*
X126535402Y-98131917D01*
X126776890Y-98179952D01*
X127023110Y-98179952D01*
X127264598Y-98131917D01*
X127492074Y-98037693D01*
X127696798Y-97900901D01*
X127870901Y-97726798D01*
X128007693Y-97522074D01*
X128101917Y-97294598D01*
X128149952Y-97053110D01*
X128149952Y-96806890D01*
X128101917Y-96565402D01*
X128007693Y-96337926D01*
X127870901Y-96133202D01*
X127696798Y-95959099D01*
X127492074Y-95822307D01*
X127264598Y-95728083D01*
X127023110Y-95680048D01*
X126776890Y-95680048D01*
X126535402Y-95728083D01*
X126307926Y-95822307D01*
X126103202Y-95959099D01*
X125929099Y-96133202D01*
X125792307Y-96337926D01*
X125698083Y-96565402D01*
X125650048Y-96806890D01*
X124507744Y-96806890D01*
X124501286Y-92491372D01*
X124583948Y-92906939D01*
X124797656Y-93422876D01*
X125107912Y-93887207D01*
X125502793Y-94282088D01*
X125967124Y-94592344D01*
X126483061Y-94806052D01*
X127030777Y-94915000D01*
X127589223Y-94915000D01*
X128136939Y-94806052D01*
X128652876Y-94592344D01*
X129117207Y-94282088D01*
X129512088Y-93887207D01*
X129822344Y-93422876D01*
X130036052Y-92906939D01*
X130145000Y-92359223D01*
X130145000Y-91800777D01*
X130036052Y-91253061D01*
X129822344Y-90737124D01*
X129512088Y-90272793D01*
X129117207Y-89877912D01*
X128652876Y-89567656D01*
X128136939Y-89353948D01*
X127589223Y-89245000D01*
X127030777Y-89245000D01*
X126483061Y-89353948D01*
X125967124Y-89567656D01*
X125502793Y-89877912D01*
X125107912Y-90272793D01*
X124797656Y-90737124D01*
X124583948Y-91253061D01*
X124500064Y-91674770D01*
X124496027Y-88976371D01*
X143156027Y-89013635D01*
%TA.AperFunction,NonConductor*%
D20*
G36*
X143156027Y-89013635D02*
G01*
X143160238Y-91816562D01*
X143066052Y-91343061D01*
X142852344Y-90827124D01*
X142542088Y-90362793D01*
X142147207Y-89967912D01*
X141682876Y-89657656D01*
X141166939Y-89443948D01*
X140619223Y-89335000D01*
X140060777Y-89335000D01*
X139513061Y-89443948D01*
X138997124Y-89657656D01*
X138532793Y-89967912D01*
X138137912Y-90362793D01*
X137827656Y-90827124D01*
X137613948Y-91343061D01*
X137505000Y-91890777D01*
X137505000Y-92449223D01*
X137613948Y-92996939D01*
X137827656Y-93512876D01*
X138137912Y-93977207D01*
X138532793Y-94372088D01*
X138997124Y-94682344D01*
X139513061Y-94896052D01*
X140060777Y-95005000D01*
X140619223Y-95005000D01*
X141166939Y-94896052D01*
X141682876Y-94682344D01*
X142147207Y-94372088D01*
X142542088Y-93977207D01*
X142852344Y-93512876D01*
X143066052Y-92996939D01*
X143161292Y-92518139D01*
X143183973Y-107616369D01*
X124523973Y-107653633D01*
X124517280Y-103180000D01*
X127281928Y-103180000D01*
X127281928Y-104880000D01*
X127294188Y-105004482D01*
X127330498Y-105124180D01*
X127389463Y-105234494D01*
X127468815Y-105331185D01*
X127565506Y-105410537D01*
X127675820Y-105469502D01*
X127795518Y-105505812D01*
X127920000Y-105518072D01*
X129620000Y-105518072D01*
X129744482Y-105505812D01*
X129864180Y-105469502D01*
X129974494Y-105410537D01*
X130071185Y-105331185D01*
X130150537Y-105234494D01*
X130209502Y-105124180D01*
X130231513Y-105051620D01*
X130363368Y-105183475D01*
X130606589Y-105345990D01*
X130876842Y-105457932D01*
X131163740Y-105515000D01*
X131456260Y-105515000D01*
X131743158Y-105457932D01*
X132013411Y-105345990D01*
X132256632Y-105183475D01*
X132463475Y-104976632D01*
X132580000Y-104802240D01*
X132696525Y-104976632D01*
X132903368Y-105183475D01*
X133146589Y-105345990D01*
X133416842Y-105457932D01*
X133703740Y-105515000D01*
X133996260Y-105515000D01*
X134283158Y-105457932D01*
X134553411Y-105345990D01*
X134796632Y-105183475D01*
X135003475Y-104976632D01*
X135120000Y-104802240D01*
X135236525Y-104976632D01*
X135443368Y-105183475D01*
X135686589Y-105345990D01*
X135956842Y-105457932D01*
X136243740Y-105515000D01*
X136536260Y-105515000D01*
X136823158Y-105457932D01*
X137093411Y-105345990D01*
X137336632Y-105183475D01*
X137543475Y-104976632D01*
X137660000Y-104802240D01*
X137776525Y-104976632D01*
X137983368Y-105183475D01*
X138226589Y-105345990D01*
X138496842Y-105457932D01*
X138783740Y-105515000D01*
X139076260Y-105515000D01*
X139363158Y-105457932D01*
X139633411Y-105345990D01*
X139876632Y-105183475D01*
X140083475Y-104976632D01*
X140245990Y-104733411D01*
X140357932Y-104463158D01*
X140415000Y-104176260D01*
X140415000Y-103883740D01*
X140357932Y-103596842D01*
X140245990Y-103326589D01*
X140083475Y-103083368D01*
X139876632Y-102876525D01*
X139633411Y-102714010D01*
X139363158Y-102602068D01*
X139076260Y-102545000D01*
X138783740Y-102545000D01*
X138496842Y-102602068D01*
X138226589Y-102714010D01*
X137983368Y-102876525D01*
X137776525Y-103083368D01*
X137660000Y-103257760D01*
X137543475Y-103083368D01*
X137336632Y-102876525D01*
X137093411Y-102714010D01*
X136823158Y-102602068D01*
X136536260Y-102545000D01*
X136243740Y-102545000D01*
X135956842Y-102602068D01*
X135686589Y-102714010D01*
X135443368Y-102876525D01*
X135236525Y-103083368D01*
X135120000Y-103257760D01*
X135003475Y-103083368D01*
X134796632Y-102876525D01*
X134553411Y-102714010D01*
X134283158Y-102602068D01*
X133996260Y-102545000D01*
X133703740Y-102545000D01*
X133483593Y-102588790D01*
X131780000Y-100885199D01*
X131780000Y-99373299D01*
X131930000Y-99388072D01*
X132270000Y-99388072D01*
X132421794Y-99373122D01*
X132567755Y-99328845D01*
X132592594Y-99315568D01*
X132597111Y-99318586D01*
X132767271Y-99389068D01*
X132947911Y-99425000D01*
X132957529Y-99425000D01*
X132957529Y-100313166D01*
X132969789Y-100437648D01*
X133006099Y-100557346D01*
X133065064Y-100667660D01*
X133144416Y-100764351D01*
X133241107Y-100843703D01*
X133351421Y-100902668D01*
X133471119Y-100938978D01*
X133595601Y-100951238D01*
X133712629Y-100951238D01*
X133712629Y-101060266D01*
X133724889Y-101184748D01*
X133761199Y-101304446D01*
X133820164Y-101414760D01*
X133899516Y-101511451D01*
X133996207Y-101590803D01*
X134106521Y-101649768D01*
X134226219Y-101686078D01*
X134350701Y-101698338D01*
X135646101Y-101698338D01*
X135770583Y-101686078D01*
X135890281Y-101649768D01*
X136000595Y-101590803D01*
X136097286Y-101511451D01*
X136176638Y-101414760D01*
X136235603Y-101304446D01*
X136271913Y-101184748D01*
X136284173Y-101060266D01*
X136284173Y-100951238D01*
X136401201Y-100951238D01*
X136525683Y-100938978D01*
X136645381Y-100902668D01*
X136755695Y-100843703D01*
X136852386Y-100764351D01*
X136931738Y-100667660D01*
X136990703Y-100557346D01*
X137027013Y-100437648D01*
X137039273Y-100313166D01*
X137039273Y-98001766D01*
X137027013Y-97877284D01*
X136990703Y-97757586D01*
X136931738Y-97647272D01*
X136852386Y-97550581D01*
X136755695Y-97471229D01*
X136645381Y-97412264D01*
X136525683Y-97375954D01*
X136401201Y-97363694D01*
X136284173Y-97363694D01*
X136284173Y-97254666D01*
X136271913Y-97130184D01*
X136235603Y-97010486D01*
X136176638Y-96900172D01*
X136165738Y-96886890D01*
X139470048Y-96886890D01*
X139470048Y-97133110D01*
X139518083Y-97374598D01*
X139612307Y-97602074D01*
X139749099Y-97806798D01*
X139923202Y-97980901D01*
X140127926Y-98117693D01*
X140355402Y-98211917D01*
X140596890Y-98259952D01*
X140843110Y-98259952D01*
X141084598Y-98211917D01*
X141312074Y-98117693D01*
X141516798Y-97980901D01*
X141690901Y-97806798D01*
X141827693Y-97602074D01*
X141921917Y-97374598D01*
X141969952Y-97133110D01*
X141969952Y-96886890D01*
X141921917Y-96645402D01*
X141827693Y-96417926D01*
X141690901Y-96213202D01*
X141516798Y-96039099D01*
X141312074Y-95902307D01*
X141084598Y-95808083D01*
X140843110Y-95760048D01*
X140596890Y-95760048D01*
X140355402Y-95808083D01*
X140127926Y-95902307D01*
X139923202Y-96039099D01*
X139749099Y-96213202D01*
X139612307Y-96417926D01*
X139518083Y-96645402D01*
X139470048Y-96886890D01*
X136165738Y-96886890D01*
X136097286Y-96803481D01*
X136000595Y-96724129D01*
X135890281Y-96665164D01*
X135770583Y-96628854D01*
X135646101Y-96616594D01*
X134350701Y-96616594D01*
X134226219Y-96628854D01*
X134106521Y-96665164D01*
X134092860Y-96672466D01*
X132607625Y-96672466D01*
X132567755Y-96651155D01*
X132421794Y-96606878D01*
X132270000Y-96591928D01*
X131930000Y-96591928D01*
X131778206Y-96606878D01*
X131632245Y-96651155D01*
X131560000Y-96689771D01*
X131487755Y-96651155D01*
X131341794Y-96606878D01*
X131190000Y-96591928D01*
X130850000Y-96591928D01*
X130698206Y-96606878D01*
X130552245Y-96651155D01*
X130417726Y-96723057D01*
X130299820Y-96819820D01*
X130203057Y-96937726D01*
X130198160Y-96946888D01*
X130169999Y-96969999D01*
X130146201Y-96998997D01*
X128259003Y-98886196D01*
X128229999Y-98909999D01*
X128196011Y-98951414D01*
X128135026Y-99025724D01*
X128102793Y-99086028D01*
X128064454Y-99157754D01*
X128020997Y-99301015D01*
X128010000Y-99412668D01*
X128010000Y-99412678D01*
X128006324Y-99450000D01*
X128010000Y-99487323D01*
X128010001Y-102541928D01*
X127920000Y-102541928D01*
X127795518Y-102554188D01*
X127675820Y-102590498D01*
X127565506Y-102649463D01*
X127468815Y-102728815D01*
X127389463Y-102825506D01*
X127330498Y-102935820D01*
X127294188Y-103055518D01*
X127281928Y-103180000D01*
X124517280Y-103180000D01*
X124507744Y-96806890D01*
X125650048Y-96806890D01*
X125650048Y-97053110D01*
X125698083Y-97294598D01*
X125792307Y-97522074D01*
X125929099Y-97726798D01*
X126103202Y-97900901D01*
X126307926Y-98037693D01*
X126535402Y-98131917D01*
X126776890Y-98179952D01*
X127023110Y-98179952D01*
X127264598Y-98131917D01*
X127492074Y-98037693D01*
X127696798Y-97900901D01*
X127870901Y-97726798D01*
X128007693Y-97522074D01*
X128101917Y-97294598D01*
X128149952Y-97053110D01*
X128149952Y-96806890D01*
X128101917Y-96565402D01*
X128007693Y-96337926D01*
X127870901Y-96133202D01*
X127696798Y-95959099D01*
X127492074Y-95822307D01*
X127264598Y-95728083D01*
X127023110Y-95680048D01*
X126776890Y-95680048D01*
X126535402Y-95728083D01*
X126307926Y-95822307D01*
X126103202Y-95959099D01*
X125929099Y-96133202D01*
X125792307Y-96337926D01*
X125698083Y-96565402D01*
X125650048Y-96806890D01*
X124507744Y-96806890D01*
X124501286Y-92491372D01*
X124583948Y-92906939D01*
X124797656Y-93422876D01*
X125107912Y-93887207D01*
X125502793Y-94282088D01*
X125967124Y-94592344D01*
X126483061Y-94806052D01*
X127030777Y-94915000D01*
X127589223Y-94915000D01*
X128136939Y-94806052D01*
X128652876Y-94592344D01*
X129117207Y-94282088D01*
X129512088Y-93887207D01*
X129822344Y-93422876D01*
X130036052Y-92906939D01*
X130145000Y-92359223D01*
X130145000Y-91800777D01*
X130036052Y-91253061D01*
X129822344Y-90737124D01*
X129512088Y-90272793D01*
X129117207Y-89877912D01*
X128652876Y-89567656D01*
X128136939Y-89353948D01*
X127589223Y-89245000D01*
X127030777Y-89245000D01*
X126483061Y-89353948D01*
X125967124Y-89567656D01*
X125502793Y-89877912D01*
X125107912Y-90272793D01*
X124797656Y-90737124D01*
X124583948Y-91253061D01*
X124500064Y-91674770D01*
X124496027Y-88976371D01*
X143156027Y-89013635D01*
G37*
%TD.AperFunction*%
D19*
X130260000Y-99111660D02*
X130260001Y-101162668D01*
X130256324Y-101200000D01*
X130270998Y-101348985D01*
X130314454Y-101492246D01*
X130385026Y-101624276D01*
X130445808Y-101698338D01*
X130480000Y-101740001D01*
X130508998Y-101763799D01*
X131290198Y-102545000D01*
X131163740Y-102545000D01*
X130876842Y-102602068D01*
X130606589Y-102714010D01*
X130363368Y-102876525D01*
X130231513Y-103008380D01*
X130209502Y-102935820D01*
X130150537Y-102825506D01*
X130071185Y-102728815D01*
X129974494Y-102649463D01*
X129864180Y-102590498D01*
X129744482Y-102554188D01*
X129620000Y-102541928D01*
X129530000Y-102541928D01*
X129530000Y-99764801D01*
X130225356Y-99069445D01*
X130260000Y-99111660D01*
%TA.AperFunction,NonConductor*%
D20*
G36*
X130260000Y-99111660D02*
G01*
X130260001Y-101162668D01*
X130256324Y-101200000D01*
X130270998Y-101348985D01*
X130314454Y-101492246D01*
X130385026Y-101624276D01*
X130445808Y-101698338D01*
X130480000Y-101740001D01*
X130508998Y-101763799D01*
X131290198Y-102545000D01*
X131163740Y-102545000D01*
X130876842Y-102602068D01*
X130606589Y-102714010D01*
X130363368Y-102876525D01*
X130231513Y-103008380D01*
X130209502Y-102935820D01*
X130150537Y-102825506D01*
X130071185Y-102728815D01*
X129974494Y-102649463D01*
X129864180Y-102590498D01*
X129744482Y-102554188D01*
X129620000Y-102541928D01*
X129530000Y-102541928D01*
X129530000Y-99764801D01*
X130225356Y-99069445D01*
X130260000Y-99111660D01*
G37*
%TD.AperFunction*%
M02*
