%TF.GenerationSoftware,KiCad,Pcbnew,(5.1.10)-1*%
%TF.CreationDate,2021-11-07T18:39:57-08:00*%
%TF.ProjectId,mic_pcb,6d69635f-7063-4622-9e6b-696361645f70,rev?*%
%TF.SameCoordinates,Original*%
%TF.FileFunction,Soldermask,Top*%
%TF.FilePolarity,Negative*%
%FSLAX46Y46*%
G04 Gerber Fmt 4.6, Leading zero omitted, Abs format (unit mm)*
G04 Created by KiCad (PCBNEW (5.1.10)-1) date 2021-11-07 18:39:57*
%MOMM*%
%LPD*%
G01*
G04 APERTURE LIST*
%ADD10C,0.700000*%
%ADD11C,4.400000*%
%ADD12R,0.355600X2.311400*%
%ADD13R,0.406400X0.939800*%
%ADD14R,1.295400X0.355600*%
%ADD15O,1.700000X1.700000*%
%ADD16R,1.700000X1.700000*%
G04 APERTURE END LIST*
D10*
%TO.C,H2*%
X141506726Y-91003274D03*
X140340000Y-90520000D03*
X139173274Y-91003274D03*
X138690000Y-92170000D03*
X139173274Y-93336726D03*
X140340000Y-93820000D03*
X141506726Y-93336726D03*
X141990000Y-92170000D03*
D11*
X140340000Y-92170000D03*
%TD*%
D10*
%TO.C,H1*%
X128476726Y-90913274D03*
X127310000Y-90430000D03*
X126143274Y-90913274D03*
X125660000Y-92080000D03*
X126143274Y-93246726D03*
X127310000Y-93730000D03*
X128476726Y-93246726D03*
X128960000Y-92080000D03*
D11*
X127310000Y-92080000D03*
%TD*%
D12*
%TO.C,U1*%
X133773401Y-99157466D03*
X136223401Y-99157466D03*
D13*
X135448400Y-98482466D03*
D14*
X134998401Y-97432466D03*
X134998401Y-100882466D03*
D13*
X135448400Y-99832466D03*
X134548402Y-99832466D03*
X134548402Y-98482466D03*
%TD*%
D15*
%TO.C,J1*%
X138930000Y-104030000D03*
X136390000Y-104030000D03*
X133850000Y-104030000D03*
X131310000Y-104030000D03*
D16*
X128770000Y-104030000D03*
%TD*%
%TO.C,C2*%
G36*
G01*
X131930000Y-98190000D02*
X132270000Y-98190000D01*
G75*
G02*
X132410000Y-98330000I0J-140000D01*
G01*
X132410000Y-98610000D01*
G75*
G02*
X132270000Y-98750000I-140000J0D01*
G01*
X131930000Y-98750000D01*
G75*
G02*
X131790000Y-98610000I0J140000D01*
G01*
X131790000Y-98330000D01*
G75*
G02*
X131930000Y-98190000I140000J0D01*
G01*
G37*
G36*
G01*
X131930000Y-97230000D02*
X132270000Y-97230000D01*
G75*
G02*
X132410000Y-97370000I0J-140000D01*
G01*
X132410000Y-97650000D01*
G75*
G02*
X132270000Y-97790000I-140000J0D01*
G01*
X131930000Y-97790000D01*
G75*
G02*
X131790000Y-97650000I0J140000D01*
G01*
X131790000Y-97370000D01*
G75*
G02*
X131930000Y-97230000I140000J0D01*
G01*
G37*
%TD*%
%TO.C,C1*%
G36*
G01*
X130850000Y-98190000D02*
X131190000Y-98190000D01*
G75*
G02*
X131330000Y-98330000I0J-140000D01*
G01*
X131330000Y-98610000D01*
G75*
G02*
X131190000Y-98750000I-140000J0D01*
G01*
X130850000Y-98750000D01*
G75*
G02*
X130710000Y-98610000I0J140000D01*
G01*
X130710000Y-98330000D01*
G75*
G02*
X130850000Y-98190000I140000J0D01*
G01*
G37*
G36*
G01*
X130850000Y-97230000D02*
X131190000Y-97230000D01*
G75*
G02*
X131330000Y-97370000I0J-140000D01*
G01*
X131330000Y-97650000D01*
G75*
G02*
X131190000Y-97790000I-140000J0D01*
G01*
X130850000Y-97790000D01*
G75*
G02*
X130710000Y-97650000I0J140000D01*
G01*
X130710000Y-97370000D01*
G75*
G02*
X130850000Y-97230000I140000J0D01*
G01*
G37*
%TD*%
M02*
