M48
; DRILL file {KiCad (5.1.10)-1} date 11/07/21 18:39:33
; FORMAT={3:3/ absolute / metric / suppress leading zeros}
; #@! TF.CreationDate,2021-11-07T18:39:33-08:00
; #@! TF.GenerationSoftware,Kicad,Pcbnew,(5.1.10)-1
; #@! TF.FileFunction,Plated,1,2,PTH
FMAT,2
METRIC,TZ
T1C0.400
T2C1.000
T3C2.200
%
G90
G05
T1
X125660Y-92080
X126143Y-90913
X126143Y-93247
X127310Y-90430
X127310Y-93730
X128477Y-90913
X128477Y-93247
X128960Y-92080
X133040Y-98490
X134550Y-99780
X134560Y-98450
X135450Y-98450
X135450Y-99790
X138690Y-92170
X139173Y-91003
X139173Y-93337
X140340Y-90520
X140340Y-93820
X141507Y-91003
X141507Y-93337
X141990Y-92170
T2
X128770Y-104030
X131310Y-104030
X133850Y-104030
X136390Y-104030
X138930Y-104030
T3
X127310Y-92080
X140340Y-92170
T0
M30
