%TF.GenerationSoftware,KiCad,Pcbnew,(5.1.10)-1*%
%TF.CreationDate,2021-11-07T18:39:57-08:00*%
%TF.ProjectId,mic_pcb,6d69635f-7063-4622-9e6b-696361645f70,rev?*%
%TF.SameCoordinates,Original*%
%TF.FileFunction,Copper,L2,Bot*%
%TF.FilePolarity,Positive*%
%FSLAX46Y46*%
G04 Gerber Fmt 4.6, Leading zero omitted, Abs format (unit mm)*
G04 Created by KiCad (PCBNEW (5.1.10)-1) date 2021-11-07 18:39:57*
%MOMM*%
%LPD*%
G01*
G04 APERTURE LIST*
%TA.AperFunction,ComponentPad*%
%ADD10C,0.700000*%
%TD*%
%TA.AperFunction,ComponentPad*%
%ADD11C,4.400000*%
%TD*%
%TA.AperFunction,ComponentPad*%
%ADD12O,1.700000X1.700000*%
%TD*%
%TA.AperFunction,ComponentPad*%
%ADD13R,1.700000X1.700000*%
%TD*%
%TA.AperFunction,ViaPad*%
%ADD14C,0.600000*%
%TD*%
%TA.AperFunction,Conductor*%
%ADD15C,0.250000*%
%TD*%
%TA.AperFunction,NonConductor*%
%ADD16C,0.254000*%
%TD*%
%TA.AperFunction,NonConductor*%
%ADD17C,0.100000*%
%TD*%
G04 APERTURE END LIST*
D10*
%TO.P,H2,1*%
%TO.N,N/C*%
X141506726Y-91003274D03*
X140340000Y-90520000D03*
X139173274Y-91003274D03*
X138690000Y-92170000D03*
X139173274Y-93336726D03*
X140340000Y-93820000D03*
X141506726Y-93336726D03*
X141990000Y-92170000D03*
D11*
X140340000Y-92170000D03*
%TD*%
D10*
%TO.P,H1,1*%
%TO.N,N/C*%
X128476726Y-90913274D03*
X127310000Y-90430000D03*
X126143274Y-90913274D03*
X125660000Y-92080000D03*
X126143274Y-93246726D03*
X127310000Y-93730000D03*
X128476726Y-93246726D03*
X128960000Y-92080000D03*
D11*
X127310000Y-92080000D03*
%TD*%
D12*
%TO.P,J1,5*%
%TO.N,DOUT*%
X138930000Y-104030000D03*
%TO.P,J1,4*%
%TO.N,CLK*%
X136390000Y-104030000D03*
%TO.P,J1,3*%
%TO.N,VCC*%
X133850000Y-104030000D03*
%TO.P,J1,2*%
%TO.N,LR*%
X131310000Y-104030000D03*
D13*
%TO.P,J1,1*%
%TO.N,GND*%
X128770000Y-104030000D03*
%TD*%
D14*
%TO.N,VCC*%
X133040000Y-98490000D03*
X134560000Y-98450000D03*
%TO.N,LR*%
X134550000Y-99780000D03*
%TO.N,CLK*%
X135450000Y-99790000D03*
%TO.N,DOUT*%
X135450000Y-98450000D03*
%TD*%
D15*
%TO.N,VCC*%
X134520000Y-98490000D02*
X134560000Y-98450000D01*
X133040000Y-98490000D02*
X134520000Y-98490000D01*
%TO.N,LR*%
X131430000Y-103910000D02*
X131310000Y-104030000D01*
X134550000Y-100790000D02*
X131310000Y-104030000D01*
X134550000Y-99780000D02*
X134550000Y-100790000D01*
%TO.N,CLK*%
X135450000Y-103090000D02*
X136390000Y-104030000D01*
X135450000Y-99790000D02*
X135450000Y-103090000D01*
%TO.N,DOUT*%
X138930000Y-101930000D02*
X138930000Y-104030000D01*
X135450000Y-98450000D02*
X138930000Y-101930000D01*
%TD*%
D16*
X143156027Y-89013635D02*
X143160238Y-91816562D01*
X143066052Y-91343061D01*
X142852344Y-90827124D01*
X142542088Y-90362793D01*
X142147207Y-89967912D01*
X141682876Y-89657656D01*
X141166939Y-89443948D01*
X140619223Y-89335000D01*
X140060777Y-89335000D01*
X139513061Y-89443948D01*
X138997124Y-89657656D01*
X138532793Y-89967912D01*
X138137912Y-90362793D01*
X137827656Y-90827124D01*
X137613948Y-91343061D01*
X137505000Y-91890777D01*
X137505000Y-92449223D01*
X137613948Y-92996939D01*
X137827656Y-93512876D01*
X138137912Y-93977207D01*
X138532793Y-94372088D01*
X138997124Y-94682344D01*
X139513061Y-94896052D01*
X140060777Y-95005000D01*
X140619223Y-95005000D01*
X141166939Y-94896052D01*
X141682876Y-94682344D01*
X142147207Y-94372088D01*
X142542088Y-93977207D01*
X142852344Y-93512876D01*
X143066052Y-92996939D01*
X143161292Y-92518139D01*
X143183973Y-107616369D01*
X124523973Y-107653633D01*
X124517280Y-103180000D01*
X127281928Y-103180000D01*
X127281928Y-104880000D01*
X127294188Y-105004482D01*
X127330498Y-105124180D01*
X127389463Y-105234494D01*
X127468815Y-105331185D01*
X127565506Y-105410537D01*
X127675820Y-105469502D01*
X127795518Y-105505812D01*
X127920000Y-105518072D01*
X129620000Y-105518072D01*
X129744482Y-105505812D01*
X129864180Y-105469502D01*
X129974494Y-105410537D01*
X130071185Y-105331185D01*
X130150537Y-105234494D01*
X130209502Y-105124180D01*
X130231513Y-105051620D01*
X130363368Y-105183475D01*
X130606589Y-105345990D01*
X130876842Y-105457932D01*
X131163740Y-105515000D01*
X131456260Y-105515000D01*
X131743158Y-105457932D01*
X132013411Y-105345990D01*
X132256632Y-105183475D01*
X132463475Y-104976632D01*
X132580000Y-104802240D01*
X132696525Y-104976632D01*
X132903368Y-105183475D01*
X133146589Y-105345990D01*
X133416842Y-105457932D01*
X133703740Y-105515000D01*
X133996260Y-105515000D01*
X134283158Y-105457932D01*
X134553411Y-105345990D01*
X134796632Y-105183475D01*
X135003475Y-104976632D01*
X135120000Y-104802240D01*
X135236525Y-104976632D01*
X135443368Y-105183475D01*
X135686589Y-105345990D01*
X135956842Y-105457932D01*
X136243740Y-105515000D01*
X136536260Y-105515000D01*
X136823158Y-105457932D01*
X137093411Y-105345990D01*
X137336632Y-105183475D01*
X137543475Y-104976632D01*
X137660000Y-104802240D01*
X137776525Y-104976632D01*
X137983368Y-105183475D01*
X138226589Y-105345990D01*
X138496842Y-105457932D01*
X138783740Y-105515000D01*
X139076260Y-105515000D01*
X139363158Y-105457932D01*
X139633411Y-105345990D01*
X139876632Y-105183475D01*
X140083475Y-104976632D01*
X140245990Y-104733411D01*
X140357932Y-104463158D01*
X140415000Y-104176260D01*
X140415000Y-103883740D01*
X140357932Y-103596842D01*
X140245990Y-103326589D01*
X140083475Y-103083368D01*
X139876632Y-102876525D01*
X139690000Y-102751822D01*
X139690000Y-101967322D01*
X139693676Y-101929999D01*
X139690000Y-101892676D01*
X139690000Y-101892667D01*
X139679003Y-101781014D01*
X139635546Y-101637753D01*
X139564974Y-101505724D01*
X139470001Y-101389999D01*
X139441004Y-101366202D01*
X136373153Y-98298352D01*
X136349068Y-98177271D01*
X136278586Y-98007111D01*
X136176262Y-97853972D01*
X136046028Y-97723738D01*
X135892889Y-97621414D01*
X135722729Y-97550932D01*
X135542089Y-97515000D01*
X135357911Y-97515000D01*
X135177271Y-97550932D01*
X135007111Y-97621414D01*
X135005000Y-97622825D01*
X135002889Y-97621414D01*
X134832729Y-97550932D01*
X134652089Y-97515000D01*
X134467911Y-97515000D01*
X134287271Y-97550932D01*
X134117111Y-97621414D01*
X133963972Y-97723738D01*
X133957710Y-97730000D01*
X133585535Y-97730000D01*
X133482889Y-97661414D01*
X133312729Y-97590932D01*
X133132089Y-97555000D01*
X132947911Y-97555000D01*
X132767271Y-97590932D01*
X132597111Y-97661414D01*
X132443972Y-97763738D01*
X132313738Y-97893972D01*
X132211414Y-98047111D01*
X132140932Y-98217271D01*
X132105000Y-98397911D01*
X132105000Y-98582089D01*
X132140932Y-98762729D01*
X132211414Y-98932889D01*
X132313738Y-99086028D01*
X132443972Y-99216262D01*
X132597111Y-99318586D01*
X132767271Y-99389068D01*
X132947911Y-99425000D01*
X133132089Y-99425000D01*
X133312729Y-99389068D01*
X133482889Y-99318586D01*
X133585535Y-99250000D01*
X133779620Y-99250000D01*
X133721414Y-99337111D01*
X133650932Y-99507271D01*
X133615000Y-99687911D01*
X133615000Y-99872089D01*
X133650932Y-100052729D01*
X133721414Y-100222889D01*
X133790001Y-100325536D01*
X133790001Y-100475197D01*
X131676408Y-102588791D01*
X131456260Y-102545000D01*
X131163740Y-102545000D01*
X130876842Y-102602068D01*
X130606589Y-102714010D01*
X130363368Y-102876525D01*
X130231513Y-103008380D01*
X130209502Y-102935820D01*
X130150537Y-102825506D01*
X130071185Y-102728815D01*
X129974494Y-102649463D01*
X129864180Y-102590498D01*
X129744482Y-102554188D01*
X129620000Y-102541928D01*
X127920000Y-102541928D01*
X127795518Y-102554188D01*
X127675820Y-102590498D01*
X127565506Y-102649463D01*
X127468815Y-102728815D01*
X127389463Y-102825506D01*
X127330498Y-102935820D01*
X127294188Y-103055518D01*
X127281928Y-103180000D01*
X124517280Y-103180000D01*
X124507744Y-96806890D01*
X125650048Y-96806890D01*
X125650048Y-97053110D01*
X125698083Y-97294598D01*
X125792307Y-97522074D01*
X125929099Y-97726798D01*
X126103202Y-97900901D01*
X126307926Y-98037693D01*
X126535402Y-98131917D01*
X126776890Y-98179952D01*
X127023110Y-98179952D01*
X127264598Y-98131917D01*
X127492074Y-98037693D01*
X127696798Y-97900901D01*
X127870901Y-97726798D01*
X128007693Y-97522074D01*
X128101917Y-97294598D01*
X128149952Y-97053110D01*
X128149952Y-96886890D01*
X139470048Y-96886890D01*
X139470048Y-97133110D01*
X139518083Y-97374598D01*
X139612307Y-97602074D01*
X139749099Y-97806798D01*
X139923202Y-97980901D01*
X140127926Y-98117693D01*
X140355402Y-98211917D01*
X140596890Y-98259952D01*
X140843110Y-98259952D01*
X141084598Y-98211917D01*
X141312074Y-98117693D01*
X141516798Y-97980901D01*
X141690901Y-97806798D01*
X141827693Y-97602074D01*
X141921917Y-97374598D01*
X141969952Y-97133110D01*
X141969952Y-96886890D01*
X141921917Y-96645402D01*
X141827693Y-96417926D01*
X141690901Y-96213202D01*
X141516798Y-96039099D01*
X141312074Y-95902307D01*
X141084598Y-95808083D01*
X140843110Y-95760048D01*
X140596890Y-95760048D01*
X140355402Y-95808083D01*
X140127926Y-95902307D01*
X139923202Y-96039099D01*
X139749099Y-96213202D01*
X139612307Y-96417926D01*
X139518083Y-96645402D01*
X139470048Y-96886890D01*
X128149952Y-96886890D01*
X128149952Y-96806890D01*
X128101917Y-96565402D01*
X128007693Y-96337926D01*
X127870901Y-96133202D01*
X127696798Y-95959099D01*
X127492074Y-95822307D01*
X127264598Y-95728083D01*
X127023110Y-95680048D01*
X126776890Y-95680048D01*
X126535402Y-95728083D01*
X126307926Y-95822307D01*
X126103202Y-95959099D01*
X125929099Y-96133202D01*
X125792307Y-96337926D01*
X125698083Y-96565402D01*
X125650048Y-96806890D01*
X124507744Y-96806890D01*
X124501286Y-92491372D01*
X124583948Y-92906939D01*
X124797656Y-93422876D01*
X125107912Y-93887207D01*
X125502793Y-94282088D01*
X125967124Y-94592344D01*
X126483061Y-94806052D01*
X127030777Y-94915000D01*
X127589223Y-94915000D01*
X128136939Y-94806052D01*
X128652876Y-94592344D01*
X129117207Y-94282088D01*
X129512088Y-93887207D01*
X129822344Y-93422876D01*
X130036052Y-92906939D01*
X130145000Y-92359223D01*
X130145000Y-91800777D01*
X130036052Y-91253061D01*
X129822344Y-90737124D01*
X129512088Y-90272793D01*
X129117207Y-89877912D01*
X128652876Y-89567656D01*
X128136939Y-89353948D01*
X127589223Y-89245000D01*
X127030777Y-89245000D01*
X126483061Y-89353948D01*
X125967124Y-89567656D01*
X125502793Y-89877912D01*
X125107912Y-90272793D01*
X124797656Y-90737124D01*
X124583948Y-91253061D01*
X124500064Y-91674770D01*
X124496027Y-88976371D01*
X143156027Y-89013635D01*
%TA.AperFunction,NonConductor*%
D17*
G36*
X143156027Y-89013635D02*
G01*
X143160238Y-91816562D01*
X143066052Y-91343061D01*
X142852344Y-90827124D01*
X142542088Y-90362793D01*
X142147207Y-89967912D01*
X141682876Y-89657656D01*
X141166939Y-89443948D01*
X140619223Y-89335000D01*
X140060777Y-89335000D01*
X139513061Y-89443948D01*
X138997124Y-89657656D01*
X138532793Y-89967912D01*
X138137912Y-90362793D01*
X137827656Y-90827124D01*
X137613948Y-91343061D01*
X137505000Y-91890777D01*
X137505000Y-92449223D01*
X137613948Y-92996939D01*
X137827656Y-93512876D01*
X138137912Y-93977207D01*
X138532793Y-94372088D01*
X138997124Y-94682344D01*
X139513061Y-94896052D01*
X140060777Y-95005000D01*
X140619223Y-95005000D01*
X141166939Y-94896052D01*
X141682876Y-94682344D01*
X142147207Y-94372088D01*
X142542088Y-93977207D01*
X142852344Y-93512876D01*
X143066052Y-92996939D01*
X143161292Y-92518139D01*
X143183973Y-107616369D01*
X124523973Y-107653633D01*
X124517280Y-103180000D01*
X127281928Y-103180000D01*
X127281928Y-104880000D01*
X127294188Y-105004482D01*
X127330498Y-105124180D01*
X127389463Y-105234494D01*
X127468815Y-105331185D01*
X127565506Y-105410537D01*
X127675820Y-105469502D01*
X127795518Y-105505812D01*
X127920000Y-105518072D01*
X129620000Y-105518072D01*
X129744482Y-105505812D01*
X129864180Y-105469502D01*
X129974494Y-105410537D01*
X130071185Y-105331185D01*
X130150537Y-105234494D01*
X130209502Y-105124180D01*
X130231513Y-105051620D01*
X130363368Y-105183475D01*
X130606589Y-105345990D01*
X130876842Y-105457932D01*
X131163740Y-105515000D01*
X131456260Y-105515000D01*
X131743158Y-105457932D01*
X132013411Y-105345990D01*
X132256632Y-105183475D01*
X132463475Y-104976632D01*
X132580000Y-104802240D01*
X132696525Y-104976632D01*
X132903368Y-105183475D01*
X133146589Y-105345990D01*
X133416842Y-105457932D01*
X133703740Y-105515000D01*
X133996260Y-105515000D01*
X134283158Y-105457932D01*
X134553411Y-105345990D01*
X134796632Y-105183475D01*
X135003475Y-104976632D01*
X135120000Y-104802240D01*
X135236525Y-104976632D01*
X135443368Y-105183475D01*
X135686589Y-105345990D01*
X135956842Y-105457932D01*
X136243740Y-105515000D01*
X136536260Y-105515000D01*
X136823158Y-105457932D01*
X137093411Y-105345990D01*
X137336632Y-105183475D01*
X137543475Y-104976632D01*
X137660000Y-104802240D01*
X137776525Y-104976632D01*
X137983368Y-105183475D01*
X138226589Y-105345990D01*
X138496842Y-105457932D01*
X138783740Y-105515000D01*
X139076260Y-105515000D01*
X139363158Y-105457932D01*
X139633411Y-105345990D01*
X139876632Y-105183475D01*
X140083475Y-104976632D01*
X140245990Y-104733411D01*
X140357932Y-104463158D01*
X140415000Y-104176260D01*
X140415000Y-103883740D01*
X140357932Y-103596842D01*
X140245990Y-103326589D01*
X140083475Y-103083368D01*
X139876632Y-102876525D01*
X139690000Y-102751822D01*
X139690000Y-101967322D01*
X139693676Y-101929999D01*
X139690000Y-101892676D01*
X139690000Y-101892667D01*
X139679003Y-101781014D01*
X139635546Y-101637753D01*
X139564974Y-101505724D01*
X139470001Y-101389999D01*
X139441004Y-101366202D01*
X136373153Y-98298352D01*
X136349068Y-98177271D01*
X136278586Y-98007111D01*
X136176262Y-97853972D01*
X136046028Y-97723738D01*
X135892889Y-97621414D01*
X135722729Y-97550932D01*
X135542089Y-97515000D01*
X135357911Y-97515000D01*
X135177271Y-97550932D01*
X135007111Y-97621414D01*
X135005000Y-97622825D01*
X135002889Y-97621414D01*
X134832729Y-97550932D01*
X134652089Y-97515000D01*
X134467911Y-97515000D01*
X134287271Y-97550932D01*
X134117111Y-97621414D01*
X133963972Y-97723738D01*
X133957710Y-97730000D01*
X133585535Y-97730000D01*
X133482889Y-97661414D01*
X133312729Y-97590932D01*
X133132089Y-97555000D01*
X132947911Y-97555000D01*
X132767271Y-97590932D01*
X132597111Y-97661414D01*
X132443972Y-97763738D01*
X132313738Y-97893972D01*
X132211414Y-98047111D01*
X132140932Y-98217271D01*
X132105000Y-98397911D01*
X132105000Y-98582089D01*
X132140932Y-98762729D01*
X132211414Y-98932889D01*
X132313738Y-99086028D01*
X132443972Y-99216262D01*
X132597111Y-99318586D01*
X132767271Y-99389068D01*
X132947911Y-99425000D01*
X133132089Y-99425000D01*
X133312729Y-99389068D01*
X133482889Y-99318586D01*
X133585535Y-99250000D01*
X133779620Y-99250000D01*
X133721414Y-99337111D01*
X133650932Y-99507271D01*
X133615000Y-99687911D01*
X133615000Y-99872089D01*
X133650932Y-100052729D01*
X133721414Y-100222889D01*
X133790001Y-100325536D01*
X133790001Y-100475197D01*
X131676408Y-102588791D01*
X131456260Y-102545000D01*
X131163740Y-102545000D01*
X130876842Y-102602068D01*
X130606589Y-102714010D01*
X130363368Y-102876525D01*
X130231513Y-103008380D01*
X130209502Y-102935820D01*
X130150537Y-102825506D01*
X130071185Y-102728815D01*
X129974494Y-102649463D01*
X129864180Y-102590498D01*
X129744482Y-102554188D01*
X129620000Y-102541928D01*
X127920000Y-102541928D01*
X127795518Y-102554188D01*
X127675820Y-102590498D01*
X127565506Y-102649463D01*
X127468815Y-102728815D01*
X127389463Y-102825506D01*
X127330498Y-102935820D01*
X127294188Y-103055518D01*
X127281928Y-103180000D01*
X124517280Y-103180000D01*
X124507744Y-96806890D01*
X125650048Y-96806890D01*
X125650048Y-97053110D01*
X125698083Y-97294598D01*
X125792307Y-97522074D01*
X125929099Y-97726798D01*
X126103202Y-97900901D01*
X126307926Y-98037693D01*
X126535402Y-98131917D01*
X126776890Y-98179952D01*
X127023110Y-98179952D01*
X127264598Y-98131917D01*
X127492074Y-98037693D01*
X127696798Y-97900901D01*
X127870901Y-97726798D01*
X128007693Y-97522074D01*
X128101917Y-97294598D01*
X128149952Y-97053110D01*
X128149952Y-96886890D01*
X139470048Y-96886890D01*
X139470048Y-97133110D01*
X139518083Y-97374598D01*
X139612307Y-97602074D01*
X139749099Y-97806798D01*
X139923202Y-97980901D01*
X140127926Y-98117693D01*
X140355402Y-98211917D01*
X140596890Y-98259952D01*
X140843110Y-98259952D01*
X141084598Y-98211917D01*
X141312074Y-98117693D01*
X141516798Y-97980901D01*
X141690901Y-97806798D01*
X141827693Y-97602074D01*
X141921917Y-97374598D01*
X141969952Y-97133110D01*
X141969952Y-96886890D01*
X141921917Y-96645402D01*
X141827693Y-96417926D01*
X141690901Y-96213202D01*
X141516798Y-96039099D01*
X141312074Y-95902307D01*
X141084598Y-95808083D01*
X140843110Y-95760048D01*
X140596890Y-95760048D01*
X140355402Y-95808083D01*
X140127926Y-95902307D01*
X139923202Y-96039099D01*
X139749099Y-96213202D01*
X139612307Y-96417926D01*
X139518083Y-96645402D01*
X139470048Y-96886890D01*
X128149952Y-96886890D01*
X128149952Y-96806890D01*
X128101917Y-96565402D01*
X128007693Y-96337926D01*
X127870901Y-96133202D01*
X127696798Y-95959099D01*
X127492074Y-95822307D01*
X127264598Y-95728083D01*
X127023110Y-95680048D01*
X126776890Y-95680048D01*
X126535402Y-95728083D01*
X126307926Y-95822307D01*
X126103202Y-95959099D01*
X125929099Y-96133202D01*
X125792307Y-96337926D01*
X125698083Y-96565402D01*
X125650048Y-96806890D01*
X124507744Y-96806890D01*
X124501286Y-92491372D01*
X124583948Y-92906939D01*
X124797656Y-93422876D01*
X125107912Y-93887207D01*
X125502793Y-94282088D01*
X125967124Y-94592344D01*
X126483061Y-94806052D01*
X127030777Y-94915000D01*
X127589223Y-94915000D01*
X128136939Y-94806052D01*
X128652876Y-94592344D01*
X129117207Y-94282088D01*
X129512088Y-93887207D01*
X129822344Y-93422876D01*
X130036052Y-92906939D01*
X130145000Y-92359223D01*
X130145000Y-91800777D01*
X130036052Y-91253061D01*
X129822344Y-90737124D01*
X129512088Y-90272793D01*
X129117207Y-89877912D01*
X128652876Y-89567656D01*
X128136939Y-89353948D01*
X127589223Y-89245000D01*
X127030777Y-89245000D01*
X126483061Y-89353948D01*
X125967124Y-89567656D01*
X125502793Y-89877912D01*
X125107912Y-90272793D01*
X124797656Y-90737124D01*
X124583948Y-91253061D01*
X124500064Y-91674770D01*
X124496027Y-88976371D01*
X143156027Y-89013635D01*
G37*
%TD.AperFunction*%
D16*
X138170000Y-102244802D02*
X138170000Y-102751821D01*
X137983368Y-102876525D01*
X137776525Y-103083368D01*
X137660000Y-103257760D01*
X137543475Y-103083368D01*
X137336632Y-102876525D01*
X137093411Y-102714010D01*
X136823158Y-102602068D01*
X136536260Y-102545000D01*
X136243740Y-102545000D01*
X136210000Y-102551711D01*
X136210000Y-100335535D01*
X136230321Y-100305123D01*
X138170000Y-102244802D01*
%TA.AperFunction,NonConductor*%
D17*
G36*
X138170000Y-102244802D02*
G01*
X138170000Y-102751821D01*
X137983368Y-102876525D01*
X137776525Y-103083368D01*
X137660000Y-103257760D01*
X137543475Y-103083368D01*
X137336632Y-102876525D01*
X137093411Y-102714010D01*
X136823158Y-102602068D01*
X136536260Y-102545000D01*
X136243740Y-102545000D01*
X136210000Y-102551711D01*
X136210000Y-100335535D01*
X136230321Y-100305123D01*
X138170000Y-102244802D01*
G37*
%TD.AperFunction*%
D16*
X134690001Y-102805276D02*
X134553411Y-102714010D01*
X134283158Y-102602068D01*
X133996260Y-102545000D01*
X133869802Y-102545000D01*
X134690001Y-101724801D01*
X134690001Y-102805276D01*
%TA.AperFunction,NonConductor*%
D17*
G36*
X134690001Y-102805276D02*
G01*
X134553411Y-102714010D01*
X134283158Y-102602068D01*
X133996260Y-102545000D01*
X133869802Y-102545000D01*
X134690001Y-101724801D01*
X134690001Y-102805276D01*
G37*
%TD.AperFunction*%
M02*
