%TF.GenerationSoftware,KiCad,Pcbnew,(5.1.10)-1*%
%TF.CreationDate,2021-11-07T18:39:57-08:00*%
%TF.ProjectId,mic_pcb,6d69635f-7063-4622-9e6b-696361645f70,rev?*%
%TF.SameCoordinates,Original*%
%TF.FileFunction,Legend,Top*%
%TF.FilePolarity,Positive*%
%FSLAX46Y46*%
G04 Gerber Fmt 4.6, Leading zero omitted, Abs format (unit mm)*
G04 Created by KiCad (PCBNEW (5.1.10)-1) date 2021-11-07 18:39:57*
%MOMM*%
%LPD*%
G01*
G04 APERTURE LIST*
%ADD10C,0.150000*%
%ADD11C,0.120000*%
G04 APERTURE END LIST*
D10*
X131139523Y-106762380D02*
X130663333Y-106762380D01*
X130663333Y-105762380D01*
X132044285Y-106762380D02*
X131710952Y-106286190D01*
X131472857Y-106762380D02*
X131472857Y-105762380D01*
X131853809Y-105762380D01*
X131949047Y-105810000D01*
X131996666Y-105857619D01*
X132044285Y-105952857D01*
X132044285Y-106095714D01*
X131996666Y-106190952D01*
X131949047Y-106238571D01*
X131853809Y-106286190D01*
X131472857Y-106286190D01*
X138818095Y-106792380D02*
X138818095Y-105792380D01*
X139056190Y-105792380D01*
X139199047Y-105840000D01*
X139294285Y-105935238D01*
X139341904Y-106030476D01*
X139389523Y-106220952D01*
X139389523Y-106363809D01*
X139341904Y-106554285D01*
X139294285Y-106649523D01*
X139199047Y-106744761D01*
X139056190Y-106792380D01*
X138818095Y-106792380D01*
X136699523Y-106727142D02*
X136651904Y-106774761D01*
X136509047Y-106822380D01*
X136413809Y-106822380D01*
X136270952Y-106774761D01*
X136175714Y-106679523D01*
X136128095Y-106584285D01*
X136080476Y-106393809D01*
X136080476Y-106250952D01*
X136128095Y-106060476D01*
X136175714Y-105965238D01*
X136270952Y-105870000D01*
X136413809Y-105822380D01*
X136509047Y-105822380D01*
X136651904Y-105870000D01*
X136699523Y-105917619D01*
X128369047Y-106351428D02*
X129130952Y-106351428D01*
X133459047Y-106321428D02*
X134220952Y-106321428D01*
X133840000Y-106702380D02*
X133840000Y-105940476D01*
D11*
%TO.C,U1*%
X133322001Y-100502531D02*
X133322001Y-101329166D01*
X136674801Y-97812401D02*
X136674801Y-96985766D01*
X134154720Y-96985766D02*
X133322001Y-96985766D01*
X135842082Y-101329166D02*
X136674801Y-101329166D01*
X133322001Y-96985766D02*
X133322001Y-97812401D01*
X136674801Y-96985766D02*
X135842082Y-96985766D01*
X136674801Y-101329166D02*
X136674801Y-100502531D01*
X133322001Y-101329166D02*
X134154720Y-101329166D01*
%TO.C,C2*%
X131740000Y-97882164D02*
X131740000Y-98097836D01*
X132460000Y-97882164D02*
X132460000Y-98097836D01*
%TO.C,C1*%
X130660000Y-97882164D02*
X130660000Y-98097836D01*
X131380000Y-97882164D02*
X131380000Y-98097836D01*
%TO.C,U1*%
D10*
X134998401Y-98609846D02*
X134998401Y-98847942D01*
X134760305Y-98752704D02*
X134998401Y-98847942D01*
X135236496Y-98752704D01*
X134855543Y-99038418D02*
X134998401Y-98847942D01*
X135141258Y-99038418D01*
%TD*%
M02*
